<?xml version="1.0" encoding="UTF-8" standalone="no"?>
<svg width="32px" height="26px" viewBox="0 0 32 26" version="1.1" xmlns="http://www.w3.org/2000/svg" xmlns:xlink="http://www.w3.org/1999/xlink" xmlns:sketch="http://www.bohemiancoding.com/sketch/ns">
    <!-- Generator: Sketch 3.3.2 (12043) - http://www.bohemiancoding.com/sketch -->
    <title>Shape</title>
    <desc>Created with Sketch.</desc>
    <defs></defs>
    <g id="Page-1" stroke="none" stroke-width="1" fill="none" fill-rule="evenodd" sketch:type="MSPage">
        <g id="Shape" sketch:type="MSLayerGroup" fill="#000000">
            <path d="M4.11480152,9.3818159 C4.11480152,8.97416207 4.21458611,8.59668104 4.38330085,8.28403944 L3.00469792,8.28403944 C1.67270489,8.28403944 0.556692994,9.13914953 0.163462919,10.311395 L1.89065545,10.311395 C2.16834547,10.311395 2.39417376,10.5303084 2.39417376,10.8025056 C2.39417376,10.8198389 2.38629603,10.8339623 2.38629603,10.8487277 C2.38629603,10.8596413 2.39154785,10.8686289 2.39154785,10.8789005 C2.39154785,11.1523817 2.16703252,11.3725789 1.8893425,11.3725789 L0,11.3725789 L0,11.9355906 L1.88999897,11.9355906 C2.16768899,11.9355906 2.39351728,12.153862 2.39351728,12.4254172 C2.39351728,12.4421085 2.38563955,12.454948 2.38563955,12.4703554 C2.38563955,12.4825529 2.39089137,12.4915406 2.39089137,12.5024541 C2.39089137,12.7746513 2.16637604,12.9942066 1.88868602,12.9942066 L0,12.9942066 L0,13.5572183 L1.88999897,13.5572183 C2.16768899,13.5572183 2.39351728,13.7780575 2.39351728,14.0502547 C2.39351728,14.0643782 2.38563955,14.0772177 2.38563955,14.093267 C2.38563955,14.1041806 2.39089137,14.1150942 2.39089137,14.1247238 C2.39089137,14.3988469 2.16637604,14.6177602 1.88868602,14.6177602 L0.116853011,14.6318837 C0.478572161,15.8124749 1.66876603,16.666943 3.00404144,16.666943 L4.51787876,16.666943 C4.26973023,16.3183508 4.11480152,15.8638328 4.11480152,15.3585989 L4.11480152,9.3818159 L4.11480152,9.3818159 Z M30.4599036,0 L32,0 L32,23.5200212 L30.4599036,23.5200212 L30.4599036,0 Z M12.0017233,7.83979306 C11.8106883,7.71525 11.6032414,7.6118921 11.3793825,7.54448478 C11.1581496,7.47643547 10.9244435,7.43470713 10.6789209,7.43470713 C10.4399631,7.43470713 10.1603036,7.47001573 9.86685814,7.53485516 L6.62517181,7.53485516 C5.78159811,7.53485516 5.09295312,8.41050843 5.09295312,9.48645775 L5.09295312,15.4664506 C5.09295312,16.541116 5.78159811,17.4148433 6.62517181,17.4148433 L8.41144733,17.4148433 L8.68060314,19.9416551 L9.20709816,19.7747417 L10.6782644,24.2615018 C11.1102267,25.5769076 12.551195,26.3016968 13.8956611,25.8799196 C15.2414401,25.4587843 15.9839163,24.0477242 15.551954,22.7336024 L15.422628,22.3407139 L15.422628,22.3419979 L14.0761924,18.2359287 L16.4342599,17.4912383 C16.5136937,17.5053617 16.5957534,17.5162753 16.6751872,17.5316827 C24.0415222,18.9722735 29.612391,22.5499976 29.612391,22.5499976 L29.612391,0.414715552 C25.8809724,5.14285803 15.9307416,7.19525063 12.0017233,7.83979306 Z" sketch:type="MSShapeGroup"></path>
        </g>
    </g>
</svg>