<?xml version="1.0" encoding="UTF-8" standalone="no"?>
<svg width="32px" height="32px" viewBox="0 0 32 32" version="1.1" xmlns="http://www.w3.org/2000/svg" xmlns:xlink="http://www.w3.org/1999/xlink" xmlns:sketch="http://www.bohemiancoding.com/sketch/ns">
    <!-- Generator: Sketch 3.3.2 (12043) - http://www.bohemiancoding.com/sketch -->
    <title>Shape</title>
    <desc>Created with Sketch.</desc>
    <defs></defs>
    <g id="Page-1" stroke="none" stroke-width="1" fill="none" fill-rule="evenodd" sketch:type="MSPage">
        <path d="M29,32 L3,32 C1.346,32 0,30.654 0,29 L0,3 C0,1.346 1.346,0 3,0 L29,0 C30.654,0 32,1.346 32,3 L32,29 C32,30.654 30.654,32 29,32 L29,32 Z M30,3 C30,2.448 29.55,2 29,2 L3,2 C2.448,2 2,2.448 2,3 L2,29 C2,29.55 2.448,30 3,30 L29,30 C29.55,30 30,29.55 30,29 L30,3 L30,3 Z M6,7.642 L26,7.642 L26,9.642 L6,9.642 L6,7.642 L6,7.642 Z M18.59,13.642 L6,13.642 L6,11.642 L18.59,11.642 L18.59,13.642 L18.59,13.642 Z M18.59,17.64 L6,17.64 L6,15.642 L18.59,15.642 L18.59,17.64 L18.59,17.64 Z M6.678,23.838 C7.266,24.146 8.156,23.31 9.018,22.5 C9.434,22.112 9.864,21.71 10.29,21.4 C10.5,21.248 10.64,21.294 10.722,21.364 C10.944,21.544 10.82,21.818 10.41,22.724 C10.15,23.298 9.542,24.64 9.698,24.88 L9.7,24.88 C9.908,24.88 10.44,24.34 10.794,23.982 C11.39,23.378 12.006,22.754 12.56,22.748 L12.564,22.748 C12.682,22.748 12.788,22.796 12.86,22.882 C13.028,23.082 12.966,23.414 12.896,23.8 C12.868,23.948 12.826,24.174 12.828,24.298 C13.028,24.24 13.468,23.996 13.744,23.842 C14.324,23.524 14.69,23.328 14.936,23.324 L14.946,23.324 C15.262,23.324 15.536,23.504 15.774,23.664 C15.97,23.794 16.154,23.916 16.312,23.916 C18.252,23.916 18.698,23.874 19.172,23.83 L19.354,23.812 C19.504,23.8 19.61,23.9 19.622,24.038 C19.632,24.174 19.532,24.296 19.394,24.308 L19.216,24.326 C18.73,24.37 18.274,24.414 16.31,24.414 C16,24.414 15.732,24.234 15.496,24.078 C15.298,23.948 15.11,23.822 14.944,23.822 L14.94,23.822 C14.804,23.826 14.31,24.098 13.984,24.28 C13.38,24.614 13.008,24.816 12.74,24.81 C12.616,24.806 12.508,24.754 12.436,24.664 C12.264,24.45 12.328,24.106 12.4,23.706 C12.424,23.578 12.46,23.38 12.464,23.262 C12.112,23.354 11.582,23.892 11.148,24.332 C10.576,24.912 10.122,25.372 9.704,25.372 L9.67,25.372 C9.496,25.362 9.352,25.278 9.268,25.138 C9.002,24.698 9.384,23.774 9.952,22.518 C10,22.414 10.05,22.3 10.098,22.192 C9.848,22.408 9.602,22.638 9.36,22.866 C8.324,23.836 7.35,24.754 6.444,24.282 C6.322,24.216 6.276,24.066 6.34,23.944 C6.404,23.822 6.556,23.776 6.678,23.838 L6.678,23.838 Z M21.274,23.008 C20.66,23.594 19.896,24.256 19.896,24.256 C19.896,24.256 19.566,23.3 19.328,22.486 L21.274,23.008 L21.274,23.008 Z M21.408,12.736 C21.472,12.498 21.94,12.41 22.532,12.49 L22.652,12.034 C22.734,11.734 23.016,11.548 23.282,11.62 C23.548,11.69 23.7,11.994 23.618,12.292 L23.496,12.748 C24.05,12.976 24.41,13.286 24.348,13.522 L22.028,22.176 L19.09,21.388 L21.408,12.736 L21.408,12.736 Z M24.962,13.396 C25.096,13.432 25.172,13.582 25.13,13.732 L23.972,18.058 L23.49,17.93 L24.648,13.602 C24.69,13.454 24.828,13.36 24.962,13.396 L24.962,13.396 Z" id="Shape" fill="#444444" sketch:type="MSShapeGroup"></path>
    </g>
</svg>