<?xml version="1.0" encoding="UTF-8" standalone="no"?>
<svg width="26px" height="32px" viewBox="0 0 26 32" version="1.1" xmlns="http://www.w3.org/2000/svg" xmlns:xlink="http://www.w3.org/1999/xlink" xmlns:sketch="http://www.bohemiancoding.com/sketch/ns">
    <!-- Generator: Sketch 3.3.2 (12043) - http://www.bohemiancoding.com/sketch -->
    <title>Service</title>
    <desc>Created with Sketch.</desc>
    <defs></defs>
        <path d="M13.241222,2.285091 L12.539222,2.285091 C12.163667,2.285091 11.858889,1.981091 11.858889,1.604364 L11.858889,1.581091 C11.858889,0.708364 11.152556,0 10.281556,0 L10.244,0 C9.373,0 8.666667,0.708364 8.666667,1.581091 L8.666667,1.604364 C8.666667,1.981091 8.361889,2.285091 7.986333,2.285091 L7.284333,2.285091 C6.536111,2.285091 5.929444,2.893091 5.929444,3.643636 L5.929444,3.671273 C5.929444,4.420364 6.536111,5.028364 7.284333,5.028364 L13.241222,5.028364 C13.989444,5.028364 14.596111,4.420364 14.596111,3.671273 L14.596111,3.643636 C14.596111,2.893091 13.989444,2.285091 13.241222,2.285091 L13.241222,2.285091 L13.241222,2.285091 Z M10.262778,2.285091 C9.885778,2.285091 9.578111,1.978182 9.578111,1.6 C9.578111,1.221818 9.885778,0.914909 10.262778,0.914909 C10.641222,0.914909 10.947444,1.221818 10.947444,1.6 C10.947444,1.978182 10.641222,2.285091 10.262778,2.285091 L10.262778,2.285091 L10.262778,2.285091 Z M13.309111,28.8 L1.824333,28.8 C0.816111,28.8 0,27.981091 0,26.971636 L0,5.028364 C0,4.018909 0.816111,3.2 1.367889,3.2 L5.064222,3.2 C5.033889,3.351273 5.018,3.509818 5.018,3.671273 C5.018,4.923636 6.034889,5.943273 7.284333,5.943273 L13.241222,5.943273 C14.492111,5.943273 15.509,4.923636 15.509,3.643636 C15.509,3.490909 15.491667,3.344 15.464222,3.2 L18.246222,3.2 C19.709444,3.2 20.525556,4.018909 20.525556,5.028364 L20.525556,18.766545 C20.373889,18.756364 20.223667,18.743273 20.070556,18.743273 C19.439333,18.743273 18.829778,18.832 18.246222,18.983273 L18.246222,8.228364 L2.280778,8.228364 L2.280778,26.514909 L12.794889,26.514909 C12.845444,27.317818 13.020222,28.087273 13.309111,28.8 L13.309111,28.8 L13.309111,28.8 Z M20.070556,20.114909 C16.794556,20.114909 14.139667,22.775273 14.139667,26.056727 C14.139667,29.339636 16.794556,32 20.070556,32 C23.345111,32 26,29.339636 26,26.056727 C26,22.775273 23.345111,20.114909 20.070556,20.114909 L20.070556,20.114909 L20.070556,20.114909 Z M23.944556,24.836364 L20.295889,28.949818 C20.115333,29.153455 19.865444,29.256727 19.612667,29.256727 C19.413333,29.256727 19.212556,29.191273 19.043556,29.056 L16.762778,27.227636 C16.369889,26.913455 16.306333,26.337455 16.621222,25.943273 C16.934667,25.549091 17.509556,25.485091 17.902444,25.800727 L19.507222,27.086545 L22.581,23.620364 C22.916111,23.243636 23.492444,23.208727 23.869444,23.544727 C24.245,23.880727 24.279667,24.458182 23.944556,24.836364 L23.944556,24.836364 L23.944556,24.836364 Z M15.965444,16 L8.666667,16 C8.413889,16 8.210222,15.794909 8.210222,15.543273 L8.210222,15.085091 C8.210222,14.833455 8.413889,14.628364 8.666667,14.628364 L15.965444,14.628364 C16.216778,14.628364 16.420444,14.833455 16.420444,15.085091 L16.420444,15.543273 C16.420444,15.794909 16.216778,16 15.965444,16 L15.965444,16 L15.965444,16 Z M15.965444,11.885091 L8.666667,11.885091 C8.413889,11.885091 8.210222,11.681455 8.210222,11.428364 L8.210222,10.971636 C8.210222,10.718545 8.413889,10.514909 8.666667,10.514909 L15.965444,10.514909 C16.216778,10.514909 16.420444,10.718545 16.420444,10.971636 L16.420444,11.428364 C16.420444,11.681455 16.216778,11.885091 15.965444,11.885091 L15.965444,11.885091 L15.965444,11.885091 Z M13.684667,19.656727 L8.666667,19.656727 C8.413889,19.656727 8.210222,19.453091 8.210222,19.2 L8.210222,18.743273 C8.210222,18.490182 8.413889,18.285091 8.666667,18.285091 L13.684667,18.285091 C13.936,18.285091 14.139667,18.490182 14.139667,18.743273 L14.139667,19.2 C14.139667,19.453091 13.936,19.656727 13.684667,19.656727 L13.684667,19.656727 L13.684667,19.656727 Z M12.771778,23.771636 L8.666667,23.771636 C8.413889,23.771636 8.210222,23.566545 8.210222,23.314909 L8.210222,22.856727 C8.210222,22.605091 8.413889,22.4 8.666667,22.4 L12.771778,22.4 C13.023111,22.4 13.228222,22.605091 13.228222,22.856727 L13.228222,23.314909 C13.228222,23.566545 13.023111,23.771636 12.771778,23.771636 L12.771778,23.771636 L12.771778,23.771636 Z M7.336333,10.194909 L5.656444,12.088727 C5.574111,12.181818 5.458556,12.229818 5.343,12.229818 C5.250556,12.229818 5.158111,12.200727 5.081556,12.138182 L4.031444,11.296 C3.849444,11.150545 3.820556,10.885818 3.965,10.705455 C4.109444,10.523636 4.375222,10.493091 4.555778,10.638545 L5.293889,11.230545 L6.709444,9.636364 C6.862556,9.461818 7.128333,9.445818 7.301667,9.6 C7.475,9.755636 7.490889,10.021818 7.336333,10.194909 L7.336333,10.194909 L7.336333,10.194909 Z M7.336333,14.261818 L5.656444,16.155636 C5.574111,16.250182 5.458556,16.298182 5.343,16.298182 C5.250556,16.298182 5.158111,16.267636 5.081556,16.205091 L4.031444,15.362909 C3.849444,15.218909 3.820556,14.952727 3.965,14.772364 C4.109444,14.590545 4.375222,14.561455 4.555778,14.705455 L5.293889,15.298909 L6.709444,13.703273 C6.862556,13.528727 7.128333,13.512727 7.301667,13.668364 C7.475,13.822545 7.490889,14.088727 7.336333,14.261818 L7.336333,14.261818 L7.336333,14.261818 Z M7.336333,18.151273 L5.656444,20.046545 C5.574111,20.139636 5.458556,20.187636 5.343,20.187636 C5.250556,20.187636 5.158111,20.157091 5.081556,20.094545 L4.031444,19.252364 C3.849444,19.108364 3.820556,18.843636 3.965,18.661818 C4.109444,18.48 4.375222,18.450909 4.555778,18.596364 L5.293889,19.188364 L6.709444,17.592727 C6.862556,17.418182 7.128333,17.403636 7.301667,17.557818 C7.475,17.712 7.490889,17.978182 7.336333,18.151273 L7.336333,18.151273 L7.336333,18.151273 Z M7.336333,22.068364 L5.656444,23.963636 C5.574111,24.056727 5.458556,24.104727 5.343,24.104727 C5.250556,24.104727 5.158111,24.074182 5.081556,24.011636 L4.031444,23.170909 C3.849444,23.025455 3.820556,22.760727 3.965,22.578909 C4.109444,22.397091 4.375222,22.368 4.555778,22.513455 L5.293889,23.105455 L6.709444,21.509818 C6.862556,21.335273 7.128333,21.320727 7.301667,21.474909 C7.475,21.629091 7.490889,21.895273 7.336333,22.068364 L7.336333,22.068364 L7.336333,22.068364 Z" id="Service" fill="#444444" sketch:type="MSShapeGroup"></path>
</svg>