<?xml version="1.0" encoding="UTF-8" standalone="no"?>
<svg width="32px" height="28px" viewBox="0 0 32 28" version="1.1" xmlns="http://www.w3.org/2000/svg" xmlns:xlink="http://www.w3.org/1999/xlink" xmlns:sketch="http://www.bohemiancoding.com/sketch/ns">
    <!-- Generator: Sketch 3.3.2 (12043) - http://www.bohemiancoding.com/sketch -->
    <title>Shape</title>
    <desc>Created with Sketch.</desc>
    <defs></defs>
    <g id="Page-1" stroke="none" stroke-width="1" fill="none" fill-rule="evenodd" sketch:type="MSPage">
        <g id="Shape" sketch:type="MSLayerGroup" fill="#404040">
            <path d="M17.3437255,20.2430482 C16.9527349,20.6351266 16.9527349,21.2680532 17.3437255,21.6573311 C17.734716,22.0480092 18.3678145,22.0480092 18.7574136,21.6573311 L25.6561004,14.756751 C25.8648142,14.5495095 25.9538655,14.2722541 25.9399512,14.0005997 C25.9538655,13.7275451 25.8648142,13.4516899 25.6561004,13.2444485 L18.7574136,6.34386837 C18.3678145,5.95319024 17.7333245,5.95319024 17.3437255,6.34386837 C16.9527349,6.73594679 16.9527349,7.36887337 17.3437255,7.75815123 L22.5866161,13.0022 L1.0000434,13.0022 C0.44903896,13.0022 0.001,13.4502897 0.001,14.002 C0.001,14.5537103 0.44903896,15.0018 1.0000434,15.0018 L22.5866161,15.0018 L17.3437255,20.2430482 L17.3437255,20.2430482 Z M28.0006521,0.002 L8.00030429,0.002 C5.79211227,0.002 3.99995643,1.79155791 3.99995643,4.00119984 L3.99995643,8.00179996 L6.00082607,8.00179996 L6.00082607,4.00119984 C6.00082607,2.89777916 6.89551257,2.00159992 8.00030429,2.00159992 L28.0006521,2.00159992 C29.1054439,2.00159992 30.0001304,2.89777916 30.0001304,4.00119984 L30.0001304,24.0013999 C30.0001304,25.1062208 29.1054439,26.0024001 28.0006521,26.0024001 L8.00030429,26.0024001 C6.89551257,26.0024001 6.00082607,25.1062208 6.00082607,24.0013999 L6.00082607,20.0007998 L3.99995643,20.0007998 L3.99995643,24.0013999 C3.99995643,26.2110418 5.79211227,28.002 8.00030429,28.002 L28.0006521,28.002 C30.2088442,28.002 32.001,26.2110418 32.001,24.0013999 L32.001,4.00119984 C32.001,1.79155791 30.2088442,0.002 28.0006521,0.002 L28.0006521,0.002 Z" sketch:type="MSShapeGroup"></path>
        </g>
    </g>
</svg>