<?xml version="1.0" encoding="UTF-8" standalone="no"?>
<svg width="32px" height="32px" viewBox="0 0 32 32" version="1.1" xmlns="http://www.w3.org/2000/svg" xmlns:xlink="http://www.w3.org/1999/xlink" xmlns:sketch="http://www.bohemiancoding.com/sketch/ns">
    <!-- Generator: Sketch 3.3.2 (12043) - http://www.bohemiancoding.com/sketch -->
    <title>Shape</title>
    <desc>Created with Sketch.</desc>
    <defs></defs>
    <g id="Page-1" stroke="none" stroke-width="1" fill="none" fill-rule="evenodd" sketch:type="MSPage">
        <path d="M27.6202595,16.1731051 L25.9872389,16.1731051 C25.9872389,10.8457755 21.6565322,6.51506879 16.3312039,6.51506879 L16.3312039,4.88605066 C22.5550938,4.88204816 27.6202595,9.94721388 27.6202595,16.1731051 L27.6202595,16.1731051 Z M16.3312039,7.70181051 L16.3292026,9.33082864 C20.1035616,9.33082864 23.171479,12.4007473 23.1694778,16.1711038 L24.8024984,16.1711038 C24.8024984,11.5001845 21.0021232,7.70181051 16.3312039,7.70181051 L16.3312039,7.70181051 Z M16.005,0.005 C7.1814853,0.005 0.005,7.1814853 0.005,16.005 C0.005,24.8285147 7.1814853,32.005 16.005,32.005 C16.5493402,32.005 16.9916166,31.5627236 16.9916166,31.0183834 C16.9916166,30.4720419 16.5493402,30.0317667 16.005,30.0317667 C8.27016573,30.0317667 1.98023452,23.737833 1.98023452,16.005 C1.98023452,8.27016573 8.27016573,1.98023452 16.005,1.98023452 C23.7398343,1.98023452 30.0297655,8.27216698 30.0297655,16.005 C30.0297655,19.23702 28.3106911,22.4410225 25.8491526,23.7978705 C24.9545935,24.2901782 23.9839869,24.5323296 22.9493402,24.5423358 C23.5717292,24.1741057 24.1100657,23.673793 24.5083146,23.043399 C24.5883646,22.9253252 24.6904284,22.8212602 24.7404597,22.6931801 C25.062661,21.9206973 25.0906785,21.0421482 25.2847999,20.2256379 C25.5229487,19.1829862 20.7219481,17.1477142 20.3056879,18.4485272 C20.1535929,18.9308286 19.923449,20.4557817 19.6212602,20.8560319 C19.3490901,21.2142558 18.686676,21.0441495 18.2724171,20.6919293 C17.177733,19.7593465 15.9549687,18.3884897 14.8822983,17.305813 L14.8842996,17.305813 C14.8582833,17.2757942 14.824262,17.2437742 14.7942433,17.2137555 C14.7642245,17.185738 14.7342058,17.1537179 14.704187,17.1236992 L14.704187,17.1257004 C13.6195091,16.05303 12.2486523,14.8342683 11.3180707,13.7375829 C10.9638493,13.323324 10.793743,12.6589087 11.1519669,12.3887398 C11.5542183,12.0845497 13.0791714,11.8584084 13.5614728,11.7043121 C14.8602846,11.2900532 12.8250125,6.48505003 11.7823609,6.72520013 C10.9658505,6.91531895 10.0893027,6.94733896 9.31681989,7.26553784 C9.18673859,7.32157286 9.0846748,7.42363665 8.96459975,7.50168543 C6.22288618,9.23877111 5.87066604,13.459409 8.54633834,16.6013727 C9.56497498,17.8061257 10.6296404,18.9688524 11.7243246,20.1055629 L11.7183208,20.1095654 C11.7483396,20.1395841 11.7803596,20.1676016 11.8123796,20.1976204 C11.8423984,20.2276391 11.8704159,20.2576579 11.8984334,20.2896779 L11.9044371,20.2856754 C13.0411476,21.3783583 14.3879894,22.9933677 16.5753565,24.4522795 C21.1822358,27.5302033 24.7204472,26.6716667 26.801748,25.5289525 C30.3959944,23.5497154 32.005,19.3190713 32.005,16.0070013 C32.005,7.1814853 24.8265134,0.005 16.005,0.005 L16.005,0.005 Z" id="Shape" fill="#444444" sketch:type="MSShapeGroup"></path>
    </g>
</svg>