<?xml version="1.0" encoding="UTF-8" standalone="no"?>
<svg width="32px" height="28px" viewBox="0 0 32 28" version="1.1" xmlns="http://www.w3.org/2000/svg" xmlns:xlink="http://www.w3.org/1999/xlink" xmlns:sketch="http://www.bohemiancoding.com/sketch/ns">
    <!-- Generator: Sketch 3.3.2 (12043) - http://www.bohemiancoding.com/sketch -->
    <title>Shape</title>
    <desc>Created with Sketch.</desc>
    <defs></defs>
    <g id="Page-1" stroke="none" stroke-width="1" fill="none" fill-rule="evenodd" sketch:type="MSPage">
        <path d="M31.6110769,14.4896154 L20.5095385,25.9923846 C20.2510769,26.2606923 19.9458462,26.3960769 19.5913846,26.3960769 C19.2369231,26.3960769 18.9316923,26.2606923 18.6732308,25.9923846 C18.4147692,25.7265385 18.2843077,25.409 18.2843077,25.0422308 L18.2843077,18.9499231 L9.14215385,18.9499231 C8.79015385,18.9499231 8.48246154,18.817 8.224,18.5486923 C7.96553846,18.2803846 7.83507692,17.9628462 7.83507692,17.5985385 L7.83507692,9.47546154 C7.83507692,9.10869231 7.96553846,8.79361538 8.224,8.52530769 C8.48246154,8.257 8.78769231,8.12161538 9.14215385,8.12161538 L18.2843077,8.12161538 L18.2843077,2.03176923 C18.2843077,1.665 18.4147692,1.34746154 18.6732308,1.07915385 C18.9316923,0.813307692 19.2369231,0.677923077 19.5913846,0.677923077 C19.9458462,0.677923077 20.2510769,0.813307692 20.5095385,1.07915385 L31.6110769,12.5843846 C31.8695385,12.8526923 32,13.1702308 32,13.537 C32,13.9037692 31.8695385,14.2213077 31.6110769,14.4896154 L31.6110769,14.4896154 Z M12.8270769,2.57084615 C12.7236923,2.66192308 12.5833846,2.70869231 12.4086154,2.70869231 L5.87815385,2.70869231 C4.97969231,2.70869231 4.21169231,3.041 3.57169231,3.70315385 C2.93169231,4.36530769 2.61169231,5.16284615 2.61169231,6.09330769 L2.61169231,20.9806923 C2.61169231,21.9111538 2.93169231,22.7086923 3.57169231,23.3708462 C4.21169231,24.033 4.97969231,24.3653077 5.87815385,24.3653077 L11.7538462,24.3653077 L11.9803077,24.3653077 L12.2436923,24.3653077 C12.2436923,24.3653077 12.3224615,24.3726923 12.48,24.385 C12.6350769,24.3997692 12.7138462,24.4219231 12.7138462,24.449 C12.7138462,24.4760769 12.768,24.5154615 12.8763077,24.5646923 C12.9870769,24.6139231 13.0338462,24.6779231 13.0190769,24.7542308 C13.0067692,24.833 13.0190769,24.929 13.0609231,25.0422308 C13.0609231,25.0988462 13.0683077,25.2391538 13.0806154,25.4656154 C13.0953846,25.6896154 13.0978462,25.8766923 13.0904615,26.0243846 C13.0855385,26.1720769 13.0633846,26.3394615 13.0313846,26.5216154 C12.9969231,26.7062308 12.928,26.8416154 12.8270769,26.9351538 C12.7236923,27.0262308 12.5858462,27.073 12.4086154,27.073 L5.87815385,27.073 C4.25846154,27.073 2.87261538,26.4773077 1.72307692,25.2834615 C0.573538462,24.0920769 0,22.6594615 0,20.9806923 L0,6.09330769 C0,4.41453846 0.573538462,2.97946154 1.72307692,1.78807692 C2.87261538,0.596692308 4.25846154,0.001 5.87815385,0.001 L12.4086154,0.001 C12.5833846,0.001 12.7384615,0.0699230769 12.8664615,0.202846154 C12.9969231,0.335769231 13.0609231,0.495769231 13.0609231,0.677923077 C13.0609231,0.734538462 13.0683077,0.874846154 13.0806154,1.10130769 C13.0953846,1.32776923 13.0978462,1.51484615 13.0904615,1.66253846 C13.0855385,1.81023077 13.0633846,1.97515385 13.0289231,2.15976923 C12.9969231,2.34192308 12.928,2.47976923 12.8270769,2.57084615 L12.8270769,2.57084615 Z" id="Shape" fill="#444444" sketch:type="MSShapeGroup"></path>
    </g>
</svg>