<?xml version="1.0" encoding="UTF-8" standalone="no"?>
<svg width="28px" height="32px" viewBox="0 0 28 32" version="1.1" xmlns="http://www.w3.org/2000/svg" xmlns:xlink="http://www.w3.org/1999/xlink" xmlns:sketch="http://www.bohemiancoding.com/sketch/ns">
    <!-- Generator: Sketch 3.3.2 (12043) - http://www.bohemiancoding.com/sketch -->
    <title>Shape</title>
    <desc>Created with Sketch.</desc>
    <defs></defs>
    <g id="Page-1" stroke="none" stroke-width="1" fill="none" fill-rule="evenodd" sketch:type="MSPage">
        <path d="M27.2165437,13.9746487 C24.5097644,-0.638335968 14.0003791,0.00419817701 14.0003791,0.00419817701 C14.0003791,0.00419817701 3.49065718,-0.638335968 0.783877876,13.9746487 C0.783877876,13.9746487 -0.171673782,14.6972875 0.0272452139,16.1826174 C0.0272452139,16.1826174 0.941060907,21.8466254 1.81852592,24.5196082 C1.81852592,24.5196082 2.46846261,26.9149402 5.48085688,26.7808668 L6.45660336,26.7418327 C6.45660336,26.7418327 9.46159286,26.5666887 9.14318784,24.6132899 C9.14318784,24.6132899 7.94327883,16.3767692 7.07220885,14.5971567 C6.2896595,12.998119 4.89655336,12.8375703 4.28633316,13.131853 C4.28633316,13.131853 3.61956746,13.3562139 3.53979791,13.8646746 C3.53979791,13.8646746 2.76330701,14.3463206 3.56975356,9.9605923 C3.56975356,9.9605923 4.96319628,1.32965821 13.9997059,1.36971052 C23.0362156,1.32931878 24.4289851,9.9605923 24.4289851,9.9605923 C25.2354317,14.34666 24.4589408,13.8646746 24.4589408,13.8646746 C24.3805176,13.3562139 23.7130787,13.131853 23.7130787,13.131853 C23.1028585,12.8375703 21.7097524,12.998119 20.927203,14.5971567 C20.056133,16.3771087 18.8565606,24.6132899 18.8565606,24.6132899 C18.537819,26.5670282 21.5431451,26.7418327 21.5431451,26.7418327 L21.2449349,28.5071894 L19.0554796,29.4704814 C16.8128446,30.1534073 17.2638623,31.3573527 17.2638623,31.3573527 C17.6623735,32.8033091 19.970305,31.3573527 19.970305,31.3573527 C22.0810005,30.313956 22.0810005,29.0292271 22.0810005,29.0292271 L22.5188916,26.7812062 C25.5302761,26.9152796 26.1815591,24.5199476 26.1815591,24.5199476 C27.058351,21.8469649 27.9725032,16.1829568 27.9725032,16.1829568 C28.172432,14.6972875 27.2165437,13.9746487 27.2165437,13.9746487 L27.2165437,13.9746487 Z" id="Shape" fill="#000000" sketch:type="MSShapeGroup"></path>
    </g>
</svg>