<?xml version="1.0" encoding="UTF-8" standalone="no"?>
<svg width="32px" height="32px" viewBox="0 0 32 32" version="1.1" xmlns="http://www.w3.org/2000/svg" xmlns:xlink="http://www.w3.org/1999/xlink" xmlns:sketch="http://www.bohemiancoding.com/sketch/ns">
    <!-- Generator: Sketch 3.3.2 (12043) - http://www.bohemiancoding.com/sketch -->
    <title>icon</title>
    <desc>Created with Sketch.</desc>
    <defs></defs>
    <g id="Page-1" stroke="none" stroke-width="1" fill="none" fill-rule="evenodd" sketch:type="MSPage">
        <path d="M31.233096,31.072 C30.4194781,32.006 29.0707963,31.99 29.0707963,31.99 L24.8904839,27.794 L0.005,27.794 L0.005,-1.77635684e-15 L29.5457407,-1.77635684e-15 L29.5457407,26.574 L32.0046301,29.044 C32.0046301,29.044 32.0467138,30.142 31.233096,31.072 L31.233096,31.072 Z M27.5417559,2.714 L2.00698087,2.714 L2.00698087,25.818 L22.9245748,25.814 L23.3353917,24.83 L22.1871083,23.722 C19.9286174,25.34 16.9266481,25.424 14.5940097,23.966 L4.67628869,23.966 L4.67628869,22.202 L12.7142719,22.202 C12.0689888,21.324 11.646148,20.33 11.4697973,19.3 L4.67628869,19.3 L4.67628869,17.542 L11.4156897,17.542 C11.5038651,16.532 11.8024588,15.544 12.3355188,14.642 L4.67628869,14.642 L4.67628869,12.876 L13.8465234,12.876 C16.5338671,10.622 20.5238009,10.732 23.0548338,13.272 C25.4556076,15.682 25.6820579,19.432 23.7762683,22.124 L25.0007031,23.31 L25.804301,22.82 L27.5417559,24.562 L27.5417559,2.714 L27.5417559,2.714 Z M21.9466301,14.388 C19.8805218,12.318 16.535871,12.32 14.4777786,14.392 C12.4136742,16.464 12.4136742,19.814 14.4737706,21.888 C16.537875,23.96 19.8825258,23.956 21.9426222,21.888 C24.0107345,19.814 24.0107345,16.462 21.9466301,14.388 L21.9466301,14.388 Z M20.3013586,5.45 L24.8303644,5.45 L24.8303644,10.078 L20.3013586,10.078 L20.3013586,5.45 L20.3013586,5.45 Z M22.5618535,8.89 C23.2051326,8.89 23.7261687,8.366 23.7281727,7.718 C23.7281727,7.072 23.2051326,6.548 22.5618535,6.548 C21.9185744,6.548 21.3935303,7.072 21.3935303,7.718 C21.3935303,8.366 21.9185744,8.89 22.5618535,8.89 L22.5618535,8.89 Z M4.67628869,5.45 L18.4416606,5.45 L18.4416606,10.078 L4.67628869,10.078 L4.67628869,5.45 L4.67628869,5.45 Z" id="icon" fill="#444444" sketch:type="MSShapeGroup"></path>
    </g>
</svg>