<?xml version="1.0" encoding="UTF-8" standalone="no"?>
<svg width="32px" height="28px" viewBox="0 0 32 28" version="1.1" xmlns="http://www.w3.org/2000/svg" xmlns:xlink="http://www.w3.org/1999/xlink" xmlns:sketch="http://www.bohemiancoding.com/sketch/ns">
    <!-- Generator: Sketch 3.3.2 (12043) - http://www.bohemiancoding.com/sketch -->
    <title>icon</title>
    <desc>Created with Sketch.</desc>
    <defs></defs>
    <g id="Page-1" stroke="none" stroke-width="1" fill="none" fill-rule="evenodd" sketch:type="MSPage">
        <path d="M25.06883,3.19904017 L28.221243,3.19904017 L28.221243,9.60458576 L25.083877,6.97480337 L25.06883,3.19904017 L25.06883,3.19904017 Z M28.518427,14.0783892 L16.264269,3.22517007 L3.191912,14.1455806 C1.004408,15.9728031 0,14.1455806 0,14.1455806 L16.264269,0 L32,14.0783892 C32,14.0783892 31.050138,15.8813489 28.518427,14.0783892 L28.518427,14.0783892 L28.518427,14.0783892 Z M27.292071,15.0563922 L27.292071,27.0910544 C27.292071,27.0910544 27.333451,27.970137 26.445659,27.970137 L18.54958,27.970137 L18.564627,21.4619378 C18.564627,21.4619378 18.641745,20.3868814 17.390936,20.3868814 L14.044789,20.3868814 C12.985834,20.3868814 13.10057,21.4619378 13.10057,21.4619378 L13.087404,27.9906677 C13.087404,27.9906677 5.892905,28 5.022042,28 C4.324223,28 4.350555,27.2926274 4.350555,27.2926274 L4.350555,15.0563922 L16.16458,5.28009549 L27.292071,15.0563922 L27.292071,15.0563922 Z" id="icon" fill="#444444" sketch:type="MSShapeGroup"></path>
    </g>
</svg>