<?xml version="1.0" encoding="UTF-8" standalone="no"?>
<svg width="32px" height="32px" viewBox="0 0 32 32" version="1.1" xmlns="http://www.w3.org/2000/svg" xmlns:xlink="http://www.w3.org/1999/xlink" xmlns:sketch="http://www.bohemiancoding.com/sketch/ns">
    <!-- Generator: Sketch 3.3.2 (12043) - http://www.bohemiancoding.com/sketch -->
    <title>icon</title>
    <desc>Created with Sketch.</desc>
    <defs></defs>
    <g id="Page-1" stroke="none" stroke-width="1" fill="none" fill-rule="evenodd" sketch:type="MSPage">
        <g id="icon" sketch:type="MSLayerGroup" fill="#444444">
            <path d="M16.7680554,2.35246702 L6.9056453,12.236711 L4.93316328,24.0940002 L6.9056453,27.0583222 L9.86436833,27.0583222 C9.86436833,27.0583222 14.2801755,26.4045439 15.7818144,26.0702149 C17.2834533,25.7358859 18.7405374,25.0821075 18.7405374,25.0821075 L23.6366674,19.1534634 L23.6366675,30.0772328 C23.6366675,30.0772328 23.7215298,30.9618072 23.1786221,31.5048045 C22.6357144,32.0478018 21.7153591,31.9988582 21.7153591,31.9988582 L1.98372762,31.9988582 C1.98372762,31.9988582 0.925005579,31.9216836 0.495078854,31.5048045 C0.0651521291,31.0879255 0.00195834955,30.0772328 0.00195834955,30.0772328 L0.00195834955,2.35246706 C0.00195834955,2.35246706 -0.0586936974,1.42481107 0.495078854,0.873476624 C1.04885141,0.322142174 1.98372762,0.379422948 1.98372762,0.379422948 L14.7955734,0.379422948 L16.7680554,2.35246702 L16.7680554,2.35246702 Z M7.89188643,22.1445055 L9.86436845,15.2010332 C9.86436845,15.2010332 22.6018953,1.36244371 23.6717426,0.41921345 C24.7415899,-0.524016812 26.6304656,0.41921345 26.6304656,0.41921345 L31.5616707,5.31995971 C31.5616707,5.31995971 32.5479117,6.30806727 31.5616707,8.28428176 L16.7680555,22.1445055 L9.86436845,24.0939994 L7.89188643,24.0939994 L7.89188643,22.1445055 L7.89188643,22.1445055 Z M22.6855016,5.3199597 L24.6579836,3.343745 L28.6029478,6.30806705 L26.6304656,8.28428176 L22.6855016,5.3199597 L22.6855016,5.3199597 Z M14.7955735,20.14157 L12.8230914,21.1296773 L10.8506095,21.1296773 L10.8506095,19.1534626 L11.8368504,17.1772479 L14.7955735,20.14157 L14.7955735,20.14157 Z" sketch:type="MSShapeGroup"></path>
        </g>
    </g>
</svg>