<?xml version="1.0" encoding="UTF-8" standalone="no"?>
<svg width="32px" height="30px" viewBox="0 0 32 30" version="1.1" xmlns="http://www.w3.org/2000/svg" xmlns:xlink="http://www.w3.org/1999/xlink" xmlns:sketch="http://www.bohemiancoding.com/sketch/ns">
    <!-- Generator: Sketch 3.3.2 (12043) - http://www.bohemiancoding.com/sketch -->
    <title>noun_70783_cc</title>
    <desc>Created with Sketch.</desc>
    <defs></defs>
    <g id="Page-1" stroke="none" stroke-width="1" fill="none" fill-rule="evenodd" sketch:type="MSPage">
        <g id="noun_70783_cc" sketch:type="MSLayerGroup" fill="#000000">
            <path d="M31.2195122,3.12195122 L15.2195122,3.12195122 C14.7886829,3.12195122 14.4390244,3.47160976 14.4390244,3.90243902 C14.4390244,4.33326829 14.7886829,4.68292683 15.2195122,4.68292683 L31.2195122,4.68292683 C31.6503415,4.68292683 32,4.33326829 32,3.90243902 C32,3.47160976 31.6503415,3.12195122 31.2195122,3.12195122 L31.2195122,3.12195122 Z" id="Shape" sketch:type="MSShapeGroup"></path>
            <path d="M0.780487805,4.68292683 L4.3715122,4.68292683 C4.73404878,6.46204878 6.31063415,7.80487805 8.19512195,7.80487805 C10.3469268,7.80487805 12.097561,6.0542439 12.097561,3.90243902 C12.097561,1.75063415 10.3469268,0 8.19512195,0 C6.31063415,0 4.73404878,1.34282927 4.3715122,3.12195122 L0.780487805,3.12195122 C0.349658537,3.12195122 0,3.47160976 0,3.90243902 C0,4.33326829 0.349658537,4.68292683 0.780487805,4.68292683 L0.780487805,4.68292683 Z M8.19512195,1.56097561 C9.48643902,1.56097561 10.5365854,2.61112195 10.5365854,3.90243902 C10.5365854,5.1937561 9.48643902,6.24390244 8.19512195,6.24390244 C6.90380488,6.24390244 5.85365854,5.1937561 5.85365854,3.90243902 C5.85365854,2.61112195 6.90380488,1.56097561 8.19512195,1.56097561 L8.19512195,1.56097561 Z" id="Shape" sketch:type="MSShapeGroup"></path>
            <path d="M31.2195122,14.4390244 L26.5365854,14.4390244 C26.1057561,14.4390244 25.7560976,14.7886829 25.7560976,15.2195122 C25.7560976,15.6503415 26.1057561,16 26.5365854,16 L31.2195122,16 C31.6503415,16 32,15.6503415 32,15.2195122 C32,14.7886829 31.6503415,14.4390244 31.2195122,14.4390244 L31.2195122,14.4390244 Z" id="Shape" sketch:type="MSShapeGroup"></path>
            <path d="M0.780487805,16 L16.0788293,16 C16.4413659,17.779122 18.0179512,19.1219512 19.902439,19.1219512 C22.0542439,19.1219512 23.804878,17.3713171 23.804878,15.2195122 C23.804878,13.0677073 22.0542439,11.3170732 19.902439,11.3170732 C18.0179512,11.3170732 16.4413659,12.6599024 16.0788293,14.4390244 L0.780487805,14.4390244 C0.349658537,14.4390244 0,14.7886829 0,15.2195122 C0,15.6503415 0.349658537,16 0.780487805,16 L0.780487805,16 Z M19.902439,12.8780488 C21.1937561,12.8780488 22.2439024,13.9281951 22.2439024,15.2195122 C22.2439024,16.5108293 21.1937561,17.5609756 19.902439,17.5609756 C18.611122,17.5609756 17.5609756,16.5108293 17.5609756,15.2195122 C17.5609756,13.9281951 18.611122,12.8780488 19.902439,12.8780488 L19.902439,12.8780488 Z" id="Shape" sketch:type="MSShapeGroup"></path>
            <path d="M31.2195122,24.5853659 L18.3414634,24.5853659 C17.9106341,24.5853659 17.5609756,24.9350244 17.5609756,25.3658537 C17.5609756,25.7966829 17.9106341,26.1463415 18.3414634,26.1463415 L31.2195122,26.1463415 C31.6503415,26.1463415 32,25.7966829 32,25.3658537 C32,24.9350244 31.6503415,24.5853659 31.2195122,24.5853659 L31.2195122,24.5853659 Z" id="Shape" sketch:type="MSShapeGroup"></path>
            <path d="M0.780487805,26.1463415 L7.88370732,26.1463415 C8.2462439,27.9254634 9.82282927,29.2682927 11.7073171,29.2682927 C13.859122,29.2682927 15.6097561,27.5176585 15.6097561,25.3658537 C15.6097561,23.2140488 13.859122,21.4634146 11.7073171,21.4634146 C9.82282927,21.4634146 8.2462439,22.8062439 7.88370732,24.5853659 L0.780487805,24.5853659 C0.349658537,24.5853659 0,24.9350244 0,25.3658537 C0,25.7966829 0.349658537,26.1463415 0.780487805,26.1463415 L0.780487805,26.1463415 Z M11.7073171,23.0243902 C12.9986341,23.0243902 14.0487805,24.0745366 14.0487805,25.3658537 C14.0487805,26.6571707 12.9986341,27.7073171 11.7073171,27.7073171 C10.416,27.7073171 9.36585366,26.6571707 9.36585366,25.3658537 C9.36585366,24.0745366 10.416,23.0243902 11.7073171,23.0243902 L11.7073171,23.0243902 Z" id="Shape" sketch:type="MSShapeGroup"></path>
        </g>
    </g>
</svg>