<?xml version="1.0" encoding="UTF-8" standalone="no"?>
<svg width="30px" height="32px" viewBox="0 0 30 32" version="1.1" xmlns="http://www.w3.org/2000/svg" xmlns:xlink="http://www.w3.org/1999/xlink" xmlns:sketch="http://www.bohemiancoding.com/sketch/ns">
    <!-- Generator: Sketch 3.3.2 (12043) - http://www.bohemiancoding.com/sketch -->
    <title>shape</title>
    <desc>Created with Sketch.</desc>
    <defs></defs>
    <g id="Page-1" stroke="none" stroke-width="1" fill="none" fill-rule="evenodd" sketch:type="MSPage">
        <g id="shape" sketch:type="MSLayerGroup" fill="#000000">
            <path d="M27.9,6.43764706 L19.0875,6.43764706 L19.0875,2.10823529 C19.0875,1.01647059 18.225,0.150588235 17.1375,0.150588235 L2.1,0.150588235 C1.0125,0.150588235 0.15,1.01647059 0.15,2.10823529 L0.15,23.6047059 C0.15,24.6964706 1.0125,25.5623529 2.1,25.5623529 L10.9125,25.5623529 L10.9125,29.8917647 C10.9125,30.9835294 11.775,31.8494118 12.8625,31.8494118 L27.9,31.8494118 C28.9875,31.8494118 29.85,30.9835294 29.85,29.8917647 L29.85,8.39529412 C29.85,7.30352941 28.95,6.43764706 27.9,6.43764706 L27.9,6.43764706 Z M2.1,24.0564706 C1.8375,24.0564706 1.65,23.8305882 1.65,23.6047059 L1.65,2.10823529 C1.65,1.84470588 1.875,1.65647059 2.1,1.65647059 L17.1375,1.65647059 C17.4,1.65647059 17.5875,1.88235294 17.5875,2.10823529 L17.5875,6.43764706 L12.825,6.43764706 C11.85,6.43764706 11.025,7.19058824 10.9125,8.13176471 L3.825,8.13176471 L3.825,9.63764706 L10.875,9.63764706 L10.875,10.7670588 L3.825,10.7670588 L3.825,12.2729412 L10.875,12.2729412 L10.875,13.4023529 L3.825,13.4023529 L3.825,14.9082353 L10.875,14.9082353 L10.875,16.0376471 L3.825,16.0376471 L3.825,17.5435294 L10.875,17.5435294 L10.875,24.1317647 L2.1,24.1317647 L2.1,24.0564706 Z M28.35,29.8917647 C28.35,30.1552941 28.125,30.3435294 27.9,30.3435294 L12.8625,30.3435294 C12.6,30.3435294 12.4125,30.1176471 12.4125,29.8917647 L12.4125,8.39529412 C12.4125,8.13176471 12.6375,7.94352941 12.8625,7.94352941 L27.9,7.94352941 C28.1625,7.94352941 28.35,8.16941176 28.35,8.39529412 L28.35,29.8917647 L28.35,29.8917647 Z" id="Shape" sketch:type="MSShapeGroup"></path>
            <path d="M20.8875,27.1058824 L20.8875,27.8964706 L19.9125,27.8964706 L19.9125,27.1435294 C19.4625,27.1058824 18.975,27.0682353 18.675,26.9929412 L18.675,25.7882353 L19.425,25.7882353 L19.5,26.2023529 L20.2125,26.2023529 C20.7375,26.2023529 21,26.0517647 21,25.6752941 C21,25.4117647 20.85,25.2988235 20.4375,25.1105882 L19.725,24.7717647 C19.05,24.4329412 18.5625,24.1694118 18.5625,23.3411765 C18.5625,22.5505882 19.05,22.1364706 19.95,22.0235294 L19.95,21.3082353 L20.925,21.3082353 L20.925,21.9858824 C21.4125,22.0235294 21.9375,22.0988235 22.0875,22.1364706 L22.0875,23.2658824 L21.3375,23.2658824 L21.2625,22.8894118 C21.0375,22.8517647 20.8125,22.8517647 20.55,22.8517647 C20.0625,22.8517647 19.7625,22.9647059 19.7625,23.3035294 C19.7625,23.5294118 19.875,23.6423529 20.325,23.8682353 L21,24.1694118 C21.7875,24.5082353 22.2,24.8470588 22.2,25.6376471 C22.2375,26.5035294 21.7125,26.9929412 20.8875,27.1058824 Z M14.5875,17.1294118 L26.1375,17.1294118 L26.1375,18.6352941 L14.5875,18.6352941 L14.5875,17.1294118 Z M14.5875,14.4941176 L26.1375,14.4941176 L26.1375,16 L14.5875,16 L14.5875,14.4941176 Z M14.5875,11.8588235 L26.1375,11.8588235 L26.1375,13.3647059 L14.5875,13.3647059 L14.5875,11.8588235 Z M3.825,3.72705882 L15.375,3.72705882 L15.375,5.53411765 L3.825,5.53411765 L3.825,3.72705882 Z M3.825,19.9152941 L9.6,19.9152941 L9.6,21.4211765 L3.825,21.4211765 L3.825,19.9152941 Z" id="Shape" sketch:type="MSShapeGroup"></path>
        </g>
    </g>
</svg>