<?xml version="1.0" encoding="UTF-8" standalone="no"?>
<svg width="32px" height="32px" viewBox="0 0 32 32" version="1.1" xmlns="http://www.w3.org/2000/svg" xmlns:xlink="http://www.w3.org/1999/xlink" xmlns:sketch="http://www.bohemiancoding.com/sketch/ns">
    <!-- Generator: Sketch 3.3.2 (12043) - http://www.bohemiancoding.com/sketch -->
    <title>icon</title>
    <desc>Created with Sketch.</desc>
    <defs></defs>
    <g id="Page-1" stroke="none" stroke-width="1" fill="none" fill-rule="evenodd" sketch:type="MSPage">
        <g id="icon" sketch:type="MSLayerGroup" fill="#000000">
            <path d="M0,32 L0,0 L8,0 L8,12.9991111 L24,12.9991111 L24,0 L26,0 L32,6 L32,32 L0,32 L0,32 Z M28,16 L4,16 L4,30 L28,30 L28,16 L28,16 Z M26,20 L6,20 L6,18 L26,18 L26,20 L26,20 Z M26,24 L6,24 L6,22 L26,22 L26,24 L26,24 Z M26,28 L6,28 L6,26 L26,26 L26,28 L26,28 Z M18,2 L22,2 L22,10.9991111 L18,10.9991111 L18,2 L18,2 Z" id="Shape" sketch:type="MSShapeGroup"></path>
        </g>
    </g>
</svg>