<?xml version="1.0" encoding="UTF-8" standalone="no"?>
<svg width="23px" height="32px" viewBox="0 0 23 32" version="1.1" xmlns="http://www.w3.org/2000/svg" xmlns:xlink="http://www.w3.org/1999/xlink" xmlns:sketch="http://www.bohemiancoding.com/sketch/ns">
    <!-- Generator: Sketch 3.3.2 (12043) - http://www.bohemiancoding.com/sketch -->
    <title>shape</title>
    <desc>Created with Sketch.</desc>
    <defs></defs>
    <g id="Page-1" stroke="none" stroke-width="1" fill="none" fill-rule="evenodd" sketch:type="MSPage">
        <g id="shape" sketch:type="MSLayerGroup" fill="#000000">
            <path d="M0.1796875,0.181818182 L0.1796875,31.8545455 L22.8203125,31.8545455 L22.8203125,0.181818182 L0.1796875,0.181818182 L0.1796875,0.181818182 Z M21.5984375,30.6181818 L1.365625,30.6181818 L1.365625,1.41818182 L21.5984375,1.41818182 L21.5984375,30.6181818 L21.5984375,30.6181818 Z" id="Shape" sketch:type="MSShapeGroup"></path>
            <path d="M11.2484375,9.78181818 L19.190625,9.78181818 L19.190625,10.6545455 L11.2484375,10.6545455 L11.2484375,9.78181818 Z M11.2484375,16.8 L19.190625,16.8 L19.190625,17.6727273 L11.2484375,17.6727273 L11.2484375,16.8 Z M11.2484375,13.2727273 L19.190625,13.2727273 L19.190625,14.1454545 L11.2484375,14.1454545 L11.2484375,13.2727273 Z M3.809375,26.2181818 L19.190625,26.2181818 L19.190625,27.0909091 L3.809375,27.0909091 L3.809375,26.2181818 Z" id="Rectangle-path" sketch:type="MSShapeGroup"></path>
            <path d="M5.1390625,16 C5.03125,15.7818182 4.959375,15.4545455 4.9234375,14.9818182 L4.9234375,14.9090909 L3.8453125,14.9090909 L3.8453125,15.0181818 C3.8453125,15.6363636 3.953125,16.1090909 4.16875,16.4727273 C4.528125,17.1272727 5.2109375,17.4909091 6.18125,17.6 L6.18125,18.6181818 L6.8640625,18.6181818 L6.8640625,17.6 C7.475,17.5272727 7.90625,17.3818182 8.265625,17.1636364 C8.8765625,16.7636364 9.2,16.0727273 9.2,15.1272727 C9.2,14.4727273 8.9484375,13.9272727 8.4453125,13.6 C8.1578125,13.3818182 7.6546875,13.2 6.8640625,12.9818182 L6.8640625,10.6181818 C7.259375,10.6545455 7.546875,10.8363636 7.7265625,11.1272727 C7.834375,11.3090909 7.90625,11.5272727 7.9421875,11.7818182 L7.9421875,11.8545455 L9.0203125,11.8545455 L9.0203125,11.7454545 C9.0203125,11.1272727 8.8046875,10.6181818 8.409375,10.2545455 C8.05,9.89090909 7.5109375,9.67272727 6.8640625,9.63636364 L6.8640625,8.94545455 L6.18125,8.94545455 L6.18125,9.63636364 C5.4984375,9.67272727 4.959375,9.89090909 4.6,10.3272727 C4.2046875,10.7636364 3.9890625,11.2727273 3.9890625,11.8181818 C3.9890625,12.4363636 4.16875,12.9090909 4.5640625,13.2727273 C4.9234375,13.6 5.4625,13.8545455 6.18125,14 L6.18125,16.6545455 C5.678125,16.5454545 5.3546875,16.3272727 5.1390625,16 L5.1390625,16 Z M5.103125,11.6727273 C5.103125,11.4181818 5.2109375,11.1636364 5.390625,10.9090909 C5.534375,10.6909091 5.821875,10.5818182 6.18125,10.5454545 L6.18125,12.7636364 C5.8578125,12.6909091 5.60625,12.5818182 5.4265625,12.4 C5.2109375,12.2545455 5.103125,12 5.103125,11.6727273 L5.103125,11.6727273 Z M8.05,15.3454545 C8.05,15.6 7.978125,15.8181818 7.8703125,16.0363636 C7.690625,16.4 7.33125,16.5818182 6.828125,16.6181818 L6.828125,14.1090909 C7.1875,14.2181818 7.4390625,14.3272727 7.5828125,14.4363636 C7.90625,14.6545455 8.05,14.9454545 8.05,15.3454545 Z M13.153125,24.4 C13.225,24.5090909 13.3328125,24.5454545 13.4765625,24.5454545 C14.0875,24.5454545 14.4828125,24.3636364 14.8421875,24.1818182 C15.2015625,24 15.5609375,23.8545455 16.1359375,23.8545455 C16.2796875,24.1454545 16.603125,24.4363636 17.3578125,24.4727273 C17.609375,24.4727273 17.7890625,24.2909091 17.825,24.0727273 C17.825,23.8181818 17.6453125,23.6363636 17.4296875,23.6 C17.1421875,23.6 16.9625,23.5272727 16.9625,23.4545455 C16.9625,23.2363636 16.7828125,23.0181818 16.5671875,23.0181818 C15.5609375,22.9090909 14.9859375,23.2 14.5546875,23.4181818 C14.3390625,23.5272727 14.159375,23.6 13.9796875,23.6363636 C13.9796875,23.5272727 13.94375,23.4181818 13.94375,23.3454545 C13.9796875,23.2363636 13.94375,23.0909091 13.871875,22.9818182 C13.8,22.8727273 13.6921875,22.8363636 13.5484375,22.8363636 C12.434375,22.8 11.715625,23.2727273 11.1046875,23.6363636 C10.8890625,23.7818182 10.709375,23.8909091 10.565625,23.9636364 L10.565625,23.8181818 C10.6375,23.3090909 10.6734375,22.7272727 10.278125,22.2909091 C9.9546875,21.9272727 9.415625,21.7818182 8.5890625,21.7818182 C6.7203125,21.8181818 5.7140625,22.1090909 5.4265625,22.8 C5.31875,23.0181818 5.246875,23.4545455 5.7140625,23.9636364 C6.18125,24.5090909 7.1515625,24.9818182 7.90625,24.9818182 C8.05,24.9818182 8.19375,24.9454545 8.3375,24.9090909 C8.553125,24.8363636 8.696875,24.5818182 8.625,24.3636364 C8.553125,24.1454545 8.3015625,24 8.0859375,24.0727273 C7.690625,24.1818182 6.75625,23.8181818 6.3609375,23.3818182 C6.253125,23.2363636 6.2171875,23.1636364 6.2171875,23.1272727 C6.2171875,23.1272727 6.4328125,22.6545455 8.625,22.6545455 C9.34375,22.6545455 9.559375,22.8 9.6671875,22.8727273 C9.8109375,23.0181818 9.775,23.3454545 9.7390625,23.7090909 C9.703125,23.9636364 9.6671875,24.2545455 9.703125,24.5090909 C9.7390625,24.7272727 9.8828125,24.9090909 10.0984375,24.9090909 C10.6375,24.9454545 11.1046875,24.6545455 11.571875,24.3636364 C12.0390625,24.0727273 12.50625,23.7818182 13.1171875,23.7090909 L13.1171875,23.7454545 C13.1171875,23.8545455 13.153125,23.9636364 13.153125,24.0363636 C13.0453125,24.1818182 13.08125,24.2909091 13.153125,24.4 Z M3.809375,4.90909091 L19.190625,4.90909091 L19.190625,5.78181818 L3.809375,5.78181818 L3.809375,4.90909091 Z" id="Shape" sketch:type="MSShapeGroup"></path>
        </g>
    </g>
</svg>