<?xml version="1.0" encoding="UTF-8" standalone="no"?>
<svg width="32px" height="30px" viewBox="0 0 32 30" version="1.1" xmlns="http://www.w3.org/2000/svg" xmlns:xlink="http://www.w3.org/1999/xlink" xmlns:sketch="http://www.bohemiancoding.com/sketch/ns">
    <!-- Generator: Sketch 3.3.2 (12043) - http://www.bohemiancoding.com/sketch -->
    <title>Shape</title>
    <desc>Created with Sketch.</desc>
    <defs></defs>
    <g id="Page-1" stroke="none" stroke-width="1" fill="none" fill-rule="evenodd" sketch:type="MSPage">
        <path d="M31.09376,21.088 L20.58496,2.67904 C19.63776,1.02144 17.888,0 15.99488,0 C14.10048,0 12.35072,1.02144 11.40352,2.67904 L0.7104,21.40288 C-0.2368,23.06048 -0.2368,25.10336 0.7104,26.76096 C1.6576,28.41856 3.40736,29.44 5.30048,29.44 L26.688,29.44 L26.69952,29.44 C29.62688,29.44 32,27.04128 32,24.08192 C32,22.97344 31.66464,21.94048 31.09376,21.088 L31.09376,21.088 Z M18.26304,22.88 C18.26304,24.14592 17.2992,25.11488 16,25.11488 C14.7008,25.11488 13.73696,24.14592 13.73696,22.88 L13.73696,22.82752 C13.73696,21.56672 14.7008,20.59136 16,20.59136 C17.2992,20.59136 18.26304,21.56032 18.26304,22.82752 L18.26304,22.88 L18.26304,22.88 Z M18.31552,7.80928 L17.19552,17.69728 C17.12,18.40896 16.6528,18.85184 16,18.85184 C15.3472,18.85184 14.88,18.40256 14.80448,17.69728 L13.68448,7.80416 C13.60896,7.03872 14.01984,6.46144 14.72384,6.46144 L17.26976,6.46144 C17.97504,6.46656 18.39104,7.04512 18.31552,7.80928 L18.31552,7.80928 Z" id="Shape" fill="#444444" sketch:type="MSShapeGroup"></path>
    </g>
</svg>