<?xml version="1.0" encoding="UTF-8" standalone="no"?>
<svg width="32px" height="26px" viewBox="0 0 32 26" version="1.1" xmlns="http://www.w3.org/2000/svg" xmlns:xlink="http://www.w3.org/1999/xlink" xmlns:sketch="http://www.bohemiancoding.com/sketch/ns">
    <!-- Generator: Sketch 3.3.2 (12043) - http://www.bohemiancoding.com/sketch -->
    <title>Shape</title>
    <desc>Created with Sketch.</desc>
    <defs></defs>
    <g id="Page-1" stroke="none" stroke-width="1" fill="none" fill-rule="evenodd" sketch:type="MSPage">
        <g id="Shape" sketch:type="MSLayerGroup" fill="#004852">
            <path d="M30.7925333,23.2362667 L21.9946667,23.2362667 L21.9946667,22.4085333 C21.9946667,21.0517333 21.6128,19.7888 20.9664,18.72 L30.7925333,18.72 C31.4581333,18.72 32,19.2832 32,19.9786667 L32,21.9754667 C32,22.6709333 31.4581333,23.2362667 30.7925333,23.2362667 L30.7925333,23.2362667 Z M30.7925333,15.0037333 L15.7461333,15.0037333 L15.7461333,13.8069333 C15.7824,13.7429333 15.8229333,13.6832 15.8570667,13.6170667 C17.0197333,13.2416 17.8624,11.8336 18.2037333,10.4874667 L30.7925333,10.4874667 C31.4581333,10.4874667 32,11.0528 32,11.7461333 L32,13.7450667 C32,14.4405333 31.4581333,15.0037333 30.7925333,15.0037333 L30.7925333,15.0037333 Z M30.7925333,6.77546667 L17.9093333,6.77546667 C17.7173333,6.38933333 17.4869333,6.0672 17.1797333,5.8688 C17.0538667,4.40533333 16.7573333,3.22133333 16.3392,2.2592 L30.7925333,2.2592 C31.4581333,2.2592 32,2.8224 32,3.51786667 L32,5.5168 C32,6.21226667 31.4581333,6.77546667 30.7925333,6.77546667 L30.7925333,6.77546667 Z M16.8725333,9.25226667 C16.8725333,10.4277333 15.9936,12.1514667 15.2448,12.1514667 C15.1296,12.1514667 15.0250667,12.0981333 14.9290667,12.0234667 C14.4576,13.1626667 13.8048,14.2208 13.0304,15.008 C12.8469333,15.1957333 12.7445333,15.4517333 12.7445333,15.7184 C12.7445333,16.4394667 13.3056,17.0261333 13.9968,17.0261333 L15.3301333,17.0261333 C18.1802667,17.0261333 20.4928,19.4346667 20.4928,22.4085333 L20.4949333,22.4085333 L20.4949333,23.8997333 C20.4949333,24.8384 19.7653333,25.5978667 18.8629333,25.5978667 L1.62986667,25.5978667 C0.7296,25.5978667 0,24.8384 0,23.8997333 L0,22.4085333 C0,19.4346667 2.31253333,17.0261333 5.16266667,17.0282667 L6.49386667,17.0282667 C7.1872,17.0282667 7.74826667,16.4416 7.74826667,15.7205333 C7.74826667,15.4538667 7.64373333,15.1978667 7.46026667,15.0101333 C6.69653333,14.2357333 6.05226667,13.1989333 5.58293333,12.0768 C5.50186667,12.1258667 5.41653333,12.1536 5.3248,12.1536 C4.576,12.1536 3.69706667,10.4277333 3.69706667,9.25226667 C3.69706667,8.0768 3.79946667,7.12533333 4.5504,7.12533333 C4.61226667,7.12533333 4.68266667,7.14026667 4.75093333,7.15306667 C4.80426667,3.97013333 5.37386667,0 10.2464,0 C14.9141333,0 15.6885333,3.97653333 15.7418667,7.16373333 C15.8357333,7.14026667 15.9317333,7.1232 16.0192,7.1232 C16.7701333,7.1232 16.8725333,8.0768 16.8725333,9.25226667 L16.8725333,9.25226667 Z" sketch:type="MSShapeGroup"></path>
        </g>
    </g>
</svg>