<?xml version="1.0" encoding="UTF-8" standalone="no"?>
<svg width="32px" height="32px" viewBox="0 0 32 32" version="1.1" xmlns="http://www.w3.org/2000/svg" xmlns:xlink="http://www.w3.org/1999/xlink" xmlns:sketch="http://www.bohemiancoding.com/sketch/ns">
    <!-- Generator: Sketch 3.3.2 (12043) - http://www.bohemiancoding.com/sketch -->
    <title>icon</title>
    <desc>Created with Sketch.</desc>
    <defs></defs>
    <g id="Page-1" stroke="none" stroke-width="1" fill="none" fill-rule="evenodd" sketch:type="MSPage">
        <g id="icon" sketch:type="MSLayerGroup" fill="#000000">
            <path d="M16,32.0078584 C5.33238053,32.0078584 -1.77635684e-15,26.6740487 -1.77635684e-15,16.0064292 C-1.77635684e-15,5.33880974 5.33238053,0.005 16,0.005 C26.6661903,0.005 32,5.33880974 32,16.0064292 C32,26.6740487 26.6661903,32.0078584 16,32.0078584 L16,32.0078584 Z M18.2338544,7.54836757 C18.2338544,6.37355739 17.2820009,5.42170389 16.1086199,5.42170389 C14.9352389,5.42170389 13.9833854,6.37355739 13.9833854,7.54836757 L13.9833854,8.15435239 C13.9833854,9.32916257 14.9352389,10.2810161 16.1086199,10.2810161 C17.2820009,10.2810161 18.2338544,9.32916257 18.2338544,8.15435239 L18.2338544,7.54836757 L18.2338544,7.54836757 Z M18.2338544,14.2270634 C18.2338544,13.0536824 17.2820009,12.1018289 16.1086199,12.1018289 C14.9352389,12.1018289 13.9833854,13.0536824 13.9833854,14.2270634 L13.9833854,23.9428294 C13.9833854,25.1176396 14.9352389,26.0680639 16.1086199,26.0680639 C17.2820009,26.0680639 18.2338544,25.1176396 18.2338544,23.9428294 L18.2338544,14.2270634 L18.2338544,14.2270634 Z" id="Shape" sketch:type="MSShapeGroup"></path>
        </g>
    </g>
</svg>