<?xml version="1.0" encoding="UTF-8" standalone="no"?>
<svg width="31px" height="32px" viewBox="0 0 31 32" version="1.1" xmlns="http://www.w3.org/2000/svg" xmlns:xlink="http://www.w3.org/1999/xlink" xmlns:sketch="http://www.bohemiancoding.com/sketch/ns">
    <!-- Generator: Sketch 3.3.2 (12043) - http://www.bohemiancoding.com/sketch -->
    <title>icon</title>
    <desc>Created with Sketch.</desc>
    <defs></defs>
    <g id="Page-1" stroke="none" stroke-width="1" fill="none" fill-rule="evenodd" sketch:type="MSPage">
        <g id="icon" sketch:type="MSLayerGroup" fill="#444444">
            <path d="M28.786688,32.002 L2.21579053,32.002 L1.77635684e-15,32.002 L1.77635684e-15,3.78473581 L4.43158105,3.8413599 L4.43158105,4.97014895 C4.43158105,6.83258932 5.91992804,8.35036129 7.75278833,8.35036129 C9.58564861,8.35036129 11.0739956,6.83258932 11.0739956,4.97014895 L11.0739956,3.8413599 L19.9359184,3.8413599 L19.9359184,4.97014895 C19.9359184,6.83258932 21.4193084,8.35036129 23.2558865,8.35036129 C25.0887468,8.35036129 26.5758545,6.83258932 26.5758545,4.97014895 L26.5758545,3.8413599 L30.9677793,3.8413599 L31,31.9958452 L28.786688,32.002 L28.786688,32.002 Z M28.786688,11.7281117 L2.21579053,11.7281117 L2.21579053,29.7555005 L28.786688,29.7555005 L28.786688,11.7281117 L28.786688,11.7281117 Z M9.0255047,22.4829971 L5.53823706,22.4829971 L5.53823706,19.3526693 L9.0255047,19.3526693 L9.0255047,22.4829971 L9.0255047,22.4829971 Z M9.0255047,27.7908906 L5.53823706,27.7908906 L5.53823706,24.6593319 L9.0255047,24.6593319 L9.0255047,27.7908906 L9.0255047,27.7908906 Z M14.569938,17.280966 L11.0801919,17.280966 L11.0801919,14.1469454 L14.569938,14.1469454 L14.569938,17.280966 L14.569938,17.280966 Z M14.569938,22.4829971 L11.0801919,22.4829971 L11.0801919,19.3526693 L14.569938,19.3526693 L14.569938,22.4829971 L14.569938,22.4829971 Z M14.569938,27.7908906 L11.0801919,27.7908906 L11.0801919,24.6593319 L14.569938,24.6593319 L14.569938,27.7908906 L14.569938,27.7908906 Z M20.2135119,17.280966 L16.7212872,17.280966 L16.7212872,14.1469454 L20.2135119,14.1469454 L20.2135119,17.280966 L20.2135119,17.280966 Z M20.2135119,22.4829971 L16.7212872,22.4829971 L16.7212872,19.3526693 L20.2135119,19.3526693 L20.2135119,22.4829971 L20.2135119,22.4829971 Z M20.2135119,27.7908906 L16.7212872,27.7908906 L16.7212872,24.6593319 L20.2135119,24.6593319 L20.2135119,27.7908906 L20.2135119,27.7908906 Z M25.4456526,17.280966 L21.9546672,17.280966 L21.9546672,14.1469454 L25.4456526,14.1469454 L25.4456526,17.280966 L25.4456526,17.280966 Z M25.4456526,22.4829971 L21.9546672,22.4829971 L21.9546672,19.3526693 L25.4456526,19.3526693 L25.4456526,22.4829971 L25.4456526,22.4829971 Z M25.4456526,27.7908906 L21.9546672,27.7908906 L21.9546672,24.6593319 L25.4456526,24.6593319 L25.4456526,27.7908906 L25.4456526,27.7908906 Z M23.2174695,6.75503893 C22.0104337,6.75503893 21.0363782,5.76904108 21.0363782,4.54054439 L21.0363782,2.22141837 C21.0363782,0.990459763 22.0104337,0.002 23.2174695,0.002 C24.4245053,0.002 25.3985609,0.991690722 25.3985609,2.22141837 L25.3985609,4.53931343 C25.3985609,5.76904108 24.4220268,6.75503893 23.2174695,6.75503893 L23.2174695,6.75503893 Z M7.71808915,6.75503893 C6.51105337,6.75503893 5.53823706,5.76904108 5.53823706,4.54054439 L5.53823706,2.22141837 C5.53823706,0.990459763 6.51229262,0.002 7.71808915,0.002 C8.92388567,0.002 9.89918049,0.990459763 9.90041975,2.22141837 L9.90041975,4.53931343 C9.90041975,5.76904108 8.92388567,6.75503893 7.71808915,6.75503893 L7.71808915,6.75503893 Z" id="Shape" sketch:type="MSShapeGroup"></path>
        </g>
    </g>
</svg>