<?xml version="1.0" encoding="UTF-8" standalone="no"?>
<svg width="32px" height="32px" viewBox="0 0 32 32" version="1.1" xmlns="http://www.w3.org/2000/svg" xmlns:xlink="http://www.w3.org/1999/xlink" xmlns:sketch="http://www.bohemiancoding.com/sketch/ns">
    <!-- Generator: Sketch 3.3.2 (12043) - http://www.bohemiancoding.com/sketch -->
    <title>icon</title>
    <desc>Created with Sketch.</desc>
    <defs></defs>
    <g id="Page-1" stroke="none" stroke-width="1" fill="none" fill-rule="evenodd" sketch:type="MSPage">
        <g id="icon" sketch:type="MSLayerGroup" fill="#000000">
            <path d="M5.01617526,4.36482919 C-1.40916877,10.4293109 -1.70030353,20.5552195 4.36548908,26.9792613 C4.47175327,27.0928065 4.5809288,27.2034404 4.69010434,27.3140742 C10.9378562,33.5619753 21.0664343,33.5619753 27.3141861,27.3140742 C33.561938,21.0676289 33.561938,10.9373532 27.3141861,4.68945219 C21.1945336,-1.43471362 11.3119643,-1.57882876 5.01617526,4.36482919 L5.01617526,4.36482919 Z M8.08473558,11.2503306 L11.2522817,8.08416449 L16.0021452,12.8341414 L20.7534644,8.08416449 L23.9210106,11.2503306 L19.1696914,16.0032189 L23.9210106,20.7531959 L20.7534644,23.9208176 L16.0036009,19.169385 L11.2522817,23.9208176 L8.08473558,20.7531959 L12.8360548,16.0032189 L8.08473558,11.2503306 L8.08473558,11.2503306 Z" id="Shape" sketch:type="MSShapeGroup"></path>
        </g>
    </g>
</svg>