<?xml version="1.0" encoding="UTF-8" standalone="no"?>
<svg width="29px" height="32px" viewBox="0 0 29 32" version="1.1" xmlns="http://www.w3.org/2000/svg" xmlns:xlink="http://www.w3.org/1999/xlink" xmlns:sketch="http://www.bohemiancoding.com/sketch/ns">
    <!-- Generator: Sketch 3.3.2 (12043) - http://www.bohemiancoding.com/sketch -->
    <title>Shape</title>
    <desc>Created with Sketch.</desc>
    <defs></defs>
    <g id="Page-1" stroke="none" stroke-width="1" fill="none" fill-rule="evenodd" sketch:type="MSPage">
        <path d="M7.23321053,24.9720922 C4.59115789,22.8601304 2.9,19.6236176 2.9,15.993969 C2.9,10.6272091 6.59978947,6.13052858 11.6,4.84902798 L11.6,1.88070077 C4.98189474,3.21553374 0,9.02723804 0,15.993969 C0,20.298653 1.90331579,24.1599164 4.91626316,26.7975829 C7.25,28.9567819 8.7,26.0753103 7.23321053,24.9720922 L7.23321053,24.9720922 Z M23.9601053,5.08521418 C22.475,3.75342877 20.3,5.91262777 21.7255789,6.98384646 C24.3920526,9.09428444 26.1,12.3460351 26.1,15.993969 C26.1,21.360729 22.4002105,25.8574095 17.4,27.1373863 L17.4,30.1072373 C24.0181053,28.7724043 29,22.9607 29,15.993969 C29,11.6313814 27.0463158,7.72592827 23.9601053,5.08521418 L23.9601053,5.08521418 Z M12.8805789,7.33736387 L17.6014737,4.53055755 C18.2883158,4.12066021 18.2883158,3.45629129 17.6045263,3.04487017 L12.8408947,0.181683914 C12.1555789,-0.229737208 11.6030526,0.0811143066 11.6061053,0.876528476 L11.6320526,6.63794797 C11.6335789,7.43183835 12.1937368,7.74573743 12.8805789,7.33736387 L12.8805789,7.33736387 Z M16.1591053,24.665812 L11.3954737,27.5274745 C10.7101579,27.9404194 10.7116842,28.6047883 11.3985263,29.0146857 L16.1178947,31.8199682 C16.8047368,32.2298655 17.3664211,31.9159665 17.3694737,31.1205523 L17.3938947,25.3591328 C17.3969474,24.5637186 16.8428947,24.2543909 16.1591053,24.665812 L16.1591053,24.665812 Z" id="Shape" fill="#404040" sketch:type="MSShapeGroup"></path>
    </g>
</svg>