<?xml version="1.0" encoding="UTF-8" standalone="no"?>
<svg width="18px" height="32px" viewBox="0 0 18 32" version="1.1" xmlns="http://www.w3.org/2000/svg" xmlns:xlink="http://www.w3.org/1999/xlink" xmlns:sketch="http://www.bohemiancoding.com/sketch/ns">
    <!-- Generator: Sketch 3.3.2 (12043) - http://www.bohemiancoding.com/sketch -->
    <title>Shape</title>
    <desc>Created with Sketch.</desc>
    <defs></defs>
    <g id="Page-1" stroke="none" stroke-width="1" fill="none" fill-rule="evenodd" sketch:type="MSPage">
        <g id="Shape" sketch:type="MSLayerGroup" fill="#000000">
            <path d="M15.9065934,0 L2.09190809,0 C0.942557443,0 0,0.986374464 0,2.19380657 L0,9.13806575 L0,22.8619343 L0,29.8061934 C0,31.0136255 0.942557443,32 2.09190809,32 L15.9065934,32 C17.0574426,32 18,31.0136255 18,29.8061934 L18,22.8619343 L18,9.13806575 L18,2.19380657 C18,0.986374464 17.0574426,0 15.9065934,0 L15.9065934,0 Z M5.07242757,29.4723202 L2.81568432,29.4723202 C2.4005994,29.4723202 2.06343656,29.1201525 2.06343656,28.6856598 C2.06343656,28.2481182 2.4005994,27.8959505 2.81568432,27.8959505 L5.07242757,27.8959505 C5.48751249,27.8959505 5.82467532,28.2481182 5.82467532,28.6856598 C5.82467532,29.1201525 5.48751249,29.4723202 5.07242757,29.4723202 L5.07242757,29.4723202 Z M5.07242757,26.4659362 L2.81568432,26.4659362 C2.4005994,26.4659362 2.06343656,26.1122439 2.06343656,25.6777513 C2.06343656,25.2432587 2.4005994,24.8880419 2.81568432,24.8880419 L5.07242757,24.8880419 C5.48751249,24.8880419 5.82467532,25.2432587 5.82467532,25.6777513 C5.82467532,26.1122439 5.48751249,26.4659362 5.07242757,26.4659362 L5.07242757,26.4659362 Z M5.07242757,23.4595522 L2.81568432,23.4595522 C2.4005994,23.4595522 2.06343656,23.1058599 2.06343656,22.6713673 C2.06343656,22.2353502 2.4005994,21.8831825 2.81568432,21.8831825 L5.07242757,21.8831825 C5.48751249,21.8831825 5.82467532,22.2353502 5.82467532,22.6713673 C5.82467532,23.1058599 5.48751249,23.4595522 5.07242757,23.4595522 L5.07242757,23.4595522 Z M5.07242757,20.4546927 L2.81568432,20.4546927 C2.4005994,20.4546927 2.06343656,20.1010005 2.06343656,19.6649833 C2.06343656,19.2289662 2.4005994,18.8767985 2.81568432,18.8767985 L5.07242757,18.8767985 C5.48751249,18.8767985 5.82467532,19.2289662 5.82467532,19.6649833 C5.82467532,20.1010005 5.48751249,20.4546927 5.07242757,20.4546927 L5.07242757,20.4546927 Z M10.1268731,29.4723202 L7.87162837,29.4723202 C7.45654346,29.4723202 7.11938062,29.1201525 7.11938062,28.6856598 C7.11938062,28.2481182 7.45654346,27.8959505 7.87162837,27.8959505 L10.1268731,27.8959505 C10.5434565,27.8959505 10.8791209,28.2481182 10.8791209,28.6856598 C10.8791209,29.1201525 10.5434565,29.4723202 10.1268731,29.4723202 L10.1268731,29.4723202 Z M10.1268731,26.4659362 L7.87162837,26.4659362 C7.45654346,26.4659362 7.11938062,26.1122439 7.11938062,25.6777513 C7.11938062,25.2432587 7.45654346,24.8880419 7.87162837,24.8880419 L10.1268731,24.8880419 C10.5434565,24.8880419 10.8791209,25.2432587 10.8791209,25.6777513 C10.8791209,26.1122439 10.5434565,26.4659362 10.1268731,26.4659362 L10.1268731,26.4659362 Z M10.1268731,23.4595522 L7.87162837,23.4595522 C7.45654346,23.4595522 7.11938062,23.1058599 7.11938062,22.6713673 C7.11938062,22.2353502 7.45654346,21.8831825 7.87162837,21.8831825 L10.1268731,21.8831825 C10.5434565,21.8831825 10.8791209,22.2353502 10.8791209,22.6713673 C10.8791209,23.1058599 10.5434565,23.4595522 10.1268731,23.4595522 L10.1268731,23.4595522 Z M10.1268731,20.4546927 L7.87162837,20.4546927 C7.45654346,20.4546927 7.11938062,20.1010005 7.11938062,19.6649833 C7.11938062,19.2289662 7.45654346,18.8767985 7.87162837,18.8767985 L10.1268731,18.8767985 C10.5434565,18.8767985 10.8791209,19.2289662 10.8791209,19.6649833 C10.8791209,20.1010005 10.5434565,20.4546927 10.1268731,20.4546927 L10.1268731,20.4546927 Z M15.1828172,29.4723202 L12.9260739,29.4723202 C12.510989,29.4723202 12.1738262,29.1201525 12.1738262,28.6856598 C12.1738262,28.2481182 12.510989,27.8959505 12.9260739,27.8959505 L15.1828172,27.8959505 C15.5979021,27.8959505 15.9350649,28.2481182 15.9350649,28.6856598 C15.9350649,29.1201525 15.5979021,29.4723202 15.1828172,29.4723202 L15.1828172,29.4723202 Z M15.1828172,26.4659362 L12.9260739,26.4659362 C12.510989,26.4659362 12.1738262,26.1122439 12.1738262,25.6777513 C12.1738262,25.2432587 12.510989,24.8880419 12.9260739,24.8880419 L15.1828172,24.8880419 C15.5979021,24.8880419 15.9350649,25.2432587 15.9350649,25.6777513 C15.9350649,26.1122439 15.5979021,26.4659362 15.1828172,26.4659362 L15.1828172,26.4659362 Z M15.1828172,23.4595522 L12.9260739,23.4595522 C12.510989,23.4595522 12.1738262,23.1058599 12.1738262,22.6713673 C12.1738262,22.2353502 12.510989,21.8831825 12.9260739,21.8831825 L15.1828172,21.8831825 C15.5979021,21.8831825 15.9350649,22.2353502 15.9350649,22.6713673 C15.9350649,23.1058599 15.5979021,23.4595522 15.1828172,23.4595522 L15.1828172,23.4595522 Z M15.1828172,20.4546927 L12.9260739,20.4546927 C12.510989,20.4546927 12.1738262,20.1010005 12.1738262,19.6649833 C12.1738262,19.2289662 12.510989,18.8767985 12.9260739,18.8767985 L15.1828172,18.8767985 C15.5979021,18.8767985 15.9350649,19.2289662 15.9350649,19.6649833 C15.9350649,20.1010005 15.5979021,20.4546927 15.1828172,20.4546927 L15.1828172,20.4546927 Z M15.98002,17.0565031 L2.01998002,17.0565031 L2.01998002,2.57189138 L15.98002,2.57189138 L15.98002,17.0565031 L15.98002,17.0565031 Z" sketch:type="MSShapeGroup"></path>
        </g>
    </g>
</svg>