<?xml version="1.0" encoding="UTF-8" standalone="no"?>
<svg width="32px" height="30px" viewBox="0 0 32 30" version="1.1" xmlns="http://www.w3.org/2000/svg" xmlns:xlink="http://www.w3.org/1999/xlink" xmlns:sketch="http://www.bohemiancoding.com/sketch/ns">
    <!-- Generator: Sketch 3.3.2 (12043) - http://www.bohemiancoding.com/sketch -->
    <title>Shape</title>
    <desc>Created with Sketch.</desc>
    <defs></defs>
    <g id="Page-1" stroke="none" stroke-width="1" fill="none" fill-rule="evenodd" sketch:type="MSPage">
        <path d="M31.7476143,19.9721146 C31.6790429,20.3195434 31.5944714,20.669258 31.4664713,21.0006868 C31.2767569,21.4944014 30.9476138,21.9218303 30.527042,22.2189734 C30.277899,22.3949735 29.9990416,22.5252593 29.70647,22.600688 C29.4253269,22.6738309 29.135041,22.6944023 28.8470408,22.7104023 C28.1361831,22.7469738 27.4253255,22.7926881 26.7144678,22.8589739 C26.3053247,22.897831 25.8938958,22.9412596 25.4870384,23.002974 C25.4276097,23.0121168 25.3704668,23.0212597 25.3133239,23.0304026 C25.2813239,23.034974 25.2630382,23.0304026 25.2653239,23.0692597 C25.2676096,23.0944026 25.2698953,23.114974 25.2698953,23.1401169 C25.2767525,23.2452599 25.2858954,23.3481171 25.2950382,23.4509743 C25.3133239,23.670403 25.3361811,23.887546 25.361324,24.1046891 C25.4550383,24.9252611 25.578467,25.7412617 25.7133242,26.5549765 C25.8093243,27.1446913 25.9258958,27.7321203 26.0241816,28.3241207 C26.1293245,28.9435497 25.7224671,29.5515502 25.1304667,29.6612645 C24.8333236,29.7161217 24.5247519,29.6406931 24.2847518,29.4532644 C24.0813231,29.29555 23.9487515,29.0761212 23.8756086,28.8269782 C23.4481797,27.4006914 23.0390366,25.9652618 22.7144649,24.5092608 C22.6207506,24.0932605 22.5361791,23.6749745 22.4698933,23.252117 C22.4104647,22.8612596 22.376179,22.463545 22.3807504,22.0658304 C22.3967504,20.9572582 23.4024654,20.3606863 23.5076083,20.3058291 C24.0104659,20.0429718 24.5613234,19.8829717 25.1030381,19.7344002 C25.4870384,19.6269715 25.8756101,19.5309714 26.2641818,19.4395428 C26.3624676,19.4166856 26.4630391,19.3938285 26.5613249,19.3709713 C26.5933249,19.3641142 26.6047535,19.3709713 26.6116106,19.3366856 C26.6116106,19.3366856 26.7601821,19.0121139 26.8081822,18.3629706 C26.8538965,17.7138273 26.8127536,15.9446831 26.6413249,14.7606823 C25.9624673,15.6018257 25.0961809,16.2783976 24.0881802,16.621255 C23.7636085,16.7332551 23.429894,16.7355408 23.1190366,16.5801122 C22.8516079,16.4429692 22.6367506,16.2052547 22.5224648,15.9149688 C22.2961789,15.3366827 22.5156076,14.6509679 23.0298937,14.3332534 C23.1533224,14.255539 23.2881796,14.2166819 23.4207511,14.1663961 C23.5396084,14.1206818 23.6538942,14.0681103 23.7658943,14.006396 C23.985323,13.8852531 24.186466,13.7343958 24.371609,13.5629671 C24.7327521,13.2315383 25.0321809,12.8292523 25.2813239,12.3995377 C25.6081813,11.8395373 25.84361,11.2109654 26.0401816,10.5846792 C26.0927531,10.417822 26.165896,10.2258218 26.2436103,10.0521074 C26.3738961,9.7641072 26.5544677,9.50124987 26.7716107,9.2772497 C27.219611,8.82239223 27.8230401,8.55039203 28.4447548,8.52067772 C29.64247,8.46582054 30.7418993,9.32524974 31.0367567,10.5435363 C31.0367567,10.5435363 31.6104714,13.1606811 31.7750429,14.4932535 C31.9144716,15.6018257 31.9921859,16.7241123 31.9624716,17.8441131 C31.9441859,18.5572564 31.8847573,19.2726855 31.7476143,19.9721146 L31.7476143,19.9721146 Z M28.949898,7.69781998 C28.6481835,8.05667739 28.2116118,8.31724901 27.8001829,8.42010622 C27.0733252,8.60524921 26.4058962,8.30353471 26.4058962,8.30353471 C25.9418958,8.10010599 25.5533241,7.74124859 25.2493239,7.32296257 C24.8653236,6.7972479 24.6024663,6.18010459 24.4241804,5.54696128 C24.2733232,5.00981803 24.170466,4.43838904 24.2550375,3.87838864 C24.3236089,3.4143883 24.5384662,2.99153085 24.8721808,2.67610205 C25.2881811,2.28524462 25.8298958,2.07267304 26.367039,1.94238723 C26.890468,1.81667285 27.4550398,1.76410138 27.976183,1.93095865 C28.4036119,2.06581589 28.764755,2.35838753 29.0161838,2.74467353 C29.3293269,3.22010244 29.4756127,3.79153143 29.569327,4.35610327 C29.67447,4.99610373 29.6996128,5.66124707 29.5761842,6.30124754 C29.4778984,6.8109622 29.2790411,7.30467684 28.949898,7.69781998 L28.949898,7.69781998 Z M26.4333248,18.0818275 C26.4333248,18.6303994 25.996753,19.0875425 25.4733241,19.0875425 C25.0801809,19.092114 24.6847521,19.0875425 24.2916089,19.0875425 L21.8550357,19.0875425 L19.4961769,19.0875425 C19.4916054,19.0875425 19.4733197,19.309257 19.4733197,19.3206856 C19.4161768,19.8578288 19.3613196,20.3926864 19.3041767,20.9298296 C19.2196052,21.7572588 19.132748,22.5824022 19.0481765,23.4098314 C18.9590336,24.2715463 18.8698907,25.1309755 18.7807478,25.9904047 C18.714462,26.6258337 18.6481762,27.3618343 18.5818905,27.9949776 C18.5658905,28.1481206 18.5498905,28.2989778 18.5338904,28.4521208 C18.5018904,28.7789782 18.3876046,29.078407 18.1636045,29.3138357 C17.7476042,29.7526932 17.0756037,29.8372646 16.5750319,29.5058358 C16.1841745,29.2475499 15.9556029,28.7789782 15.9761743,28.2944064 C15.9921743,27.9332633 16.0081743,27.5721201 16.0241743,27.2086913 C16.0584601,26.4521193 16.0904601,25.5926901 16.1247458,24.8338324 C16.163603,23.9515461 16.2024602,23.0715454 16.2413174,22.1892591 C16.2733174,21.4601157 16.3053174,20.7309723 16.3396031,19.9995432 C16.3510317,19.695543 16.364746,19.3915428 16.3784603,19.0875425 L15.5213168,19.0875425 L15.5213168,19.1012568 C15.5396026,19.4646857 15.5578883,19.8304002 15.5738883,20.1938291 C15.6127455,20.9526868 15.6470312,21.7138302 15.6858884,22.4726879 C15.7270313,23.3549742 15.7704599,24.2349749 15.8116028,25.1172612 C15.8481742,25.8441189 15.8824599,26.6738338 15.9167457,27.4029772 C15.9327457,27.7092631 15.9510314,28.0178348 15.96246,28.3241207 C15.9830315,28.9321211 15.5967455,29.4944073 15.0413165,29.6635502 C14.4744589,29.8349789 13.8550299,29.5675502 13.5670297,29.0304069 C13.379601,28.6852638 13.3818867,28.2441206 13.3430295,27.8578346 C13.2767438,27.1881199 13.210458,26.4155479 13.1418865,25.7458331 C13.057315,24.877261 12.9704578,24.008689 12.8836006,23.1378312 C12.8013149,22.3286878 12.7213148,21.5195443 12.6413147,20.7081152 C12.591029,20.2166862 12.543029,19.727543 12.4950289,19.2361141 C12.4904575,19.2041141 12.4790289,19.0875425 12.4790289,19.0875425 L6.69388184,19.0875425 C6.51788171,19.0875425 6.34188159,19.0989711 6.17045289,19.0395425 C5.59673819,18.8475424 5.33159514,18.1252561 5.63330964,17.57897 C5.77502403,17.3206841 6.02416707,17.1378268 6.30531013,17.0898268 C6.38988162,17.0738268 6.47673883,17.0761125 6.56359603,17.0761125 L9.8984556,17.0761125 C9.92588419,17.0761125 9.9418842,16.8018266 9.94645563,16.7629694 C9.97388423,16.5458264 10.0013128,16.3309691 10.0264557,16.1138261 C10.2001701,14.6783965 10.3487416,13.2315383 10.6618847,11.8189658 C10.9064563,10.7263936 11.263028,9.58582136 12.0013143,8.74239217 C12.284743,8.41782051 12.6253147,8.14810602 13.0047436,7.95382017 C13.3384581,7.78239147 14.248173,7.34353401 14.3624588,7.28867683 C14.385316,7.27724825 14.4036017,7.25667681 14.4218875,7.24067679 L14.9636021,6.76067645 L15.8664599,7.70239142 L15.0298879,13.5652528 C15.0276022,13.5835385 15.0321736,13.60411 15.0436022,13.62011 L15.9098885,14.8635395 C15.9236028,14.8818252 15.9441743,14.8932538 15.9693172,14.8932538 C15.9921743,14.8932538 16.0127458,14.8818252 16.0287458,14.8635395 L16.8927464,13.62011 C16.904175,13.60411 16.9087464,13.5835385 16.9064607,13.5652528 L16.0698887,7.70696285 L16.9887465,6.77439074 L17.555604,7.27496253 C17.6104612,7.32524828 18.127033,7.55610559 18.3053189,7.6429628 C18.5910333,7.78239147 18.8858907,7.90810585 19.1556052,8.0726774 C20.0493201,8.61896351 20.5887491,9.57439278 20.9293208,10.5686792 C21.3613211,11.8212516 21.5418926,13.1583954 21.7110356,14.4726821 C21.8116071,15.2703969 21.9030358,16.0681118 22.0036073,16.8658266 C22.005893,16.8863981 22.0241787,17.0761125 22.0310358,17.0761125 L25.4641812,17.0761125 C25.9898959,17.0761125 26.4333248,17.5263986 26.4333248,18.0818275 L26.4333248,18.0818275 Z M12.3030288,14.5869678 C12.1933144,15.414397 12.1018858,16.2463976 11.9967428,17.0761125 L12.6916005,17.0761125 L12.6916005,12.2738233 C12.5201718,13.0349667 12.405886,13.8121101 12.3030288,14.5869678 L12.3030288,14.5869678 Z M19.6310341,14.5572535 C19.5304626,13.7915387 19.4161768,13.0235381 19.2447481,12.2692519 L19.253891,17.0761125 L19.9418915,17.0761125 C19.8367485,16.2372548 19.7407485,15.3961113 19.6310341,14.5572535 L19.6310341,14.5572535 Z M18.1384616,5.19267531 C17.9236043,5.63838992 17.6173184,6.04296164 17.2196038,6.32181898 C16.8493178,6.5823906 16.412746,6.71724784 15.9693172,6.71724784 C15.745317,6.71724784 15.5236025,6.6829621 15.3087452,6.61667634 C14.3396017,6.3103904 13.7590298,5.35267542 13.5007439,4.37667471 C13.3338867,3.74581711 13.2676009,3.06924519 13.3064581,2.41553043 C13.3338867,1.92867293 13.4390296,1.43267257 13.6973155,1.0212437 C14.2756016,0.0886715953 15.4550311,-0.071328521 16.4287461,0.0246715488 C16.9178893,0.0749572997 17.4161753,0.214385972 17.8093185,0.532100489 C18.159033,0.813243551 18.3898903,1.21324384 18.513319,1.6521013 C18.6687477,2.21667314 18.6618905,2.8269593 18.6047476,3.40753115 C18.5476047,4.02238874 18.4081761,4.63953205 18.1384616,5.19267531 L18.1384616,5.19267531 Z M8.28931157,16.7058265 C8.09274,16.7058265 7.90988273,16.6463979 7.72473973,16.5778264 C7.39559664,16.4543978 7.0755964,16.2966834 6.77616762,16.1046832 C6.21388149,15.7481115 5.72016685,15.2841112 5.29502368,14.7606823 C5.15102358,15.7618258 5.0687378,17.2132555 5.09388068,17.7915416 C5.13045213,18.5938279 5.32473799,19.3709713 5.32473799,19.3709713 L5.72016685,19.4509714 C6.49045312,19.6315429 7.26759654,19.8212574 8.00588279,20.113829 C8.21159723,20.1961148 8.41502595,20.2875434 8.60474037,20.4041149 C8.79216908,20.5206864 9.61959825,21.2201155 9.53502676,22.7332595 C9.48474101,23.5766887 9.25616942,24.4041178 9.05731213,25.2224042 C8.86759771,26.0018333 8.65731184,26.776691 8.43788311,27.549263 C8.34645447,27.8738346 8.2504544,28.1961206 8.15445433,28.5206923 C8.08816857,28.740121 8.03788282,28.9755497 7.91216844,29.1698356 C7.5761682,29.6955503 6.8744534,29.8349789 6.37616732,29.4784072 C6.13616715,29.3046928 5.96702417,29.0326926 5.9144527,28.7309781 C5.87559553,28.5046923 5.91902414,28.289835 5.96016702,28.0681205 C6.09273855,27.3526914 6.21616721,26.6349766 6.32816729,25.9149761 C6.4584531,25.0715469 6.58188176,24.225832 6.65045324,23.3732599 C6.6595961,23.2612599 6.66645325,23.1492598 6.6733104,23.0372597 C6.57502461,23.0212597 6.47673883,23.0052597 6.37616732,22.9915454 C6.17273861,22.9618311 5.96702417,22.9366882 5.76130973,22.913831 C5.36130944,22.8704024 4.95902344,22.833831 4.55673743,22.801831 C4.20930861,22.7744024 3.85959407,22.7515452 3.51216524,22.7309738 C3.35673656,22.7218309 3.20130787,22.7149738 3.04587919,22.7081166 C2.89730765,22.6989737 2.75330755,22.680688 2.60473601,22.6669737 C2.00359272,22.6075451 1.42987801,22.3195449 1.00702056,21.8646874 C0.639020297,21.4669728 0.435591578,20.9801154 0.300734337,20.4566864 C0.154448516,19.8944003 0.0721627424,19.3138284 0.0241627075,18.7332566 C-0.0581230666,17.7686844 -0.042123055,16.7949695 0.0287341394,15.8303973 C0.131591357,14.4155392 0.357877236,13.0121096 0.652734593,11.6269657 C0.739591799,11.222394 0.819591857,10.8086794 0.93616337,10.4132505 C1.02302058,10.1161075 1.15787782,9.83725011 1.33616366,9.58810707 C1.68130677,9.10810672 2.17959285,8.75839218 2.73502182,8.60524921 C3.3201651,8.4452491 3.95330842,8.51153486 4.49730882,8.78582077 C5.05045208,9.06696384 5.49388097,9.55610705 5.73388114,10.1481075 C5.79788119,10.2989647 5.85959552,10.4452506 5.90302412,10.602965 C5.928167,10.6943936 5.95559559,10.7835365 5.98302418,10.8749651 C6.09273855,11.2132511 6.22531007,11.5469656 6.37616732,11.8692516 C6.79445334,12.7469665 7.39331092,13.6086814 8.25274012,14.0475389 C8.49731172,14.1732533 8.77159764,14.2258247 8.9955978,14.392682 C9.22874083,14.5663964 9.39788381,14.8246823 9.468741,15.1149682 C9.61959825,15.736683 9.29274087,16.3949692 8.72131189,16.6235408 C8.58416893,16.6783979 8.43788311,16.7058265 8.28931157,16.7058265 L8.28931157,16.7058265 Z M6.40359592,7.31153399 C6.09730998,7.72753429 5.71102398,8.08639169 5.24702365,8.29210613 C5.24702365,8.29210613 4.57959459,8.59153492 3.85273692,8.40639193 C3.44130805,8.30353471 3.0047363,8.04296309 2.7030218,7.68410569 C2.3738787,7.29096254 2.17502141,6.7972479 2.07673563,6.28981896 C1.95102125,5.64753278 1.97844984,4.98238944 2.08359278,4.34238897 C2.17730713,3.78010285 2.32359295,3.20867386 2.63673604,2.73095923 C2.88816479,2.34467324 3.24702219,2.05438731 3.67673679,1.91724435 C4.19788003,1.75038709 4.76245187,1.80295856 5.28588082,1.93095865 C5.82073835,2.05895874 6.36473874,2.27153032 6.78073905,2.66238775 C7.11445358,2.97781655 7.32702516,3.400674 7.39788235,3.86696006 C7.48245384,4.42696046 7.37959663,4.99610373 7.22873937,5.53324698 C7.05045353,6.1663903 6.7875962,6.7835336 6.40359592,7.31153399 L6.40359592,7.31153399 Z" id="Shape" fill="#404040" sketch:type="MSShapeGroup"></path>
    </g>
</svg>