<?xml version="1.0" encoding="UTF-8" standalone="no"?>
<svg width="32px" height="32px" viewBox="0 0 32 32" version="1.1" xmlns="http://www.w3.org/2000/svg" xmlns:xlink="http://www.w3.org/1999/xlink" xmlns:sketch="http://www.bohemiancoding.com/sketch/ns">
    <!-- Generator: Sketch 3.3.2 (12043) - http://www.bohemiancoding.com/sketch -->
    <title>cars</title>
    <desc>Created with Sketch.</desc>
    <defs></defs>
    <g id="Page-1" stroke="none" stroke-width="1" fill="none" fill-rule="evenodd" sketch:type="MSPage">
        <g id="cars" sketch:type="MSLayerGroup" fill="#000000">
            <path d="M31.616,21.632 L31.3173333,20.8213333 C31.1466667,20.352 30.6773333,20.0106667 30.208,20.0106667 L29.2266667,20.0106667 C28.6293333,18.304 27.9893333,16.768 27.776,16.2986667 C27.392,15.4453333 26.1973333,15.232 25.5146667,15.0613333 C25.5146667,15.0613333 24.4053333,14.72 20.6933333,14.72 C16.9813333,14.72 15.872,15.0613333 15.872,15.0613333 C15.104,15.3173333 13.9946667,15.488 13.568,16.3413333 C13.3973333,16.6826667 12.7573333,18.2613333 12.16,20.0106667 L11.2213333,20.0106667 C10.752,20.0106667 10.2826667,20.3946667 10.112,20.8213333 L9.81333333,21.632 C9.64266667,22.1013333 9.89866667,22.6133333 10.368,22.6133333 L11.3066667,22.6133333 C11.0506667,23.3386667 10.88,23.7226667 10.88,23.7226667 C10.7946667,23.8506667 10.752,24.4053333 10.752,24.576 L10.752,30.8053333 C10.752,31.2746667 11.136,31.616 11.5626667,31.616 L13.8666667,31.616 C14.336,31.616 14.6773333,31.232 14.6773333,30.8053333 L14.6773333,29.6533333 L26.6666667,29.6533333 L26.6666667,30.8053333 C26.6666667,31.2746667 27.0506667,31.616 27.4773333,31.616 L29.7813333,31.616 C30.2506667,31.616 30.592,31.232 30.592,30.8053333 L30.592,24.576 C30.592,24.4053333 30.5493333,23.8506667 30.464,23.7226667 C30.464,23.7226667 30.2933333,23.3813333 30.0373333,22.6133333 L30.976,22.6133333 C31.5306667,22.6133333 31.744,22.1013333 31.616,21.632 L31.616,21.632 Z M15.7866667,26.624 L14.6773333,26.624 C13.696,26.624 12.7146667,26.496 12.7146667,25.8133333 L12.7146667,25.0026667 C12.7146667,24.192 13.1413333,24.192 13.6106667,24.192 C14.0373333,24.192 14.9333333,24.6186667 15.5306667,24.8746667 C16.1706667,25.1733333 16.896,25.4293333 16.896,25.984 C16.896,26.368 16.64,26.624 15.7866667,26.624 L15.7866667,26.624 Z M13.4826667,20.864 C14.08,18.56 14.72,17.664 14.848,17.3226667 C14.976,17.0666667 15.0613333,16.256 20.6933333,16.256 C26.3253333,16.256 26.4533333,17.1946667 26.4533333,17.1946667 C26.624,17.7066667 27.3066667,18.7306667 27.8613333,20.864 C27.8613333,20.864 25.472,21.632 20.6933333,21.632 C15.872,21.632 13.4826667,20.864 13.4826667,20.864 L13.4826667,20.864 Z M26.7093333,26.624 L25.6,26.624 C24.7893333,26.624 24.5333333,26.4106667 24.5333333,25.9413333 C24.5333333,25.4293333 25.2586667,25.1733333 25.8986667,24.832 C26.496,24.5333333 27.3493333,24.1493333 27.8186667,24.1493333 C28.288,24.1493333 28.7146667,24.192 28.7146667,24.96 L28.7146667,25.7706667 C28.672,26.4533333 27.6906667,26.624 26.7093333,26.624 L26.7093333,26.624 Z" id="Shape" sketch:type="MSShapeGroup"></path>
            <path d="M11.2213333,18.6453333 C11.7333333,17.28 12.2026667,16.0853333 12.416,15.7013333 C13.0133333,14.5066667 14.2506667,14.1226667 15.104,13.9093333 C15.232,13.8666667 15.36,13.824 15.488,13.7813333 C15.744,13.696 17.024,13.3546667 20.736,13.3546667 L20.8213333,13.3546667 C20.8213333,13.312 20.8213333,13.312 20.7786667,13.2693333 L21.7173333,13.2693333 C22.1866667,13.2693333 22.4,12.7146667 22.272,12.288 L21.9733333,11.4773333 C21.8026667,11.008 21.3333333,10.6666667 20.864,10.6666667 L19.8826667,10.6666667 C19.2853333,8.96 18.6453333,7.424 18.432,6.95466667 C18.048,6.10133333 16.8533333,5.888 16.1706667,5.71733333 C16.1706667,5.71733333 15.0613333,5.376 11.3493333,5.376 C7.63733333,5.376 6.528,5.71733333 6.528,5.71733333 C5.76,5.97333333 4.65066667,6.144 4.224,6.99733333 C4.05333333,7.33866667 3.41333333,8.91733333 2.816,10.6666667 L1.87733333,10.6666667 C1.408,10.6666667 0.938666667,11.0506667 0.768,11.4773333 L0.469333333,12.288 C0.298666667,12.7573333 0.554666667,13.2693333 1.024,13.2693333 L1.96266667,13.2693333 C1.70666667,13.9946667 1.536,14.3786667 1.536,14.3786667 C1.45066667,14.5066667 1.408,15.0613333 1.408,15.232 L1.408,21.4613333 C1.408,21.9306667 1.792,22.272 2.21866667,22.272 L4.52266667,22.272 C4.992,22.272 5.33333333,21.888 5.33333333,21.4613333 L5.33333333,20.3093333 L8.832,20.3093333 C9.25866667,19.2853333 10.1973333,18.6453333 11.2213333,18.6453333 L11.2213333,18.6453333 L11.2213333,18.6453333 Z M6.44266667,17.2373333 L5.33333333,17.2373333 C4.352,17.2373333 3.37066667,17.1093333 3.37066667,16.4266667 L3.37066667,15.616 C3.37066667,14.8053333 3.79733333,14.8053333 4.26666667,14.8053333 C4.69333333,14.8053333 5.58933333,15.232 6.18666667,15.488 C6.82666667,15.7866667 7.552,16.0426667 7.552,16.5973333 C7.50933333,17.024 7.296,17.2373333 6.44266667,17.2373333 L6.44266667,17.2373333 Z M4.13866667,11.52 C4.736,9.216 5.376,8.32 5.504,7.97866667 C5.632,7.72266667 5.71733333,6.912 11.3493333,6.912 C16.9813333,6.912 17.1093333,7.85066667 17.1093333,7.85066667 C17.28,8.36266667 17.9626667,9.38666667 18.5173333,11.52 C18.5173333,11.52 16.128,12.288 11.3493333,12.288 C6.57066667,12.288 4.13866667,11.52 4.13866667,11.52 L4.13866667,11.52 Z" id="Shape" sketch:type="MSShapeGroup"></path>
            <path d="M14.848,2.60266667 C14.976,2.34666667 15.0613333,1.536 20.6933333,1.536 C26.3253333,1.536 26.4533333,2.47466667 26.4533333,2.47466667 C26.624,2.98666667 27.3066667,4.01066667 27.8613333,6.144 C27.8613333,6.144 25.472,6.912 20.6933333,6.912 L19.8826667,6.912 C20.096,7.46666667 20.4373333,8.27733333 20.8213333,9.25866667 L20.864,9.25866667 C21.888,9.25866667 22.912,9.984 23.2533333,11.008 L23.552,11.8186667 C23.7226667,12.3306667 23.7226667,12.928 23.5093333,13.3973333 C25.1306667,13.4826667 25.8133333,13.6533333 25.984,13.7386667 L26.24,13.824 C27.0933333,14.0373333 28.5013333,14.3786667 29.0986667,15.744 C29.184,15.9573333 29.3546667,16.384 29.568,16.9386667 L29.9093333,16.9386667 C30.3786667,16.9386667 30.72,16.5546667 30.72,16.128 L30.72,9.89866667 C30.72,9.728 30.6773333,9.17333333 30.592,9.04533333 C30.592,9.04533333 30.4213333,8.704 30.1653333,7.936 L31.104,7.936 C31.5733333,7.936 31.7866667,7.38133333 31.6586667,6.95466667 L31.36,6.144 C31.1893333,5.67466667 30.72,5.33333333 30.2506667,5.33333333 L29.2693333,5.33333333 C28.672,3.62666667 28.032,2.09066667 27.8186667,1.62133333 C27.4346667,0.768 26.24,0.554666667 25.5573333,0.384 C25.5573333,0.384 24.448,0.0426666667 20.736,0.0426666667 C17.024,0.0426666667 15.9146667,0.384 15.9146667,0.384 C15.1466667,0.64 14.0373333,0.810666667 13.6106667,1.664 C13.4826667,1.92 13.0986667,2.85866667 12.6293333,4.05333333 C13.2266667,4.05333333 13.7386667,4.096 14.208,4.13866667 C14.5066667,3.24266667 14.7626667,2.816 14.848,2.60266667 L14.848,2.60266667 Z M28.672,10.24 L28.672,11.0506667 C28.672,11.7333333 27.6906667,11.8613333 26.7093333,11.8613333 L25.6,11.8613333 C24.7893333,11.8613333 24.5333333,11.648 24.5333333,11.1786667 C24.5333333,10.6666667 25.2586667,10.4106667 25.8986667,10.0693333 C26.496,9.77066667 27.3493333,9.38666667 27.8186667,9.38666667 C28.2453333,9.42933333 28.672,9.42933333 28.672,10.24 L28.672,10.24 Z" id="Shape" sketch:type="MSShapeGroup"></path>
        </g>
    </g>
</svg>