<?xml version="1.0" encoding="UTF-8" standalone="no"?>
<svg width="32px" height="30px" viewBox="0 0 32 30" version="1.1" xmlns="http://www.w3.org/2000/svg" xmlns:xlink="http://www.w3.org/1999/xlink" xmlns:sketch="http://www.bohemiancoding.com/sketch/ns">
    <!-- Generator: Sketch 3.3.2 (12043) - http://www.bohemiancoding.com/sketch -->
    <title>Shape</title>
    <desc>Created with Sketch.</desc>
    <defs></defs>
    <g id="Page-1" stroke="none" stroke-width="1" fill="none" fill-rule="evenodd" sketch:type="MSPage">
        <path d="M31.0933428,21.0104478 L20.5841189,2.66930553 C19.6374621,1.01732274 17.888147,0 15.9948334,0 C14.1001865,0 12.3508713,1.01732274 11.4042145,2.66930553 L0.710992594,21.3251112 C-0.236997531,22.977094 -0.236997531,25.0117395 0.710992594,26.6637223 C1.6576494,28.315705 3.40696451,29.3330278 5.30027812,29.3330278 L26.6880553,29.3330278 L26.6987219,29.3330278 C29.6266914,29.3330278 32,26.942386 32,23.9944167 C32,22.8890949 31.6653368,21.8597723 31.0933428,21.0104478 L31.0933428,21.0104478 Z M18.2628098,22.7957625 C18.2628098,24.0584161 17.2988198,25.0237393 16.0001667,25.0237393 C14.7015135,25.0237393 13.7361902,24.0584161 13.7361902,22.7957625 L13.7361902,22.7437631 C13.7361902,21.4877762 14.7015135,20.5171196 16.0001667,20.5171196 C17.2988198,20.5171196 18.2628098,21.4824429 18.2628098,22.7437631 L18.2628098,22.7957625 L18.2628098,22.7957625 Z M18.3161425,7.78125228 L17.1948209,17.6318163 C17.120155,18.3411423 16.6521599,18.7838043 16.0001667,18.7838043 C15.3481735,18.7838043 14.8801783,18.335809 14.8055124,17.6318163 L13.6841908,7.77458568 C13.6095249,7.01326028 14.0201873,6.43726628 14.72418,6.43726628 L17.2708201,6.43726628 C17.9748128,6.44393288 18.3908084,7.01859356 18.3161425,7.78125228 L18.3161425,7.78125228 Z" id="Shape" fill="#000000" sketch:type="MSShapeGroup"></path>
    </g>
</svg>