<?xml version="1.0" encoding="UTF-8" standalone="no"?>
<svg width="32px" height="25px" viewBox="0 0 32 25" version="1.1" xmlns="http://www.w3.org/2000/svg" xmlns:xlink="http://www.w3.org/1999/xlink" xmlns:sketch="http://www.bohemiancoding.com/sketch/ns">
    <!-- Generator: Sketch 3.3.2 (12043) - http://www.bohemiancoding.com/sketch -->
    <title>Group</title>
    <desc>Created with Sketch.</desc>
    <defs></defs>
    <g id="Page-1" stroke="none" stroke-width="1" fill="none" fill-rule="evenodd" sketch:type="MSPage">
        <g id="Group" sketch:type="MSLayerGroup" fill="#000000">
            <g transform="translate(0.000000, 4.800000)" id="Shape" sketch:type="MSShapeGroup">
                <path d="M21.34496,10.28224 L32,1.75808 L32,18.8064 L21.34496,10.28224 Z"></path>
                <path d="M10.65536,10.28224 L0,1.75808 L0,18.8064 L10.65536,10.28224 Z"></path>
                <path d="M1.2624,19.79072 L15.9344,8.05312 L30.60608,19.79072 L1.2624,19.79072 Z"></path>
                <path d="M28.39328,0.11808 L28.39328,2.63552 L31.54048,0.11808 L28.39328,0.11808 Z"></path>
                <path d="M3.47488,0.11808 L0.32768,0.11808 L3.47488,2.63552 L3.47488,0.11808 Z"></path>
            </g>
            <path d="M4.78656,0 L4.78656,8.39296 L11.83584,14.032 L15.9344,10.7536 L20.03296,14.032 L27.08224,8.39296 L27.08224,0 L4.78656,0 L4.78656,0 Z M7.74688,1.96704 L12.66464,1.96704 L12.66464,2.78688 L7.74688,2.78688 L7.74688,1.96704 L7.74688,1.96704 Z M20.85248,8.85248 L7.7376,8.85248 L7.7376,7.86912 L20.85248,7.86912 L20.85248,8.85248 L20.85248,8.85248 Z M20.85248,6.88544 L7.7376,6.88544 L7.7376,5.90176 L20.85248,5.90176 L20.85248,6.88544 L20.85248,6.88544 Z M20.85248,4.91808 L7.7376,4.91808 L7.7376,3.9344 L20.85248,3.9344 L20.85248,4.91808 L20.85248,4.91808 Z" id="Shape" sketch:type="MSShapeGroup"></path>
        </g>
    </g>
</svg>