<?xml version="1.0" encoding="UTF-8" standalone="no"?>
<svg width="32px" height="32px" viewBox="0 0 32 32" version="1.1" xmlns="http://www.w3.org/2000/svg" xmlns:xlink="http://www.w3.org/1999/xlink" xmlns:sketch="http://www.bohemiancoding.com/sketch/ns">
    <!-- Generator: Sketch 3.3.2 (12043) - http://www.bohemiancoding.com/sketch -->
    <title>Shape</title>
    <desc>Created with Sketch.</desc>
    <defs></defs>
    <g id="Page-1" stroke="none" stroke-width="1" fill="none" fill-rule="evenodd" sketch:type="MSPage">
        <path d="M27.9822222,11.3066667 L27.9822222,8.24888889 C27.9822222,7.82222222 27.84,7.50222222 27.5911111,7.25333333 L20.7288889,0.391111111 C20.4444444,0.177777778 20.16,0 19.6977778,0 L5.47555556,0 C4.69333333,0 4.08888889,0.64 4.08888889,1.42222222 L4.08888889,11.3066667 L1.42222222,11.3066667 C0.64,11.3066667 0,11.9822222 0,12.8 L0,25.9555556 C0,26.7022222 0.64,27.3422222 1.42222222,27.3422222 L4.05333333,27.3422222 L4.05333333,30.3288889 C4.05333333,31.1111111 4.69333333,31.7511111 5.44,31.7511111 L26.4888889,31.7511111 C27.3066667,31.7511111 27.9466667,31.1111111 27.9466667,30.3288889 L27.9466667,27.3422222 L30.5777778,27.3422222 C31.3955556,27.3422222 32,26.7022222 32,25.9555556 L32,12.8 C32,11.9822222 31.3955556,11.3066667 30.5777778,11.3066667 L27.9822222,11.3066667 L27.9822222,11.3066667 Z M6.93333333,28.7644444 L6.93333333,19.5555556 L25.1377778,19.5555556 L25.1377778,28.7644444 L6.93333333,28.7644444 L6.93333333,28.7644444 Z M6.93333333,11.3066667 L6.93333333,2.88 L18.24,2.88 L18.24,8.24888889 C18.24,9.06666667 18.9155556,9.70666667 19.6977778,9.70666667 L25.1377778,9.70666667 L25.1377778,11.3422222 L6.93333333,11.3422222 L6.93333333,11.3066667 Z M27.9822222,16.8533333 C27.1644444,16.8533333 26.56,16.1777778 26.56,15.3244444 C26.56,14.5422222 27.2,13.8666667 27.9822222,13.8666667 C28.8,13.8666667 29.44,14.5422222 29.44,15.3244444 C29.44,16.1777778 28.8,16.8533333 27.9822222,16.8533333 L27.9822222,16.8533333 L27.9822222,16.8533333 Z M9.06666667,21.1911111 L9.06666667,23.3244444 L22.8622222,23.3244444 L22.8622222,21.1911111 L9.06666667,21.1911111 L9.06666667,21.1911111 Z M9.06666667,24.64 L9.06666667,26.7377778 L22.8622222,26.7377778 L22.8622222,24.64 L9.06666667,24.64 L9.06666667,24.64 Z" id="Shape" fill="#000000" sketch:type="MSShapeGroup"></path>
    </g>
</svg>