<?xml version="1.0" encoding="UTF-8" standalone="no"?>
<svg width="32px" height="22px" viewBox="0 0 32 22" version="1.1" xmlns="http://www.w3.org/2000/svg" xmlns:xlink="http://www.w3.org/1999/xlink" xmlns:sketch="http://www.bohemiancoding.com/sketch/ns">
    <!-- Generator: Sketch 3.3.3 (12081) - http://www.bohemiancoding.com/sketch -->
    <title>Shape</title>
    <desc>Created with Sketch.</desc>
    <defs></defs>
    <g id="Page-1" stroke="none" stroke-width="1" fill="none" fill-rule="evenodd" sketch:type="MSPage">
        <path d="M2.00174332,0.132285483 C0.89621101,0.132285483 -1.77635684e-15,1.03462923 -1.77635684e-15,2.12684693 L-1.77635684e-15,19.137724 C-1.77635684e-15,20.2392899 0.889261723,21.1322855 2.00174332,21.1322855 L29.9982567,21.1322855 C31.103789,21.1322855 32,20.2299417 32,19.137724 L32,2.12684693 C32,1.02528106 31.1107383,0.132285483 29.9982567,0.132285483 L2.00174332,0.132285483 Z M3.02022472,17.5345327 L3.02022472,4.303072 L11.2179775,10.6311619 L3.02022472,17.5345327 L3.02022472,17.5345327 Z M15.388764,13.6513866 C15.8202247,13.9390271 16.5393258,13.9390271 16.9707865,13.6513866 L18.9842697,12.0693641 L27.0382022,18.9727349 L5.32134831,18.9727349 L13.3752809,12.0693641 L15.388764,13.6513866 L15.388764,13.6513866 Z M5.75280899,2.86486975 L26.894382,2.86486975 L16.3955056,10.9188023 L5.75280899,2.86486975 L5.75280899,2.86486975 Z M29.3393258,4.15925178 L29.3393258,17.3907124 L21.141573,10.4873417 L29.3393258,4.15925178 Z" id="Shape" fill="#404040" sketch:type="MSShapeGroup"></path>
    </g>
</svg>