<?xml version="1.0" encoding="UTF-8" standalone="no"?>
<svg width="28px" height="32px" viewBox="0 0 28 32" version="1.1" xmlns="http://www.w3.org/2000/svg" xmlns:xlink="http://www.w3.org/1999/xlink" xmlns:sketch="http://www.bohemiancoding.com/sketch/ns">
    <!-- Generator: Sketch 3.3.2 (12043) - http://www.bohemiancoding.com/sketch -->
    <title>Group</title>
    <desc>Created with Sketch.</desc>
    <defs></defs>
    <g id="Page-1" stroke="none" stroke-width="1" fill="none" fill-rule="evenodd" sketch:type="MSPage">
        <g id="Group" sketch:type="MSLayerGroup" fill="#000000">
            <g transform="translate(2.000000, 0.000000)" id="Shape" sketch:type="MSShapeGroup">
                <path d="M2.6748,4.1168 L2.6748,1.3628 C2.6748,0.6428 2.0908,0.0588 1.37,0.0588 C0.65,0.0588 0.0652,0.6428 0.0652,1.3628 L0.0652,4.1168 L2.6748,4.1168 L2.6748,4.1168 Z"></path>
                <path d="M0.0652,14.5508 L0.0652,30.6376 C0.0652,31.3576 0.65,31.9416 1.37,31.9416 C2.0908,31.9416 2.6748,31.3576 2.6748,30.6376 L2.6748,14.5508 L0.0652,14.5508 L0.0652,14.5508 Z"></path>
            </g>
            <path d="M6.7032,11.936 C6.7032,12.5796 6.1816,13.102 5.538,13.102 L1.202,13.102 C0.5588,13.102 0.0372,12.58 0.0372,11.936 L0.0372,7.0212 C0.0372,6.3776 0.5588,5.8552 1.202,5.8552 L5.538,5.8552 C6.1816,5.8552 6.7032,6.3772 6.7032,7.0212 L6.7032,11.936 L6.7032,11.936 Z" id="Shape" sketch:type="MSShapeGroup"></path>
            <g transform="translate(12.000000, 0.000000)" id="Shape" sketch:type="MSShapeGroup">
                <path d="M3.2,17.2 L3.2,1.3628 C3.2,0.6428 2.5204,0.0588 1.8,0.0588 C1.0796,0.0588 0.4,0.6428 0.4,1.3628 L0.4,17.2 L3.2,17.2 L3.2,17.2 Z"></path>
                <path d="M0.148,27.1144 L0.148,30.6376 C0.148,31.3576 0.7944,31.9416 1.5144,31.9416 C2.2348,31.9416 2.8808,31.3576 2.8808,30.6376 L2.8808,27.1144 L0.148,27.1144 L0.148,27.1144 Z"></path>
            </g>
            <path d="M16.7284,24.52 C16.7284,25.164 16.2068,25.6864 15.5636,25.6864 L11.2268,25.6864 C10.5836,25.6864 10.0628,25.164 10.0628,24.52 L10.0628,19.6056 C10.0628,18.962 10.5836,18.44 11.2268,18.44 L15.5636,18.44 C16.2068,18.44 16.7284,18.962 16.7284,19.6056 L16.7284,24.52 L16.7284,24.52 Z" id="Shape" sketch:type="MSShapeGroup"></path>
            <g transform="translate(22.800000, 0.000000)" id="Shape" sketch:type="MSShapeGroup">
                <path d="M2.8,10 L2.8,1.3628 C2.8,0.6428 2.1204,0.0588 1.4,0.0588 C0.6792,0.0588 0,0.6428 0,1.3628 L0,10 L2.8,10 L2.8,10 Z"></path>
                <path d="M0,20.4 L0,30.6376 C0,31.3576 0.6792,31.9416 1.4,31.9416 C2.1204,31.9416 2.8,31.3576 2.8,30.6376 L2.8,20.4 L0,20.4 L0,20.4 Z"></path>
            </g>
            <path d="M27.1628,17.3432 C27.1628,17.9868 26.6412,18.5092 25.998,18.5092 L21.662,18.5092 C21.0184,18.5092 20.4968,17.9868 20.4968,17.3432 L20.4968,12.4284 C20.4968,11.7848 21.0184,11.2632 21.662,11.2632 L25.998,11.2632 C26.6412,11.2632 27.1628,11.7848 27.1628,12.4284 L27.1628,17.3432 L27.1628,17.3432 Z" id="Shape" sketch:type="MSShapeGroup"></path>
        </g>
    </g>
</svg>