<?xml version="1.0" encoding="UTF-8" standalone="no"?>
<svg width="32px" height="24px" viewBox="0 0 32 24" version="1.1" xmlns="http://www.w3.org/2000/svg" xmlns:xlink="http://www.w3.org/1999/xlink" xmlns:sketch="http://www.bohemiancoding.com/sketch/ns">
    <!-- Generator: Sketch 3.3.2 (12043) - http://www.bohemiancoding.com/sketch -->
    <title>icon</title>
    <desc>Created with Sketch.</desc>
    <defs></defs>
    <g id="Page-1" stroke="none" stroke-width="1" fill="none" fill-rule="evenodd" sketch:type="MSPage">
        <g id="icon" sketch:type="MSLayerGroup" fill="#000000">
            <g id="Group" sketch:type="MSShapeGroup">
                <ellipse id="Oval" cx="8" cy="3.2684" rx="3.2" ry="3.2"></ellipse>
                <path d="M1.6,4.8684 L3.6916,4.8684 C3.506,4.3692 3.4,3.832 3.4,3.2684 C3.4,2.7048 3.5064,2.1676 3.6916,1.6684 L1.6,1.6684 C0.7164,1.6684 0,2.3848 0,3.2684 C0,4.152 0.7164,4.8684 1.6,4.8684 L1.6,4.8684 Z" id="Shape"></path>
                <path d="M12.3084,4.8684 L30.4,4.8684 C31.2836,4.8684 32,4.152 32,3.2684 C32,2.3848 31.2836,1.6684 30.4,1.6684 L12.3084,1.6684 C12.494,2.1676 12.6,2.7048 12.6,3.2684 C12.6,3.832 12.4936,4.3692 12.3084,4.8684 L12.3084,4.8684 Z" id="Shape"></path>
            </g>
            <g id="Group" transform="translate(0.000000, 8.800000)" sketch:type="MSShapeGroup">
                <circle id="Oval" cx="24" cy="3.2" r="3.2"></circle>
                <path d="M19.6916,1.6 L1.6,1.6 C0.7164,1.6 0,2.3164 0,3.2 C0,4.0836 0.7164,4.8 1.6,4.8 L19.6916,4.8 C19.506,4.3012 19.4,3.7636 19.4,3.2 C19.4,2.6364 19.5064,2.0992 19.6916,1.6 L19.6916,1.6 Z" id="Shape"></path>
                <path d="M30.4,1.6 L28.3084,1.6 C28.494,2.0992 28.6,2.6364 28.6,3.2 C28.6,3.7636 28.4936,4.3008 28.3084,4.8 L30.4,4.8 C31.2836,4.8 32,4.0832 32,3.2 C32,2.3168 31.2836,1.6 30.4,1.6 L30.4,1.6 Z" id="Shape"></path>
            </g>
            <g id="Group" transform="translate(0.000000, 17.200000)" sketch:type="MSShapeGroup">
                <path d="M30.4,1.932 L16.3084,1.932 C16.494,2.4308 16.6,2.9684 16.6,3.532 C16.6,4.0956 16.4936,4.6332 16.3084,5.132 L30.4,5.132 C31.2836,5.132 32,4.4156 32,3.532 C32,2.6484 31.2836,1.932 30.4,1.932 L30.4,1.932 Z" id="Shape"></path>
                <path d="M7.6916,1.932 L1.6,1.932 C0.7164,1.932 0,2.6484 0,3.532 C0,4.4156 0.7164,5.132 1.6,5.132 L7.6916,5.132 C7.506,4.6332 7.4,4.0956 7.4,3.532 C7.4,2.9684 7.506,2.4308 7.6916,1.932 L7.6916,1.932 Z" id="Shape"></path>
                <ellipse id="Oval" cx="12" cy="3.532" rx="3.2" ry="3.2"></ellipse>
            </g>
        </g>
    </g>
</svg>