<?xml version="1.0" encoding="UTF-8" standalone="no"?>
<svg width="32px" height="32px" viewBox="0 0 32 32" version="1.1" xmlns="http://www.w3.org/2000/svg" xmlns:xlink="http://www.w3.org/1999/xlink" xmlns:sketch="http://www.bohemiancoding.com/sketch/ns">
    <!-- Generator: Sketch 3.3.3 (12081) - http://www.bohemiancoding.com/sketch -->
    <title>path-1</title>
    <desc>Created with Sketch.</desc>
    <defs></defs>
    <g id="Page-1" stroke="none" stroke-width="1" fill="none" fill-rule="evenodd" sketch:type="MSPage">
        <path d="M19.3604128,9.42168822 L26.3126747,15.0414555 C26.9349203,15.5436966 26.9349203,16.4912878 26.3126747,16.9944179 L19.3604128,22.6132962 C18.5381596,23.2782101 17.3123357,22.6932992 17.3123357,21.6372595 L17.3123357,16.0174922 L17.3123357,10.3986139 C17.3123357,9.3416852 18.5381596,8.75766321 19.3604128,9.42168822 L19.3604128,9.42168822 Z M9.15202828,9.42168822 L16.1042901,15.0414555 C16.7265358,15.5436966 16.7265358,16.4912878 16.1042901,16.9944179 L9.15202828,22.6132962 C8.33066401,23.2782101 7.10395114,22.6932992 7.10395114,21.6372595 L7.10395114,16.0174922 L7.10395114,10.3986139 C7.10395114,9.3416852 8.33066401,8.75766321 9.15202828,9.42168822 L9.15202828,9.42168822 Z M31.9662209,16.7792987 C31.9679988,16.8041885 31.9786659,16.8264116 31.976888,16.8521903 C31.9724434,16.9321933 31.9591096,17.0104185 31.953776,17.0913104 C31.9359976,17.3428755 31.908441,17.5926627 31.8791066,17.8424498 C31.8613281,18.0024559 31.8551057,18.1651287 31.8319937,18.3233568 C31.8293269,18.344691 31.816882,18.3624694 31.8115485,18.3838036 C31.8017703,18.4442503 31.7982146,18.5064749 31.7884365,18.5669216 C31.7875476,18.5749219 31.7902143,18.5829222 31.7893254,18.5909225 C31.7866586,18.6069231 31.782214,18.6220348 31.7795473,18.6371464 C31.7786583,18.6442578 31.7777694,18.6522581 31.7768805,18.6593695 C31.7759916,18.6638141 31.7733248,18.6673698 31.7724359,18.6718144 C31.1146333,22.5599609 29.056778,26.0516479 25.9659949,28.5104072 C25.0370711,29.2499906 24.0405891,29.864236 23.0023278,30.3726996 C22.9969942,30.3762553 22.9943275,30.3806999 22.9889939,30.3833667 C22.9747712,30.390478 22.9596595,30.3949227 22.9463256,30.4011451 C21.876952,30.9202758 20.7586877,31.3149573 19.6013108,31.5807451 C19.5781988,31.5860786 19.553309,31.5905232 19.530197,31.5958568 C19.0244001,31.7096388 18.5123809,31.7976422 17.9941391,31.8616446 C17.880357,31.8758673 17.7674639,31.8918679 17.6536818,31.9043128 C17.1567742,31.9549814 16.655422,31.9869826 16.1496252,31.9914272 C16.0962898,31.9923162 16.0438434,32.0012054 15.9905081,32.0012054 C15.3593732,32.0012054 14.7282383,31.9540925 14.0997702,31.879423 C14.0366567,31.8714227 13.9735432,31.8669781 13.9104297,31.8589778 C13.3272967,31.7825305 12.7477193,31.6696373 12.1725865,31.5282987 C12.1130287,31.5140759 12.0516931,31.5096313 11.9921353,31.4945196 C11.9743568,31.490075 11.9619119,31.4767412 11.9450224,31.4714076 C11.8010169,31.4340729 11.6570115,31.4038495 11.5147839,31.3629591 C6.64793396,29.9504615 2.8193453,26.4232175 1.01216612,21.6870391 C0.872605309,21.3225809 1.05661224,20.9136766 1.42107041,20.7758937 C1.78552859,20.634555 2.1953218,20.8185619 2.33577153,21.184798 C3.98383361,25.501405 7.47285392,28.7175261 11.9094655,30.0046857 C12.1583637,30.0766884 12.4125955,30.127357 12.6650495,30.185137 C13.0410637,30.2731403 13.4197446,30.3442541 13.8019812,30.402034 C13.987766,30.4295906 14.1735508,30.4615918 14.3602245,30.482037 C14.8446871,30.5353724 15.3318166,30.5673736 15.819835,30.5735961 C18.0590304,30.5958191 20.2920034,30.1095786 22.3116351,29.1379864 C23.2841161,28.6677465 24.2157068,28.0961694 25.083295,27.4045878 C27.9065125,25.1591699 29.7856944,21.9688275 30.3821613,18.4166937 C30.4221628,18.1793514 30.4443858,17.9375645 30.4728314,17.6966666 C30.500388,17.4673246 30.5261667,17.2379826 30.5421673,17.004196 C30.5652793,16.6690723 30.5839467,16.3321707 30.5839467,15.9961581 C30.5839467,13.8182983 30.0905947,11.7097744 29.1812272,9.78614639 C29.0870014,9.58613886 28.9945535,9.3852424 28.8905495,9.18967948 C28.278082,8.03319147 27.5118309,6.9495951 26.5909074,5.97711403 C24.1001469,3.34590381 20.7373536,1.74139893 17.124773,1.45961053 C17.1238841,1.45961053 17.1229952,1.45872161 17.1212173,1.45872161 C16.7425364,1.42938717 16.3620776,1.41427549 15.9825078,1.41427549 C12.1645862,1.41427549 8.5528946,2.87833064 5.81145801,5.53531961 C3.21047115,8.05985914 1.64774562,11.4404309 1.41395903,15.0521225 C1.38995813,15.4272478 1.0788353,15.7143697 0.709043593,15.7143697 C0.69304299,15.7143697 0.67793131,15.7143697 0.66281963,15.7125918 C0.272582708,15.687702 -0.0234284414,15.3508004 0.00146138503,14.9614524 C0.257471028,10.9986365 1.97220228,7.29094129 4.8256431,4.5219481 C7.83197856,1.60628273 11.7939056,0 15.9825078,0 C16.8065388,0 17.6332366,0.0631134884 18.4403781,0.18756262 C18.4599344,0.19111831 18.4750461,0.202674301 18.4937135,0.207118913 C21.9747335,0.756472938 25.1784097,2.42675807 27.6202795,5.00463295 C28.5687596,6.00644847 29.3599006,7.11760143 30.0114807,8.29986818 C30.0257034,8.3203134 30.0470375,8.33364723 30.0594825,8.35675922 C30.0905947,8.41276133 30.1137067,8.47409697 30.144819,8.530988 C30.25949,8.7496629 30.362605,8.97278242 30.4674978,9.19501301 C30.5448341,9.36035257 30.6337263,9.51769183 30.705729,9.68569816 C30.7155072,9.7070323 30.7128404,9.72925536 30.7199518,9.7505895 C31.5519831,11.7062187 32,13.8200761 32,15.9961581 C32,16.2575013 31.9804437,16.5188444 31.9662209,16.7792987 L31.9662209,16.7792987 Z M0.709043593,17.2770952 C1.09394698,17.2264266 1.4521827,17.4993258 1.50285127,17.8877849 C1.56152015,18.3358018 1.64063424,18.7784851 1.7384157,19.214946 C1.82464117,19.5945158 1.58552105,19.9731968 1.20328443,20.0603112 C1.15083801,20.0709782 1.09839159,20.0772007 1.04772302,20.0772007 C0.724155273,20.0772007 0.431699813,19.8531923 0.357030334,19.524291 C0.249470727,19.0469397 0.163245257,18.561588 0.0992428459,18.070014 C0.0485742707,17.6833327 0.321473439,17.3286527 0.709043593,17.2770952 L0.709043593,17.2770952 Z" id="path-1" fill="#000000" sketch:type="MSShapeGroup"></path>
    </g>
</svg>