<?xml version="1.0" encoding="UTF-8" standalone="no"?>
<svg width="32px" height="32px" viewBox="0 0 32 32" version="1.1" xmlns="http://www.w3.org/2000/svg" xmlns:xlink="http://www.w3.org/1999/xlink" xmlns:sketch="http://www.bohemiancoding.com/sketch/ns">
    <!-- Generator: Sketch 3.3.3 (12081) - http://www.bohemiancoding.com/sketch -->
    <title>path-1</title>
    <desc>Created with Sketch.</desc>
    <defs></defs>
    <g id="Page-1" stroke="none" stroke-width="1" fill="none" fill-rule="evenodd" sketch:type="MSPage">
        <path d="M26.3546667,20.1786667 L18.8897778,20.1786667 L22.8097778,12.08 L23.4568889,10.7413333 C23.5342222,10.5324444 23.6044444,10.32 23.6648889,10.104 C23.8551111,9.42222222 23.9644444,8.70666667 23.9644444,7.96355556 C23.9644444,3.56533333 20.3982222,0 15.9991111,0 C11.6008889,0 8.03466667,3.56533333 8.03466667,7.96355556 C8.03466667,8.70666667 8.144,9.42133333 8.33511111,10.104 C8.39466667,10.32 8.46488889,10.5324444 8.54311111,10.7413333 L9.19022222,12.0791111 L13.1084444,20.1786667 L5.64444444,20.1786667 L0,32 L32,32 L26.3546667,20.1786667 L26.3546667,20.1786667 Z M16,5.11466667 C17.5733333,5.11466667 18.8497778,6.39111111 18.8497778,7.96355556 C18.8497778,9.53777778 17.5733333,10.8133333 16,10.8133333 C14.4257778,10.8133333 13.1502222,9.53777778 13.1502222,7.96355556 C13.1502222,6.39111111 14.4257778,5.11466667 16,5.11466667 L16,5.11466667 Z M11.4791111,23.1013333 C12.8186667,23.2835556 13.6053333,24.2177778 14.5688889,25.3786667 C16.0995556,27.2222222 18.0053333,29.5173333 23.0897778,29.5173333 C26.1991111,29.5173333 28.1031111,28.952 28.7626667,27.84 L30.2097778,30.8711111 L11.4791111,30.8711111 L11.4791111,23.1013333 L11.4791111,23.1013333 Z M26.8613333,23.8586667 C24.8808889,23.8631111 22.6737778,23.8453333 21.5902222,22.7644444 C21.2177778,22.392 21.0097778,21.9075556 20.9448889,21.3075556 L25.6444444,21.3075556 L26.8613333,23.8586667 L26.8613333,23.8586667 Z M16,26.1528889 L18.3448889,21.3075556 L20.3822222,21.3075556 C20.4542222,22.0613333 20.7173333,22.6897778 21.1911111,23.1644444 C22.3857778,24.3564444 24.5786667,24.4231111 26.5973333,24.4231111 L26.9884444,24.4231111 L27.1315556,24.4231111 L28.4311111,27.144 C28.4124444,27.2435556 28.3857778,27.3422222 28.3413333,27.4391111 C28.0231111,28.1297778 26.8542222,28.9528889 23.0906667,28.9528889 C18.2711111,28.9528889 16.5351111,26.8631111 15.0044444,25.0177778 C14.0231111,23.8382222 13.0844444,22.728 11.48,22.5386667 L11.48,21.3075556 L13.656,21.3075556 L16,26.1528889 L16,26.1528889 Z M6.35555556,21.3075556 L10.9146667,21.3075556 L10.9146667,22.5004444 C8.45066667,22.52 7.33777778,23.3591111 6.44355556,24.0373333 C5.85422222,24.4835556 5.36977778,24.8462222 4.62222222,24.9404444 L6.35555556,21.3075556 L6.35555556,21.3075556 Z M4.34222222,25.5244444 C5.44622222,25.4924444 6.09866667,25.0053333 6.784,24.4871111 C7.65333333,23.8284444 8.64355556,23.0853333 10.9146667,23.0675556 L10.9146667,30.8711111 L1.79022222,30.8711111 L4.34222222,25.5244444 L4.34222222,25.5244444 Z" id="path-1" fill="#6A7984" sketch:type="MSShapeGroup"></path>
    </g>
</svg>