<?xml version="1.0" encoding="UTF-8" standalone="no"?>
<svg width="26px" height="32px" viewBox="0 0 26 32" version="1.1" xmlns="http://www.w3.org/2000/svg" xmlns:xlink="http://www.w3.org/1999/xlink" xmlns:sketch="http://www.bohemiancoding.com/sketch/ns">
    <!-- Generator: Sketch 3.3.3 (12081) - http://www.bohemiancoding.com/sketch -->
    <title>Shape</title>
    <desc>Created with Sketch.</desc>
    <defs></defs>
    <g id="Page-1" stroke="none" stroke-width="1" fill="none" fill-rule="evenodd" sketch:type="MSPage">
        <path d="M24.3507463,10.1463415 C23.9626866,9.75609756 23.5746269,9.36585366 23.4776119,9.07317073 C23.380597,8.68292683 23.4776119,8.09756098 23.5746269,7.6097561 C23.6716418,6.73170732 23.8656716,5.65853659 23.2835821,4.87804878 C22.7014925,4.09756098 21.7313433,3.90243902 20.761194,3.70731707 C20.2761194,3.6097561 19.6940299,3.51219512 19.4029851,3.31707317 C19.1119403,3.12195122 18.8208955,2.63414634 18.6268657,2.14634146 C18.238806,1.26829268 17.7537313,0.390243902 16.7835821,0.0975609756 C16.5895522,-5.5067062e-14 16.3955224,-5.5067062e-14 16.2014925,-5.5067062e-14 C15.5223881,-5.5067062e-14 14.8432836,0.292682927 14.1641791,0.682926829 C13.6791045,0.87804878 13.1940299,1.17073171 12.8059701,1.17073171 C12.4179104,1.17073171 11.9328358,0.87804878 11.4477612,0.682926829 C10.7686567,0.390243902 10.1865672,-5.5067062e-14 9.50746269,-5.5067062e-14 C9.31343284,-5.5067062e-14 9.11940299,-5.5067062e-14 8.92537313,0.0975609756 C7.95522388,0.390243902 7.47014925,1.36585366 7.08208955,2.14634146 C6.8880597,2.63414634 6.59701493,3.12195122 6.30597015,3.31707317 C6.01492537,3.51219512 5.43283582,3.6097561 4.94776119,3.70731707 C4.07462687,3.90243902 3.00746269,4 2.42537313,4.87804878 C1.84328358,5.65853659 2.03731343,6.73170732 2.13432836,7.6097561 C2.23134328,8.09756098 2.32835821,8.7804878 2.23134328,9.07317073 C2.13432836,9.36585366 1.74626866,9.75609756 1.35820896,10.1463415 C0.679104478,10.8292683 -5.5067062e-14,11.6097561 -5.5067062e-14,12.5853659 C-5.5067062e-14,13.6585366 0.776119403,14.3414634 1.35820896,15.0243902 C1.74626866,15.4146341 2.13432836,15.804878 2.23134328,16.097561 C2.32835821,16.4878049 2.23134328,17.0731707 2.13432836,17.5609756 C2.03731343,18.4390244 1.84328358,19.5121951 2.42537313,20.2926829 C3.00746269,21.0731707 3.97761194,21.2682927 4.94776119,21.4634146 C5.43283582,21.5609756 6.01492537,21.6585366 6.30597015,21.8536585 C6.5,22.0487805 6.79104478,22.4390244 6.8880597,22.7317073 L5.14179104,29.1707317 C5.04477612,29.4634146 5.14179104,29.7560976 5.43283582,29.9512195 C5.7238806,30.1463415 6.01492537,30.1463415 6.30597015,30.0487805 L8.34328358,28.9756098 L9.50746269,31.0243902 C9.60447761,31.2195122 9.89552239,31.4146341 10.1865672,31.4146341 L10.2835821,31.4146341 C10.5746269,31.4146341 10.8656716,31.1219512 10.9626866,30.8292683 L12.6119403,24.7804878 L14.0671642,31.4146341 C14.1641791,31.7073171 14.358209,32 14.6492537,32 L14.8432836,32 C15.1343284,32 15.3283582,31.902439 15.5223881,31.6097561 L16.880597,29.6585366 L18.9179104,30.8292683 C19.4029851,31.1219512 20.0820896,30.7317073 20.0820896,30.1463415 L20.0820896,29.9512195 L18.7238806,23.4146341 C18.8208955,23.2195122 18.9179104,23.1219512 18.9179104,22.9268293 C19.1119403,22.4390244 19.4029851,21.9512195 19.6940299,21.7560976 C19.9850746,21.5609756 20.5671642,21.4634146 21.0522388,21.3658537 C21.9253731,21.1707317 22.9925373,21.0731707 23.5746269,20.195122 C24.1567164,19.4146341 23.9626866,18.3414634 23.8656716,17.4634146 C23.7686567,16.9756098 23.6716418,16.2926829 23.7686567,16 C23.8656716,15.7073171 24.2537313,15.3170732 24.641791,14.9268293 L24.641791,14.9268293 C25.3208955,14.2439024 26,13.4634146 26,12.4878049 C26,11.5121951 25.0298507,10.8292683 24.3507463,10.1463415 L24.3507463,10.1463415 Z M22.0223881,17.8536585 C22.119403,18.5365854 22.2164179,19.1219512 22.0223881,19.4146341 C21.8283582,19.7073171 21.1492537,19.804878 20.5671642,19.902439 C19.8880597,20 19.1119403,20.195122 18.5298507,20.5853659 C17.9477612,20.9756098 17.6567164,21.6585366 17.2686567,22.3414634 C16.9776119,22.8292683 16.6865672,23.5121951 16.2985075,23.6097561 C16.0074627,23.7073171 15.4253731,23.4146341 14.8432836,23.1219512 C14.1641791,22.8292683 13.4850746,22.4390244 12.8059701,22.4390244 C12.0298507,22.4390244 11.3507463,22.8292683 10.7686567,23.1219512 C10.380597,23.3170732 9.60447761,23.7073171 9.31343284,23.6097561 C9.02238806,23.5121951 8.63432836,22.8292683 8.34328358,22.3414634 C8.05223881,21.6585366 7.6641791,20.9756098 7.08208955,20.5853659 C6.5,20.195122 5.7238806,20 5.04477612,19.902439 C4.46268657,19.804878 3.78358209,19.7073171 3.58955224,19.4146341 C3.39552239,19.1219512 3.49253731,18.4390244 3.58955224,17.8536585 C3.68656716,17.0731707 3.78358209,16.3902439 3.58955224,15.7073171 C3.39552239,15.0243902 2.91044776,14.5365854 2.32835821,13.9512195 C1.94029851,13.4634146 1.35820896,12.9756098 1.35820896,12.5853659 C1.35820896,12.195122 1.84328358,11.7073171 2.32835821,11.2195122 C2.81343284,10.7317073 3.29850746,10.1463415 3.58955224,9.46341463 C3.78358209,8.7804878 3.68656716,8 3.58955224,7.31707317 C3.49253731,6.73170732 3.39552239,6.04878049 3.58955224,5.75609756 C3.78358209,5.46341463 4.46268657,5.36585366 5.04477612,5.26829268 C5.7238806,5.17073171 6.5,4.97560976 7.08208955,4.58536585 C7.6641791,4.19512195 7.95522388,3.51219512 8.34328358,2.82926829 C8.63432836,2.34146341 8.92537313,1.65853659 9.31343284,1.56097561 C9.60447761,1.46341463 10.2835821,1.85365854 10.7686567,2.04878049 C11.4477612,2.34146341 12.1268657,2.73170732 12.8059701,2.73170732 C13.5820896,2.73170732 14.261194,2.34146341 14.8432836,2.04878049 C15.4253731,1.75609756 16.0074627,1.46341463 16.2985075,1.56097561 C16.5895522,1.65853659 16.9776119,2.34146341 17.2686567,2.82926829 C17.5597015,3.51219512 17.9477612,4.19512195 18.5298507,4.58536585 C19.1119403,4.97560976 19.7910448,5.17073171 20.5671642,5.26829268 C21.1492537,5.36585366 21.8283582,5.46341463 22.0223881,5.75609756 C22.2164179,6.04878049 22.119403,6.73170732 22.0223881,7.31707317 C21.9253731,8 21.8283582,8.7804878 22.0223881,9.46341463 C22.2164179,10.1463415 22.7014925,10.6341463 23.2835821,11.2195122 C23.6716418,11.7073171 24.2537313,12.195122 24.2537313,12.5853659 C24.2537313,12.9756098 23.7686567,13.4634146 23.2835821,13.9512195 C22.7985075,14.4390244 22.3134328,15.0243902 22.0223881,15.7073171 C21.7313433,16.3902439 21.9253731,17.0731707 22.0223881,17.8536585 L22.0223881,17.8536585 Z M16.7835821,28.097561 C16.3955224,27.902439 16.0074627,28 15.7164179,28.2926829 L15.0373134,29.3658537 L13.9701493,24.5853659 C13.9701493,24.5853659 14.0671642,24.5853659 14.0671642,24.6829268 C14.9402985,25.0731707 15.8134328,25.5609756 16.6865672,25.2682927 C16.7835821,25.2682927 16.880597,25.1707317 16.9776119,25.1707317 L17.7537313,28.8780488 L16.7835821,28.097561 L16.7835821,28.097561 Z M7.08208955,27.902439 L7.95522388,24.5853659 C8.14925373,24.7804878 8.44029851,24.9756098 8.82835821,25.1707317 C9.50746269,25.3658537 10.1865672,25.1707317 10.8656716,24.8780488 L9.79850746,28.6829268 L9.11940299,27.6097561 C9.02238806,27.4146341 8.73134328,27.2195122 8.44029851,27.2195122 C8.34328358,27.2195122 8.14925373,27.2195122 8.05223881,27.3170732 L7.08208955,27.902439 Z M11.738806,13.8536585 L9.60447761,11.0243902 L8.05223881,13.0731707 L11.738806,17.9512195 L18.141791,9.26829268 L16.5895522,7.2195122 L11.738806,13.8536585 Z" id="Shape" fill="#000000" sketch:type="MSShapeGroup"></path>
    </g>
</svg>