<?xml version="1.0" encoding="UTF-8" standalone="no"?>
<svg width="21px" height="32px" viewBox="0 0 21 32" version="1.1" xmlns="http://www.w3.org/2000/svg" xmlns:xlink="http://www.w3.org/1999/xlink" xmlns:sketch="http://www.bohemiancoding.com/sketch/ns">
    <!-- Generator: Sketch 3.3.3 (12081) - http://www.bohemiancoding.com/sketch -->
    <title>path-1</title>
    <desc>Created with Sketch.</desc>
    <defs></defs>
    <g id="Page-1" stroke="none" stroke-width="1" fill="none" fill-rule="evenodd" sketch:type="MSPage">
        <path d="M19.1187692,24.4713846 L19.1187692,30.08 L20.9230769,30.08 L20.9230769,32 L0,32 L0,30.08 L1.80307692,30.08 L1.80307692,24.4713846 C1.80307692,21.6467692 6.57846154,17.7649231 8.96492308,16 C6.57846154,14.2350769 1.80307692,10.3532308 1.80307692,7.52861538 L1.80307692,1.92 L0,1.92 L0,0 L20.9230769,0 L20.9230769,1.92 L19.1187692,1.92 L19.1187692,7.52861538 C19.1187692,10.3532308 14.3446154,14.2350769 11.9569231,16 C14.3446154,17.7649231 19.1187692,21.6467692 19.1187692,24.4713846 L19.1187692,24.4713846 Z M16.9550769,7.52861538 L16.9550769,3.84 L3.968,3.84 L3.968,7.52861538 C3.968,9.02030769 7.19015385,12.1390769 10.4603077,14.5415385 C13.4498462,12.3372308 16.9550769,9.13723077 16.9550769,7.52861538 L16.9550769,7.52861538 Z M16.9550769,24.4713846 C16.9550769,22.9796923 13.7329231,19.8609231 10.4627692,17.4584615 C7.47446154,19.664 3.968,22.864 3.968,24.4713846 L3.968,28.16 L5.20861538,28.16 C5.37969231,27.52 7.28861538,25.0916923 10.4652308,22.5132308 C13.6073846,25.0646154 15.5187692,27.52 15.7144615,28.16 L16.9550769,28.16 L16.9550769,24.4713846 L16.9550769,24.4713846 Z M6.21661538,7.48307692 L14.7064615,7.49169231 C14.5686154,8.11323077 13.0252308,9.96184615 10.4578462,12.0455385 C7.91876923,9.984 6.37538462,8.128 6.21661538,7.48307692 L6.21661538,7.48307692 Z" id="path-1" fill="#000000" sketch:type="MSShapeGroup"></path>
    </g>
</svg>