<?xml version="1.0" encoding="UTF-8" standalone="no"?>
<svg width="596px" height="143px" viewBox="0 0 596 143" version="1.1" xmlns="http://www.w3.org/2000/svg" xmlns:xlink="http://www.w3.org/1999/xlink" xmlns:sketch="http://www.bohemiancoding.com/sketch/ns">
    <!-- Generator: Sketch 3.3.2 (12043) - http://www.bohemiancoding.com/sketch -->
    <title>logo</title>
    <desc>Created with Sketch.</desc>
    <defs></defs>
    <g id="Page-1" stroke="none" stroke-width="1" fill="none" fill-rule="evenodd" sketch:type="MSPage">
        <g id="logo" sketch:type="MSLayerGroup">
            <path d="M180.11016,45.7887799 C180.303371,45.26795 180.913734,44.845734 181.4557,44.845734 L190.6843,44.845734 C191.23421,44.845734 191.842796,45.2662913 192.040257,45.7763972 L215.799743,107.155071 C215.998708,107.669062 216.16,108.524225 216.16,109.094279 L216.16,108.097189 C216.16,108.654193 215.709856,109.105734 215.158349,109.105734 L204.921651,109.105734 C204.368454,109.105734 203.762568,108.685916 203.568981,108.169684 L197.8,92.785734 L173.32,92.785734 L168.516242,108.157761 C168.352632,108.681312 167.766266,109.105734 167.2243,109.105734 L157.9957,109.105734 C157.44579,109.105734 157,108.667243 157,108.097189 L157,109.094279 C157,108.537275 157.156013,107.665177 157.34984,107.142688 L180.11016,45.7887799 Z M185.56,57.085734 L194.74,83.605734 L194.74,84.625734 L176.38,84.625734 L176.38,83.605734 L185.05,57.4937278 L185.56,57.085734 Z M224.931975,45.838825 C224.931975,45.290356 225.381585,44.845734 225.938235,44.845734 L235.04374,44.845734 C235.599482,44.845734 236.05,45.2956128 236.05,45.8508978 L236.05,97.7525057 C236.05,98.3076423 236.159382,99.195494 236.355988,99.4831983 C236.355988,99.4831983 236.056849,99.1792354 236.355988,99.4831983 C236.655126,99.7871612 236.355988,99.4831983 236.355988,99.4831983 C236.750326,99.6549162 237.525081,99.7941031 238.065059,99.7940816 L261.064941,99.7931685 C261.614497,99.7931467 262.06,100.238091 262.06,100.791427 L262.06,107.070985 C262.06,107.622329 261.94876,108.492696 261.741773,108.794811 C261.741773,108.794811 262.042327,108.492766 261.741773,108.794811 C261.441219,109.096857 261.741773,108.794811 261.741773,108.794811 C261.347935,108.966529 260.58531,109.105734 260.035712,109.105734 L226.956263,109.105734 C226.40787,109.105734 225.525758,109.059572 225.144148,108.898431 C225.144148,108.898431 225.344014,109.099288 225.144148,108.898431 C224.944283,108.697574 225.144148,108.898431 225.144148,108.898431 C225.026968,108.440505 224.931975,107.614424 224.931975,107.076191 L224.931975,45.838825 Z M286.948025,90.4660566 C286.948025,88.8951915 286.948025,44.8313669 286.948025,44.8313669 C286.948025,44.2759712 287.397632,43.825734 287.954279,43.825734 L297.059734,43.825734 C297.615472,43.825734 298.065988,44.2668334 298.065988,44.8190748 L298.065988,88.3931534 C298.065988,88.3931534 298.616063,95.4377088 295.148038,101.557709 C290.76205,107.677709 286.107672,108.085734 286.107672,108.085734 C286.107672,108.085734 282.459739,109.003697 278.38,109.003697 C274.300261,109.003697 271.192065,108.28041 271.192065,108.28041 C270.655208,108.172894 270.286998,107.635083 270.368116,107.091848 C270.368116,107.091848 271.102721,102.125873 271.24,101.557709 C271.377279,100.989545 271.398308,100.733237 271.648025,100.333697 C271.897742,99.934156 272.26,99.925734 272.26,99.925734 C272.26,99.925734 277.86542,100.553061 279.4,100.537709 C280.93458,100.522358 282.001689,100.478209 283.262658,99.7547002 C284.523626,99.031191 284.554052,99.194355 285.621975,96.9677091 C286.689898,94.7410633 286.948025,92.0369217 286.948025,90.4660566 Z" id="alj" fill="#717075" sketch:type="MSShapeGroup"></path>
            <path d="M318,6.10573402 L320,74.105734 L318,143.105734 L316,74.105734 L318,6.10573402 Z" id="divider" fill="#049EAE" sketch:type="MSShapeGroup"></path>
            <path d="M340,49.0327632 C340,48.484782 340.442823,48.0405555 340.990485,48.0405555 L373.095595,48.0405555 C373.095595,48.0405555 373.590427,48.134265 373.797635,48.3414735 C374.004844,48.548682 374.098492,49.0434523 374.098492,49.0434523 C374.098492,51.049246 373.095595,53.0550396 373.095595,53.0550396 C373.095595,53.0550396 372.819993,53.5311722 372.594147,53.7570184 C372.368301,53.9828646 372.092698,54.0579365 372.092698,54.0579365 L348.023175,54.0579365 L348.023175,73.1129761 L369.084008,73.1129761 C369.084008,73.1129761 369.578839,73.2066856 369.786048,73.4138941 C369.993256,73.6211026 370.086905,74.1158729 370.086905,74.1158729 L370.086905,78.1274602 C370.086905,78.1274602 370.080288,78.5351991 369.786048,78.829439 C369.491808,79.1236789 369.084008,79.130357 369.084008,79.130357 L348.023175,79.130357 L348.023175,105.205674 C348.023175,105.205674 348.016558,105.613413 347.722318,105.907653 C347.428078,106.201893 347.020278,106.208571 347.020278,106.208571 L341.002897,106.208571 C341.002897,106.208571 340.508065,106.114862 340.300857,105.907653 C340.093648,105.700445 340,105.205674 340,105.205674 L340,49.0327632 Z M382.121667,49.5368787 C382.121667,48.7104822 382.7948,48.0405555 383.627692,48.0405555 L387.635919,48.0405555 C388.467674,48.0405555 389.141944,48.7139255 389.141944,49.5368787 L389.141944,104.712248 C389.141944,105.538645 388.468811,106.208571 387.635919,106.208571 L383.627692,106.208571 C382.795937,106.208571 382.121667,105.535201 382.121667,104.712248 L382.121667,49.5368787 Z M385.631805,42.0231746 C388.124286,42.0231746 390.144841,40.2271258 390.144841,38.0115873 C390.144841,35.7960488 388.124286,34 385.631805,34 C383.139325,34 381.11877,35.7960488 381.11877,38.0115873 C381.11877,40.2271258 383.139325,42.0231746 385.631805,42.0231746 Z M399.170913,49.5368787 C399.170913,48.7104822 399.837869,48.0405555 400.67383,48.0405555 L403.685376,48.0405555 C404.515415,48.0405555 405.59499,48.5788304 406.091562,49.2360586 L439.286785,93.1709125 L439.286785,49.5421233 C439.286785,48.7128303 439.959919,48.0405555 440.792811,48.0405555 L444.801037,48.0405555 C445.632793,48.0405555 446.307063,48.7139255 446.307063,49.5368787 L446.307063,104.712248 C446.307063,105.538645 445.633929,106.208571 444.801037,106.208571 L440.792811,106.208571 C439.961056,106.208571 438.880275,105.666557 438.384394,105.005383 L406.19119,62.081111 L406.19119,104.715086 C406.19119,105.539915 405.518057,106.208571 404.685165,106.208571 L400.676938,106.208571 C399.845183,106.208571 399.170913,105.535201 399.170913,104.712248 L399.170913,49.5368787 Z M472.618894,48.9676902 C472.820588,48.4556478 473.42952,48.0405555 473.974184,48.0405555 L479.114609,48.0405555 C479.66142,48.0405555 480.265599,48.4545293 480.465051,48.9676902 L502.108933,104.654227 C502.30795,105.16627 502.469285,106.023656 502.469285,106.50944 L502.469285,105.581362 C502.469285,106.093925 502.021681,106.509442 501.468851,106.509445 L494.443648,106.509484 C493.891124,106.509487 493.294469,106.080606 493.11542,105.564348 L487.425833,89.1593252 L464.660063,89.1593252 L458.681521,105.576669 C458.493912,106.091851 457.887476,106.509486 457.341907,106.509483 L451.318569,106.509446 C450.766329,106.509442 450.31865,106.067145 450.31865,105.581362 L450.31865,106.50944 C450.31865,105.996876 450.481716,105.167388 450.683851,104.654227 L472.618894,48.9676902 Z M476.093111,58.0695238 L485.119182,83.2326815 L466.766183,83.2326815 L476.093111,58.0695238 Z M506.480873,49.5368787 C506.480873,48.7104822 507.147829,48.0405555 507.98379,48.0405555 L510.995336,48.0405555 C511.825375,48.0405555 512.90495,48.5788304 513.401522,49.2360586 L546.596745,93.1709125 L546.596745,49.5421233 C546.596745,48.7128303 547.269879,48.0405555 548.102771,48.0405555 L552.110997,48.0405555 C552.942753,48.0405555 553.617023,48.7139255 553.617023,49.5368787 L553.617023,104.712248 C553.617023,105.538645 552.943889,106.208571 552.110997,106.208571 L548.102771,106.208571 C547.271016,106.208571 546.190235,105.666557 545.694354,105.005383 L513.50115,62.081111 L513.50115,104.715086 C513.50115,105.539915 512.828017,106.208571 511.995125,106.208571 L507.986898,106.208571 C507.155143,106.208571 506.480873,105.535201 506.480873,104.712248 L506.480873,49.5368787 Z M592.959204,50.4399722 C593.386502,50.7764648 593.568754,51.4596023 593.365003,51.9689797 L592.094996,55.1439964 C591.891814,55.6519513 591.319186,56.2269067 590.790008,56.4385906 L591.6613,56.0900528 C591.143757,56.2970826 590.315867,56.2850659 589.800458,56.0718183 C589.800458,56.0718183 584.859474,53.7280145 578.689444,53.6567532 C572.519413,53.585492 568.259292,55.0608333 567.958436,61.0782142 C567.657579,67.0955951 572.672063,69.1013888 580.695237,73.1129761 C588.718412,77.1245634 595.73869,82.1390475 595.73869,87.1535316 C596.340403,92.1680157 595.942139,94.4186437 594.134079,98.1853966 C591.727102,103.199881 584.706825,107.211468 576.68365,107.211468 C568.660476,107.211468 560.302836,104.858727 560.302836,104.858727 C559.767513,104.718024 559.464172,104.183687 559.630379,103.648928 L561.343366,98.1375328 C561.507302,97.6100827 562.029753,97.4191333 562.507471,97.6828214 C562.507471,97.6828214 567.657579,101.194087 577.185099,100.492108 C585.709722,99.1882935 587.715515,96.179603 587.715515,91.1651189 C587.715515,86.1506348 584.706825,84.1448411 575.680753,79.130357 C566.654682,74.1158729 559.634404,72.1100793 559.634404,61.0782142 C559.634404,53.0550396 567.657579,47.0376587 578.689444,47.0376587 C589.721309,47.0376587 592.959204,50.4399722 592.959204,50.4399722 Z" id="finans" fill="#959499" sketch:type="MSShapeGroup"></path>
            <path d="M68.7937266,101.310932 L68.7937266,74.8051571 C68.7937266,74.4501691 68.9120559,74.2135104 69.1487146,74.095181 C69.3853733,73.8585223 69.622032,73.8585223 69.9770201,73.9768517 C82.5199313,78.473367 95.4178306,82.7332237 108.079071,87.229739 C108.670718,87.4663977 109.025706,87.9397151 109.144035,88.5313619 C109.262365,89.1230086 109.025706,89.7146554 108.552389,90.0696434 C98.3760644,97.5243926 88.3180695,105.097471 78.1417453,112.55222 C77.4317692,113.025538 77.0767812,113.853843 77.0767812,114.682148 L77.0767812,121.900239 L100.387663,121.900239 C103.109238,121.900239 104.410861,118.942005 105.712484,115.273795 C108.434059,106.872411 111.273964,98.4710274 113.995539,90.1879728 C114.113868,89.9513141 114.232197,89.8329847 114.468856,89.7146554 C114.705515,89.596326 114.942174,89.596326 115.178832,89.7146554 C116.953773,90.3063021 118.847042,90.8979489 120.621982,91.607925 C121.0953,91.7262544 121.331959,92.3179011 121.213629,92.7912185 C117.782078,103.085872 114.350527,113.498855 110.918976,123.793509 C109.854011,126.751742 107.605754,129 103.227568,129 L71.0419843,129 C70.0953494,129 69.3853733,128.290024 69.3853733,127.343389 L69.3853733,112.197232 C69.3853733,110.658951 70.0953494,109.238998 71.3969723,108.292364 C79.0883801,102.612555 86.6614586,97.0510752 94.2345371,91.3712663 C94.3528665,91.2529369 94.4711958,91.0162782 94.4711958,90.8979489 C94.4711958,90.6612902 94.3528665,90.5429608 94.1162078,90.4246315 C88.3180695,88.4130325 82.1649433,86.6380923 76.4851344,84.6264933 L76.4851344,96.9327458 C74.2368767,98.5893567 71.9886191,100.245968 69.7403614,101.902579 C69.622032,102.020908 69.3853733,102.020908 69.1487146,101.902579 C68.7937266,101.66592 68.7937266,101.429261 68.7937266,101.310932 Z M85.8331532,114.32716 L102.399262,101.784249 C102.635921,101.547591 102.990909,101.547591 103.227568,101.784249 C103.464227,102.020908 103.582556,102.257567 103.464227,102.612555 L99.2043699,115.628783 L86.3064706,115.628783 C85.9514825,115.628783 85.7148238,115.392125 85.5964945,115.155466 C85.4781651,114.800478 85.5964945,114.563819 85.8331532,114.32716 Z M96.6011241,78.473367 C88.1997402,75.7517919 79.7983563,73.0302169 71.3969723,70.1903124 C71.1603136,70.0719831 70.9236549,69.9536537 70.8053256,69.5986657 C70.6869962,69.362007 70.8053256,69.0070189 70.9236549,68.7703602 C79.0883801,58.2390479 87.134776,47.2344183 95.2995013,36.703106 C95.6544893,36.2297886 96.2461361,35.9931299 96.8377828,36.1114593 C97.4294296,36.2297886 97.902747,36.5847767 98.1394057,37.1764234 C102.162604,49.1276879 106.067472,61.0789524 110.09067,73.0302169 C110.327329,73.8585223 110.918976,74.4501691 111.86561,74.6868278 C114.113868,75.3968039 116.480455,76.2251093 118.728713,76.9350854 C121.331959,69.0070189 123.343558,62.6172339 125.946803,54.8074968 C126.775109,52.204251 124.408522,50.0743227 121.213629,47.7077357 C114.113868,42.5012442 107.014107,37.2947528 99.914346,31.969932 C99.6776873,31.8516026 99.5593579,31.6149439 99.5593579,31.3782852 C99.5593579,31.1416265 99.5593579,30.9049678 99.7960166,30.6683091 C100.97931,29.1300275 102.044274,27.591746 103.227568,26.0534644 C103.464227,25.6984764 104.055873,25.580147 104.410861,25.8168057 C113.167233,32.32492 121.923605,38.714705 130.679977,45.2228193 C133.164894,47.1160889 134.584846,49.9559934 133.164894,54.0975207 C129.851672,64.2738449 126.53845,74.5684984 123.225228,84.7448226 C122.988569,85.5731281 122.041935,86.0464455 121.213629,85.8097868 C116.243796,84.1531759 111.747281,82.7332237 106.777448,81.0766127 C105.239167,80.6032953 104.174203,79.5383312 103.700885,78.0000496 C100.742651,69.0070189 97.6660883,60.0139882 94.7078545,51.0209575 C94.5895252,50.7842988 94.4711958,50.6659695 94.2345371,50.6659695 C93.9978784,50.6659695 93.8795491,50.6659695 93.7612197,50.9026282 C89.9746805,55.7541316 86.4247999,61.0789524 82.75659,65.9304558 C86.6614586,67.2320786 90.5663272,68.5337015 94.4711958,69.716995 C95.2995013,72.3202407 96.2461361,75.0418158 97.0744415,77.6450616 C97.1927709,77.8817203 97.0744415,78.0000496 96.9561122,78.2367083 C97.0744415,78.473367 96.8377828,78.473367 96.6011241,78.473367 Z M114.350527,66.1671145 L107.605754,46.6427715 C107.487424,46.2877835 107.605754,46.0511248 107.842413,45.8144661 C108.079071,45.5778074 108.434059,45.5778074 108.670718,45.8144661 L119.675348,53.860862 L115.65215,66.1671145 C115.53382,66.5221025 115.297162,66.6404319 114.942174,66.6404319 C114.705515,66.6404319 114.468856,66.5221025 114.350527,66.1671145 Z M83.5848955,44.8678313 C78.378404,51.9675923 73.1719126,59.0673534 67.9654211,66.2854438 C67.7287624,66.5221025 67.4921037,66.6404319 67.255445,66.6404319 C67.0187863,66.6404319 66.6637983,66.5221025 66.5454689,66.2854438 C59.0907198,55.2808142 51.1626532,44.1578551 43.5895748,33.1532255 C43.2345867,32.6799081 43.2345867,32.0882613 43.4712454,31.4966146 C43.7079041,30.9049678 44.2995509,30.6683091 44.8911976,30.6683091 C57.5524382,30.5499798 70.0953494,30.5499798 82.75659,30.4316504 C83.5848955,30.4316504 84.413201,30.0766624 84.8865184,29.3666862 C86.3064706,27.3550873 87.7264228,25.4618177 89.146375,23.4502187 C82.5199313,18.5987153 76.9584518,14.5755173 70.3320082,9.72401393 C68.0837505,8.06740302 65.3621754,9.72401393 62.1672829,11.9722716 C54.9491925,17.0604337 47.8494314,22.2669252 40.631341,27.3550873 C40.3946823,27.4734166 40.2763529,27.591746 39.9213649,27.4734166 C39.6847062,27.4734166 39.4480475,27.3550873 39.3297181,27.1184286 C38.264754,25.580147 37.0814604,23.9235361 36.0164963,22.3852545 C35.7798376,22.0302665 35.7798376,21.4386197 36.253155,21.0836317 C45.009527,14.6938467 53.8842283,8.30406172 62.7589297,2.0326061 C65.3621754,0.257665834 68.4387385,-0.215651571 71.9886191,2.38759416 C80.6266617,8.65904977 89.3830337,15.0488347 98.0210763,21.3202904 C98.7310525,21.7936078 98.8493818,22.8585719 98.3760644,23.568548 C95.2995013,27.8284047 92.4595968,31.6149439 89.5013631,35.7564712 C88.5547282,37.0580941 87.2531054,37.7680702 85.5964945,37.7680702 C76.1301464,37.7680702 66.6637983,37.8863995 57.0791208,38.0047289 C56.8424621,38.0047289 56.7241328,38.1230582 56.6058034,38.2413876 C56.4874741,38.4780463 56.4874741,38.5963756 56.6058034,38.8330343 C60.0373546,43.9211964 64.0605525,48.8910292 67.3737744,53.9791913 C69.8586907,50.6659695 72.2252778,47.3527476 74.7101941,44.0395258 L83.1115781,44.0395258 C83.3482368,44.0395258 83.4665661,44.1578551 83.5848955,44.2761845 C83.7032248,44.5128432 83.7032248,44.6311726 83.5848955,44.8678313 Z M47.6127727,46.8794302 C52.7009348,53.9791913 57.9074263,61.1972817 62.9955884,68.2970428 C63.2322471,68.5337015 63.2322471,68.8886896 63.1139177,69.1253483 C62.9955884,69.362007 62.7589297,69.5986657 62.522271,69.716995 C49.6243717,73.3852049 36.7264724,77.5267322 23.8285731,81.1949421 C23.2369264,81.3132714 22.6452796,81.1949421 22.1719622,80.7216247 C21.6986448,80.2483073 21.5803154,79.6566605 21.8169741,79.0650138 C25.8401721,67.1137493 29.6267113,55.1624848 33.4132506,43.092891 C33.6499093,42.2645855 33.5315799,41.4362801 33.0582625,40.726304 C31.6383103,38.714705 30.2183581,36.8214354 28.7984059,34.8098364 C22.0536328,39.6613398 16.6104827,43.5662084 9.86570966,48.4177118 C7.61745199,49.9559934 8.32742809,53.1508858 9.51072161,56.9374251 C12.1139673,65.338809 14.8355424,73.740193 17.4387881,82.1415769 C17.5571175,82.3782356 17.4387881,82.6148943 17.3204588,82.851553 C17.2021294,83.0882117 17.0838001,83.2065411 16.8471414,83.3248704 C14.9538718,83.9165172 13.1789315,84.5081639 11.2856619,84.9814813 C10.8123445,85.0998107 10.3390271,84.863152 10.1023684,84.3898346 C6.78914653,73.9768517 3.59425404,63.5638688 0.281032209,53.2692152 C-0.428943898,50.3109814 0.0443735067,47.2344183 3.59425404,44.6311726 C12.350626,38.3597169 20.9886687,32.0882613 29.7450407,25.8168057 C30.4550168,25.3434883 31.5199809,25.4618177 31.9932983,26.1717938 C35.0698615,30.4316504 37.7914366,34.2181896 40.8679997,38.4780463 C41.8146345,39.7796692 42.0512932,41.3179507 41.5779758,42.7379029 C38.7380714,51.7309336 35.7798376,60.8422937 32.9399332,69.8353244 C32.9399332,70.0719831 32.9399332,70.1903124 33.0582625,70.4269711 C33.1765919,70.5453005 33.4132506,70.6636298 33.6499093,70.5453005 C39.5663768,68.7703602 45.6011737,66.6404319 51.399312,64.983821 C49.0327249,61.6705991 46.5478086,58.3573773 44.1812215,54.9258261 C45.009527,52.3225804 45.8378324,49.6010053 46.7844673,46.8794302 C46.7844673,46.6427715 47.021126,46.5244422 47.2577847,46.5244422 C47.2577847,46.5244422 47.4944434,46.6427715 47.6127727,46.8794302 Z M26.0768308,46.2877835 L20.0420339,66.0487851 C19.9237045,66.4037732 19.6870458,66.5221025 19.3320578,66.5221025 C18.9770697,66.5221025 18.740411,66.2854438 18.6220817,66.0487851 L14.4805544,53.0325565 L25.0118666,45.459478 C25.2485253,45.2228193 25.6035134,45.2228193 25.8401721,45.459478 C26.0768308,45.5778074 26.0768308,45.9327954 26.0768308,46.2877835 Z M38.264754,81.6682595 C46.6661379,78.9466844 55.0675218,76.3434387 63.4689058,73.6218636 C63.7055645,73.5035343 64.0605525,73.6218636 64.2972112,73.740193 C64.5338699,73.9768517 64.6521993,74.2135104 64.6521993,74.4501691 C64.1788819,87.8213858 64.0605525,101.429261 63.5872351,114.800478 C63.5872351,115.392125 63.2322471,115.865442 62.6406003,116.22043 C62.0489536,116.457089 61.4573068,116.457089 60.9839894,116.102101 C50.8076652,108.765681 40.5130116,101.310932 30.3366874,93.974512 C29.6267113,93.5011946 28.7984059,93.3828653 27.9701004,93.619524 C25.6035134,94.3295001 23.3552557,95.0394762 21.106998,95.8677816 C23.5919144,103.795848 25.7218427,110.185633 28.2067591,118.1137 C29.0350646,120.716945 32.229957,121.071933 36.1348256,121.071933 C45.009527,121.190263 53.765899,121.308592 62.6406003,121.308592 C62.877259,121.308592 63.1139177,121.426922 63.2322471,121.545251 C63.4689058,121.78191 63.4689058,121.900239 63.4689058,122.136898 C63.4689058,124.030167 63.3505764,126.041766 63.3505764,127.935036 C63.3505764,128.408353 62.9955884,128.763341 62.4039416,128.763341 C51.5176413,128.645012 40.631341,128.526683 29.7450407,128.408353 C26.6684775,128.408353 23.8285731,126.870072 22.5269502,122.728544 C19.2137284,112.55222 16.0188359,102.257567 12.7056141,92.0812424 C12.4689554,91.2529369 12.9422728,90.3063021 13.7705783,90.0696434 C18.740411,88.5313619 23.2369264,86.9930803 28.2067591,85.4547987 C29.7450407,84.9814813 31.2833222,85.21814 32.4666158,86.1647748 C40.1580236,91.7262544 47.8494314,97.2877339 55.5408392,102.849213 C55.6591686,102.967543 55.8958273,102.967543 56.132486,102.849213 C56.3691447,102.730884 56.3691447,102.612555 56.4874741,102.375896 C56.7241328,96.2227697 56.4874741,89.8329847 56.7241328,83.7981878 C52.8192642,85.0998107 48.9143956,86.2831042 45.009527,87.5847271 C42.7612693,85.9281161 40.5130116,84.2715052 38.1464246,82.7332237 C38.0280953,82.496565 37.9097659,82.2599063 37.9097659,82.1415769 C38.0280953,81.9049182 38.1464246,81.7865888 38.264754,81.6682595 Z M31.0466635,101.902579 L47.9677608,113.853843 C48.2044195,114.090502 48.3227488,114.32716 48.2044195,114.682148 C48.0860901,114.918807 47.8494314,115.155466 47.4944434,115.155466 L33.886568,115.037137 L29.86337,102.730884 C29.7450407,102.375896 29.86337,102.139237 30.1000287,101.902579 C30.4550168,101.784249 30.8100048,101.784249 31.0466635,101.902579 Z M77.4317692,24.1601948 L56.7241328,24.5151828 C56.3691447,24.5151828 56.132486,24.2785241 56.0141567,24.0418654 C55.8958273,23.6868774 56.0141567,23.4502187 56.2508154,23.21356 L67.3737744,15.2854934 L77.9050866,22.8585719 C78.1417453,23.0952306 78.2600747,23.3318893 78.1417453,23.6868774 C78.023416,24.0418654 77.7867573,24.1601948 77.4317692,24.1601948 Z" id="logo-shape" fill="#56A6B9" sketch:type="MSShapeGroup"></path>
        </g>
    </g>
</svg>