<?xml version="1.0" encoding="utf-8"?>
<!-- Generator: Adobe Illustrator 19.0.0, SVG Export Plug-In . SVG Version: 6.00 Build 0)  -->
<svg version="1.1" id="Layer_1" xmlns:sketch="http://www.bohemiancoding.com/sketch/ns"
	 xmlns="http://www.w3.org/2000/svg" xmlns:xlink="http://www.w3.org/1999/xlink" x="0px" y="0px" viewBox="-7 325 596 143"
	 style="enable-background:new -7 325 596 143;" xml:space="preserve">
<style type="text/css">
	.st0{fill:#717075;}
	.st1{fill:#009aa6;}
	.st2{fill:#959499;}
	.st3{fill:#009aa6;}
</style>
<title>logo</title>
<desc>Created with Sketch.</desc>
	<g id="logo">
		<g>
			<path class="st0" d="M254.8,433.7C254.9,433.7,254.9,433.7,254.8,433.7L254.8,433.7z"/>
			<path class="st0" d="M254.7,433.8C254.7,433.8,254.8,433.7,254.7,433.8C254.8,433.7,254.8,433.7,254.7,433.8z"/>
			<path class="st0" d="M254.7,433.8C254.4,434.1,254.7,433.8,254.7,433.8L254.7,433.8z"/>
			<path class="st0" d="M150,434.1c0-0.2,0-0.4,0.1-0.7c0-0.1-0.1-0.2-0.1-0.3V434.1z"/>
			<path class="st0" d="M209.2,434.1v-1c0,0.1,0,0.2-0.1,0.3C209.1,433.6,209.2,433.9,209.2,434.1z"/>
			<path class="st0" d="M185,370.8c-0.2-0.5-0.8-0.9-1.4-0.9h-9.2c-0.5,0-1.2,0.4-1.3,0.9l-22.8,61.4c-0.1,0.3-0.2,0.8-0.3,1.3
				c0.1,0.4,0.5,0.7,0.9,0.7h9.2c0.5,0,1.1-0.4,1.3-0.9l4.8-15.4h24.5l5.8,15.4c0.2,0.5,0.8,0.9,1.4,0.9h10.2c0.4,0,0.8-0.3,0.9-0.7
				c-0.1-0.4-0.2-0.9-0.3-1.2L185,370.8z M187.7,409.6h-18.4v-1l8.7-26.1l0.5-0.4l9.2,26.5V409.6z"/>
			<path class="st0" d="M218.1,433.9C218.1,433.9,218.1,433.9,218.1,433.9C218.1,433.9,218.1,433.9,218.1,433.9z"/>
			<path class="st0" d="M254.1,424.8l-23,0c-0.5,0-1.3-0.1-1.7-0.3c0,0,0.3,0.3,0,0c0,0-0.1-0.1-0.1-0.1c0,0,0,0,0,0c0,0,0,0,0,0
				c0,0,0,0,0,0c0,0,0,0,0.1,0.1c-0.2-0.3-0.3-1.2-0.3-1.7v-51.9c0-0.6-0.5-1-1-1h-9.1c-0.6,0-1,0.4-1,1v61.2c0,0.5,0.1,1.4,0.2,1.8
				c0.4,0.2,1.3,0.2,1.8,0.2H253c0.5,0,1.3-0.1,1.7-0.3c0.2-0.3,0.3-1.2,0.3-1.7v-6.3C255.1,425.2,254.6,424.8,254.1,424.8z"/>
			<path class="st0" d="M291.1,413.4v-43.6c0-0.6-0.5-1-1-1H281c-0.6,0-1,0.5-1,1c0,0,0,44.1,0,45.6s-0.3,4.3-1.3,6.5
				s-1.1,2.1-2.4,2.8c-1.3,0.7-2.3,0.8-3.9,0.8c-1.5,0-7.1-0.6-7.1-0.6s-0.4,0-0.6,0.4c-0.2,0.4-0.3,0.7-0.4,1.2
				c-0.1,0.6-0.9,5.5-0.9,5.5c-0.1,0.5,0.3,1.1,0.8,1.2c0,0,3.1,0.7,7.2,0.7c4.1,0,7.7-0.9,7.7-0.9s4.7-0.4,9-6.5
				C291.6,420.4,291.1,413.4,291.1,413.4z"/>
			<path class="st0" d="M218.2,434C218.2,434,218.2,434,218.2,434L218.2,434z"/>
			<path class="st0" d="M218.1,433.9C218.1,433.9,218.2,433.9,218.1,433.9C218.2,433.9,218.2,433.9,218.1,433.9z"/>
			<path class="st0" d="M218.1,433.9C218.1,433.8,218,433.8,218.1,433.9L218.1,433.9z"/>
		</g>
		<path id="divider" class="st1" d="M311,331.1l2,68l-2,69l-2-69L311,331.1z"/>
		<g>
			<path class="st2" d="M437.8,373h-4c-0.8,0-1.5,0.7-1.5,1.5v43.6l-33.2-43.9c-0.5-0.7-1.6-1.2-2.4-1.2h-3c-0.8,0-1.5,0.7-1.5,1.5
				v55.2c0,0.8,0.7,1.5,1.5,1.5h4c0.8,0,1.5-0.7,1.5-1.5v-42.6l32.2,42.9c0.5,0.7,1.6,1.2,2.4,1.2h4c0.8,0,1.5-0.7,1.5-1.5v-55.2
				C439.3,373.7,438.6,373,437.8,373z"/>
			<ellipse class="st2" cx="378.6" cy="363" rx="4.5" ry="4"/>
			<path class="st2" d="M380.6,373h-4c-0.8,0-1.5,0.7-1.5,1.5v55.2c0,0.8,0.7,1.5,1.5,1.5h4c0.8,0,1.5-0.7,1.5-1.5v-55.2
				C382.1,373.7,381.5,373,380.6,373z"/>
			<path class="st2" d="M495.5,431.5v-0.9c0,0.1,0,0.2-0.1,0.3C495.4,431.1,495.5,431.3,495.5,431.5z"/>
			<path class="st2" d="M366.1,373H334c-0.5,0-1,0.4-1,1v56.2c0,0,0.1,0.5,0.3,0.7c0.2,0.2,0.7,0.3,0.7,0.3h6c0,0,0.4,0,0.7-0.3
				s0.3-0.7,0.3-0.7v-26.1h21.1c0,0,0.4,0,0.7-0.3c0.3-0.3,0.3-0.7,0.3-0.7v-4c0,0-0.1-0.5-0.3-0.7s-0.7-0.3-0.7-0.3H341v-19.1h24.1
				c0,0,0.3-0.1,0.5-0.3c0.2-0.2,0.5-0.7,0.5-0.7s1-2,1-4c0,0-0.1-0.5-0.3-0.7S366.1,373,366.1,373z"/>
			<path class="st2" d="M584.7,381.1c-0.1,0.1-0.3,0.1-0.5,0.1c-0.1,0.1-0.3,0.2-0.4,0.2L584.7,381.1z"/>
			<path class="st2" d="M588.7,412.2c0-5-7-10-15-14c-8-4-13-6-12.7-12c0.3-6,4.6-7.5,10.7-7.4c6.2,0.1,11.1,2.4,11.1,2.4
				c0.4,0.2,0.9,0.2,1.4,0.1c0.4-0.3,0.7-0.7,0.9-1.1l1.3-3.2c0.2-0.5,0-1.2-0.4-1.5c0,0-3.2-3.4-14.3-3.4s-19.1,6-19.1,14
				c0,11,7,13,16,18.1c9,5,12,7,12,12c0,5-2,8-10.5,9.3c-9.5,0.7-14.7-2.8-14.7-2.8c-0.5-0.3-1-0.1-1.2,0.5l-1.7,5.5
				c-0.2,0.5,0.1,1.1,0.7,1.2c0,0,8.4,2.4,16.4,2.4s15-4,17.5-9C588.9,419.4,589.3,417.2,588.7,412.2z"/>
			<path class="st2" d="M545.1,373h-4c-0.8,0-1.5,0.7-1.5,1.5v43.6l-33.2-43.9c-0.5-0.7-1.6-1.2-2.4-1.2h-3c-0.8,0-1.5,0.7-1.5,1.5
				v55.2c0,0.8,0.7,1.5,1.5,1.5h4c0.8,0,1.5-0.7,1.5-1.5v-42.6l32.2,42.9c0.5,0.7,1.6,1.2,2.4,1.2h4c0.8,0,1.5-0.7,1.5-1.5v-55.2
				C546.6,373.7,545.9,373,545.1,373z"/>
			<path class="st2" d="M443.3,431.5c0-0.2,0-0.4,0.1-0.6c0-0.1-0.1-0.2-0.1-0.3V431.5z"/>
			<path class="st2" d="M473.5,374c-0.2-0.5-0.8-0.9-1.4-0.9H467c-0.5,0-1.2,0.4-1.4,0.9l-21.9,55.7c-0.1,0.3-0.2,0.8-0.3,1.2
				c0.1,0.4,0.5,0.6,0.9,0.6h6c0.5,0,1.2-0.4,1.3-0.9l6-16.4h22.8l5.7,16.4c0.2,0.5,0.8,0.9,1.3,0.9h7c0.4,0,0.8-0.3,0.9-0.6
				c-0.1-0.4-0.2-0.9-0.3-1.2L473.5,374z M459.8,408.2l9.3-25.2l9,25.2H459.8z"/>
		</g>
		<path id="logo-shape" sketch:type="MSShapeGroup" class="st3" d="M61.8,426.3v-26.5c0-0.4,0.1-0.6,0.4-0.7
			c0.2-0.2,0.5-0.2,0.8-0.1c12.5,4.5,25.4,8.8,38.1,13.3c0.6,0.2,0.9,0.7,1.1,1.3c0.1,0.6-0.1,1.2-0.6,1.5
			c-10.2,7.5-20.2,15-30.4,22.5c-0.7,0.5-1.1,1.3-1.1,2.1v7.2h23.3c2.7,0,4-3,5.3-6.6c2.7-8.4,5.6-16.8,8.3-25.1
			c0.1-0.2,0.2-0.4,0.5-0.5c0.2-0.1,0.5-0.1,0.7,0c1.8,0.6,3.7,1.2,5.4,1.9c0.5,0.1,0.7,0.7,0.6,1.2c-3.4,10.3-6.9,20.7-10.3,31
			c-1.1,3-3.3,5.2-7.7,5.2H64c-0.9,0-1.7-0.7-1.7-1.7v-15.1c0-1.5,0.7-3,2-3.9c7.7-5.7,15.3-11.2,22.8-16.9c0.1-0.1,0.2-0.4,0.2-0.5
			c0-0.2-0.1-0.4-0.4-0.5c-5.8-2-12-3.8-17.6-5.8v12.3c-2.2,1.7-4.5,3.3-6.7,5c-0.1,0.1-0.4,0.1-0.6,0
			C61.8,426.7,61.8,426.4,61.8,426.3z M78.8,439.3l16.6-12.5c0.2-0.2,0.6-0.2,0.8,0c0.2,0.2,0.4,0.5,0.2,0.8l-4.3,13H79.3
			c-0.4,0-0.6-0.2-0.7-0.5C78.5,439.8,78.6,439.6,78.8,439.3z M89.6,403.5c-8.4-2.7-16.8-5.4-25.2-8.3c-0.2-0.1-0.5-0.2-0.6-0.6
			c-0.1-0.2,0-0.6,0.1-0.8c8.2-10.5,16.2-21.5,24.4-32.1c0.4-0.5,0.9-0.7,1.5-0.6c0.6,0.1,1.1,0.5,1.3,1.1c4,12,7.9,23.9,12,35.9
			c0.2,0.8,0.8,1.4,1.8,1.7c2.2,0.7,4.6,1.5,6.9,2.2c2.6-7.9,4.6-14.3,7.2-22.1c0.8-2.6-1.5-4.7-4.7-7.1
			c-7.1-5.2-14.2-10.4-21.3-15.7c-0.2-0.1-0.4-0.4-0.4-0.6c0-0.2,0-0.5,0.2-0.7c1.2-1.5,2.2-3.1,3.4-4.6c0.2-0.4,0.8-0.5,1.2-0.2
			c8.8,6.5,17.5,12.9,26.3,19.4c2.5,1.9,3.9,4.7,2.5,8.9c-3.3,10.2-6.6,20.5-9.9,30.6c-0.2,0.8-1.2,1.3-2,1.1
			c-5-1.7-9.5-3.1-14.4-4.7c-1.5-0.5-2.6-1.5-3.1-3.1c-3-9-6-18-9-27c-0.1-0.2-0.2-0.4-0.5-0.4c-0.2,0-0.4,0-0.5,0.2
			c-3.8,4.9-7.3,10.2-11,15c3.9,1.3,7.8,2.6,11.7,3.8c0.8,2.6,1.8,5.3,2.6,7.9c0.1,0.2,0,0.4-0.1,0.6
			C90.1,403.5,89.8,403.5,89.6,403.5z M107.4,391.2l-6.7-19.5c-0.1-0.4,0-0.6,0.2-0.8c0.2-0.2,0.6-0.2,0.8,0l11,8l-4,12.3
			c-0.1,0.4-0.4,0.5-0.7,0.5C107.7,391.6,107.5,391.5,107.4,391.2z M76.6,369.9c-5.2,7.1-10.4,14.2-15.6,21.4
			c-0.2,0.2-0.5,0.4-0.7,0.4c-0.2,0-0.6-0.1-0.7-0.4c-7.5-11-15.4-22.1-23-33.1c-0.4-0.5-0.4-1.1-0.1-1.7s0.8-0.8,1.4-0.8
			c12.7-0.1,25.2-0.1,37.9-0.2c0.8,0,1.7-0.4,2.1-1.1c1.4-2,2.8-3.9,4.3-5.9c-6.6-4.9-12.2-8.9-18.8-13.7c-2.2-1.7-5,0-8.2,2.2
			c-7.2,5.1-14.3,10.3-21.5,15.4c-0.2,0.1-0.4,0.2-0.7,0.1c-0.2,0-0.5-0.1-0.6-0.4c-1.1-1.5-2.2-3.2-3.3-4.7
			c-0.2-0.4-0.2-0.9,0.2-1.3c8.8-6.4,17.6-12.8,26.5-19.1c2.6-1.8,5.7-2.2,9.2,0.4c8.6,6.3,17.4,12.7,26,18.9
			c0.7,0.5,0.8,1.5,0.4,2.2c-3.1,4.3-5.9,8-8.9,12.2c-0.9,1.3-2.2,2-3.9,2c-9.5,0-18.9,0.1-28.5,0.2c-0.2,0-0.4,0.1-0.5,0.2
			c-0.1,0.2-0.1,0.4,0,0.6c3.4,5.1,7.5,10.1,10.8,15.1c2.5-3.3,4.9-6.6,7.3-9.9h8.4c0.2,0,0.4,0.1,0.5,0.2
			C76.7,369.5,76.7,369.6,76.6,369.9z M40.6,371.9c5.1,7.1,10.3,14.3,15.4,21.4c0.2,0.2,0.2,0.6,0.1,0.8c-0.1,0.2-0.4,0.5-0.6,0.6
			c-12.9,3.7-25.8,7.8-38.7,11.5c-0.6,0.1-1.2,0-1.7-0.5c-0.5-0.5-0.6-1.1-0.4-1.7c4-12,7.8-23.9,11.6-36c0.2-0.8,0.1-1.7-0.4-2.4
			c-1.4-2-2.8-3.9-4.3-5.9c-6.7,4.9-12.2,8.8-18.9,13.6c-2.2,1.5-1.5,4.7-0.4,8.5c2.6,8.4,5.3,16.8,7.9,25.2c0.1,0.2,0,0.5-0.1,0.7
			c-0.1,0.2-0.2,0.4-0.5,0.5c-1.9,0.6-3.7,1.2-5.6,1.7c-0.5,0.1-0.9-0.1-1.2-0.6c-3.3-10.4-6.5-20.8-9.8-31.1c-0.7-3-0.2-6,3.3-8.6
			c8.8-6.3,17.4-12.5,26.2-18.8c0.7-0.5,1.8-0.4,2.2,0.4c3.1,4.3,5.8,8,8.9,12.3c0.9,1.3,1.2,2.8,0.7,4.3c-2.8,9-5.8,18.1-8.6,27.1
			c0,0.2,0,0.4,0.1,0.6c0.1,0.1,0.4,0.2,0.6,0.1c5.9-1.8,12-3.9,17.7-5.6c-2.4-3.3-4.9-6.6-7.2-10.1c0.8-2.6,1.7-5.3,2.6-8
			c0-0.2,0.2-0.4,0.5-0.4C40.3,371.5,40.5,371.6,40.6,371.9z M19.1,371.3L13,391c-0.1,0.4-0.4,0.5-0.7,0.5s-0.6-0.2-0.7-0.5l-4.1-13
			l10.5-7.6c0.2-0.2,0.6-0.2,0.8,0C19.1,370.6,19.1,370.9,19.1,371.3z M31.3,406.7c8.4-2.7,16.8-5.3,25.2-8c0.2-0.1,0.6,0,0.8,0.1
			c0.2,0.2,0.4,0.5,0.4,0.7c-0.5,13.4-0.6,27-1.1,40.4c0,0.6-0.4,1.1-0.9,1.4c-0.6,0.2-1.2,0.2-1.7-0.1
			c-10.2-7.3-20.5-14.8-30.6-22.1c-0.7-0.5-1.5-0.6-2.4-0.4c-2.4,0.7-4.6,1.4-6.9,2.2c2.5,7.9,4.6,14.3,7.1,22.2c0.8,2.6,4,3,7.9,3
			c8.9,0.1,17.6,0.2,26.5,0.2c0.2,0,0.5,0.1,0.6,0.2c0.2,0.2,0.2,0.4,0.2,0.6c0,1.9-0.1,3.9-0.1,5.8c0,0.5-0.4,0.8-0.9,0.8
			c-10.9-0.1-21.8-0.2-32.7-0.4c-3.1,0-5.9-1.5-7.2-5.7c-3.3-10.2-6.5-20.5-9.8-30.6c-0.2-0.8,0.2-1.8,1.1-2c5-1.5,9.5-3.1,14.4-4.6
			c1.5-0.5,3.1-0.2,4.3,0.7c7.7,5.6,15.4,11.1,23.1,16.7c0.1,0.1,0.4,0.1,0.6,0c0.2-0.1,0.2-0.2,0.4-0.5c0.2-6.2,0-12.5,0.2-18.6
			c-3.9,1.3-7.8,2.5-11.7,3.8c-2.2-1.7-4.5-3.3-6.9-4.9c-0.1-0.2-0.2-0.5-0.2-0.6C31,406.9,31.1,406.8,31.3,406.7z M24,426.9
			l16.9,12c0.2,0.2,0.4,0.5,0.2,0.8c-0.1,0.2-0.4,0.5-0.7,0.5L26.9,440l-4-12.3c-0.1-0.4,0-0.6,0.2-0.8
			C23.5,426.8,23.8,426.8,24,426.9z M70.4,349.2l-20.7,0.4c-0.4,0-0.6-0.2-0.7-0.5c-0.1-0.4,0-0.6,0.2-0.8l11.1-7.9l10.5,7.6
			c0.2,0.2,0.4,0.5,0.2,0.8C71,349,70.8,349.2,70.4,349.2z"/>
	</g>
</svg>
