<svg width="596" height="143" viewBox="0 0 596 143" xmlns="http://www.w3.org/2000/svg"><title>logo</title><g fill="none" fill-rule="evenodd"><path d="M180.11 45.79c.193-.522.804-.944 1.346-.944h9.228c.55 0 1.16.42 1.356.93l23.76 61.38c.2.513.36 1.368.36 1.938v-.997c0 .557-.45 1.01-1.002 1.01h-10.236c-.554 0-1.16-.42-1.353-.937l-5.77-15.384h-24.48l-4.804 15.372c-.163.523-.75.948-1.292.948h-9.228c-.55 0-.996-.44-.996-1.01v.998c0-.557.156-1.43.35-1.95l22.76-61.355zm5.45 11.296l9.18 26.52v1.02h-18.36v-1.02l8.67-26.112.51-.408zm39.372-11.247c0-.55.45-.994 1.006-.994h9.106c.555 0 1.006.45 1.006 1.005v51.903c0 .555.11 1.442.306 1.73 0 0-.3-.304 0 0 .394.172 1.17.31 1.71.31h23c.548 0 .994.445.994.998v6.28c0 .552-.11 1.423-.318 1.725 0 0 .3-.302 0 0-.394.172-1.157.31-1.706.31h-33.08c-.548 0-1.43-.045-1.812-.207 0 0 .2.2 0 0-.117-.457-.212-1.284-.212-1.822V45.84zm62.016 44.626V44.83c0-.554.45-1.004 1.006-1.004h9.106c.555 0 1.006.44 1.006.993v43.573s.55 7.045-2.918 13.165c-4.386 6.12-9.04 6.528-9.04 6.528s-3.648.918-7.728.918-7.188-.724-7.188-.724c-.537-.107-.905-.645-.824-1.188 0 0 .735-4.966.872-5.534.137-.568.158-.825.408-1.224.25-.4.612-.408.612-.408s5.605.627 7.14.612c1.535-.016 2.602-.06 3.863-.783 1.26-.724 1.29-.56 2.36-2.787 1.067-2.227 1.325-4.93 1.325-6.502z" fill="#717075"/><path d="M318 6.106l2 68-2 69-2-69 2-68z" fill="#049EAE"/><path d="M340 49.033c0-.548.443-.992.99-.992h32.106s.494.094.702.3c.207.21.3.703.3.703 0 2.006-1.002 4.012-1.002 4.012s-.276.476-.502.702c-.226.226-.5.3-.5.3h-24.07v19.056h21.06s.495.094.702.3c.207.208.3.703.3.703v4.01s-.006.41-.3.703c-.294.294-.702.3-.702.3h-21.06v26.076s-.007.407-.302.702c-.294.294-.702.3-.702.3h-6.017s-.495-.093-.702-.3c-.206-.208-.3-.702-.3-.702V49.033zm42.122.504c0-.827.673-1.496 1.506-1.496h4.008c.832 0 1.506.674 1.506 1.497v55.175c0 .827-.673 1.497-1.506 1.497h-4.008c-.832 0-1.506-.675-1.506-1.498V49.537zm3.51-7.514c2.492 0 4.513-1.796 4.513-4.01 0-2.217-2.02-4.013-4.513-4.013s-4.513 1.796-4.513 4.012c0 2.215 2.02 4.01 4.512 4.01zm13.54 7.514c0-.827.666-1.496 1.502-1.496h3.01c.83 0 1.91.54 2.408 1.196l33.195 43.935V49.543c0-.83.673-1.5 1.506-1.5h4.008c.833 0 1.507.672 1.507 1.495v55.175c0 .827-.673 1.497-1.506 1.497h-4.007c-.832 0-1.913-.543-2.41-1.205L406.192 62.08v42.635c0 .825-.672 1.494-1.505 1.494h-4.008c-.832 0-1.506-.675-1.506-1.498V49.537zm73.447-.57c.2-.51.81-.926 1.354-.926h5.14c.547 0 1.152.415 1.35.928l21.645 55.686c.198.512.36 1.37.36 1.855v-.93c0 .514-.448.93-1 .93h-7.026c-.553 0-1.15-.43-1.33-.946l-5.688-16.405H464.66l-5.978 16.417c-.188.515-.795.932-1.34.932h-6.023c-.554 0-1-.443-1-.93v.93c0-.513.162-1.343.364-1.856l21.935-55.686zm3.473 9.103l9.026 25.163h-18.354l9.327-25.163zm30.388-8.533c0-.827.668-1.496 1.504-1.496h3.01c.83 0 1.91.54 2.408 1.196l33.195 43.935V49.543c0-.83.673-1.5 1.506-1.5h4.008c.833 0 1.507.672 1.507 1.495v55.175c0 .827-.673 1.497-1.506 1.497h-4.007c-.832 0-1.913-.543-2.41-1.205L513.502 62.08v42.635c0 .825-.672 1.494-1.505 1.494h-4.008c-.832 0-1.506-.675-1.506-1.498V49.537zm86.48.903c.427.336.61 1.02.405 1.53l-1.27 3.174c-.203.508-.776 1.083-1.305 1.295l.87-.35c-.516.207-1.344.195-1.86-.018 0 0-4.94-2.344-11.11-2.415-6.17-.072-10.43 1.404-10.732 7.42-.3 6.02 4.714 8.024 12.737 12.036 8.023 4.012 15.044 9.026 15.044 14.04.6 5.015.202 7.266-1.606 11.032-2.407 5.015-9.427 9.026-17.45 9.026-8.024 0-16.38-2.35-16.38-2.35-.536-.142-.84-.676-.674-1.21l1.713-5.512c.164-.528.687-.72 1.164-.455 0 0 5.15 3.51 14.678 2.81 8.525-1.305 10.53-4.313 10.53-9.328 0-5.014-3.008-7.02-12.034-12.035-9.025-5.014-16.046-7.02-16.046-18.052 0-8.023 8.024-14.04 19.055-14.04 11.03 0 14.27 3.402 14.27 3.402z" fill="#959499"/><path d="M68.794 101.31V74.806c0-.355.118-.59.355-.71.235-.236.472-.236.827-.118 12.543 4.496 25.44 8.756 38.102 13.253.59.236.946.71 1.064 1.3.118.593-.118 1.185-.592 1.54-10.176 7.454-20.234 15.027-30.41 22.482-.71.474-1.065 1.302-1.065 2.13v7.218h23.31c2.722 0 4.024-2.958 5.325-6.626 2.722-8.402 5.562-16.803 8.284-25.086.118-.237.236-.355.473-.473.236-.12.472-.12.71 0 1.774.59 3.667 1.183 5.442 1.893.473.118.71.71.592 1.183-3.432 10.296-6.863 20.71-10.295 31.004-1.066 2.958-3.314 5.206-7.692 5.206H71.042c-.947 0-1.657-.71-1.657-1.657v-15.146c0-1.538.71-2.958 2.012-3.905 7.69-5.68 15.264-11.24 22.838-16.92.118-.12.236-.356.236-.474 0-.237-.117-.355-.354-.473-5.798-2.012-11.95-3.787-17.63-5.8v12.308c-2.25 1.656-4.497 3.313-6.746 4.97-.118.118-.355.118-.59 0-.356-.237-.356-.474-.356-.592zm17.04 13.017l16.565-12.543c.236-.236.59-.236.828 0 .236.237.355.474.236.83l-4.26 13.015H86.306c-.355 0-.59-.238-.71-.475-.118-.355 0-.59.237-.828zM96.6 78.473c-8.4-2.72-16.802-5.443-25.203-8.283-.237-.118-.473-.236-.592-.59-.118-.238 0-.593.12-.83 8.163-10.53 16.21-21.536 24.375-32.067.354-.473.946-.71 1.538-.592.59.12 1.065.475 1.3 1.066 4.025 11.952 7.93 23.903 11.953 35.854.237.83.83 1.42 1.776 1.657 2.248.71 4.614 1.538 6.863 2.248 2.602-7.928 4.614-14.318 7.217-22.128.828-2.603-1.538-4.733-4.733-7.1-7.1-5.206-14.2-10.412-21.3-15.737-.236-.118-.355-.355-.355-.592 0-.236 0-.473.236-.71 1.183-1.538 2.248-3.076 3.432-4.615.236-.355.828-.473 1.183-.236 8.757 6.508 17.514 12.898 26.27 19.406 2.485 1.893 3.905 4.733 2.485 8.875-3.313 10.176-6.627 20.47-9.94 30.647-.236.828-1.183 1.3-2.01 1.065-4.97-1.657-9.468-3.077-14.438-4.733-1.538-.474-2.603-1.54-3.076-3.077-2.957-8.993-6.034-17.986-8.992-26.98-.118-.236-.237-.354-.473-.354-.237 0-.355 0-.474.237-3.785 4.85-7.335 10.176-11.003 15.027 3.904 1.302 7.81 2.604 11.714 3.787.83 2.603 1.776 5.325 2.604 7.928.12.237 0 .355-.118.592.118.236-.118.236-.355.236zm17.75-12.306l-6.744-19.524c-.12-.355 0-.592.236-.83.237-.235.592-.235.83 0l11.003 8.048-4.023 12.307c-.118.355-.355.473-.71.473-.236 0-.473-.118-.59-.473zm-30.765-21.3c-5.207 7.1-10.413 14.2-15.62 21.418-.236.237-.473.355-.71.355-.236 0-.59-.118-.71-.355C59.09 55.28 51.163 44.158 43.59 33.153c-.355-.473-.355-1.065-.12-1.656.238-.592.83-.83 1.42-.83 12.662-.117 25.205-.117 37.867-.235.828 0 1.656-.355 2.13-1.065 1.42-2.012 2.84-3.905 4.26-5.917-6.627-4.85-12.19-8.874-18.815-13.726-2.248-1.657-4.97 0-8.165 2.248C54.95 17.06 47.85 22.267 40.63 27.355c-.235.118-.354.237-.71.118-.235 0-.472-.118-.59-.355-1.065-1.538-2.25-3.194-3.314-4.733-.236-.355-.236-.946.237-1.3 8.757-6.39 17.63-12.78 26.506-19.052 2.602-1.775 5.68-2.25 9.23.355 8.637 6.27 17.393 12.66 26.03 18.932.71.474.83 1.54.356 2.25-3.076 4.258-5.916 8.045-8.875 12.186-.945 1.302-2.247 2.012-3.904 2.012-9.466 0-18.932.118-28.517.237-.238 0-.356.118-.474.236-.12.238-.12.356 0 .593 3.43 5.088 7.455 10.058 10.768 15.146 2.485-3.314 4.85-6.627 7.336-9.94h8.402c.236 0 .355.118.473.236.118.237.118.355 0 .592zM47.613 46.88c5.088 7.1 10.294 14.317 15.383 21.417.236.237.236.592.118.828-.118.237-.355.474-.592.592-12.898 3.668-25.796 7.81-38.693 11.478-.593.118-1.185 0-1.658-.473-.473-.474-.592-1.065-.355-1.657 4.023-11.95 7.81-23.903 11.596-35.972.237-.828.12-1.657-.355-2.367-1.42-2.01-2.84-3.905-4.26-5.916-6.744 4.85-12.188 8.756-18.932 13.608-2.25 1.538-1.54 4.733-.355 8.52 2.604 8.4 5.326 16.802 7.93 25.204.117.236 0 .473-.12.71-.118.236-.236.355-.473.473-1.893.592-3.668 1.183-5.56 1.656-.475.12-.948-.117-1.185-.59C6.79 73.977 3.594 63.564.282 53.27c-.71-2.96-.238-6.036 3.312-8.64 8.757-6.27 17.395-12.542 26.15-18.813.71-.474 1.776-.355 2.25.355 3.076 4.26 5.797 8.046 8.874 12.306.947 1.302 1.183 2.84.71 4.26-2.84 8.993-5.798 18.104-8.638 27.097 0 .237 0 .355.118.592.12.118.355.237.592.118 5.916-1.775 11.95-3.905 17.75-5.56-2.367-3.314-4.852-6.628-7.22-10.06.83-2.602 1.658-5.324 2.604-8.046 0-.237.237-.356.474-.356 0 0 .236.12.355.355zm-21.536-.592l-6.035 19.76c-.118.356-.355.474-.71.474s-.592-.237-.71-.473l-4.14-13.017 10.53-7.574c.237-.237.592-.237.828 0 .237.118.237.473.237.828zm12.188 35.38c8.4-2.72 16.803-5.325 25.204-8.046.236-.118.59 0 .827.118.237.237.355.474.355.71-.473 13.37-.59 26.98-1.065 40.35 0 .592-.355 1.065-.946 1.42-.59.237-1.183.237-1.656-.118-10.176-7.336-20.47-14.79-30.647-22.127-.71-.474-1.54-.592-2.367-.355-2.366.71-4.615 1.42-6.863 2.248 2.485 7.928 4.615 14.318 7.1 22.246.828 2.603 4.023 2.958 7.928 2.958 8.875.118 17.63.237 26.506.237.237 0 .474.117.592.235.237.237.237.355.237.592 0 1.893-.12 3.905-.12 5.798 0 .473-.354.828-.946.828l-32.66-.355c-3.076 0-5.915-1.538-7.217-5.68-3.313-10.176-6.508-20.47-9.82-30.647-.238-.827.235-1.774 1.064-2.01 4.97-1.54 9.467-3.077 14.437-4.615 1.538-.474 3.076-.237 4.26.71L55.54 102.85c.12.118.356.118.592 0 .237-.12.237-.237.355-.474.237-6.153 0-12.543.237-18.578-3.905 1.302-7.81 2.485-11.714 3.787-2.25-1.657-4.497-3.313-6.864-4.852-.118-.236-.236-.473-.236-.59.118-.238.236-.356.355-.475zm-7.218 20.235l16.92 11.95c.237.238.356.474.237.83-.118.236-.355.472-.71.472l-13.607-.118-4.024-12.306c-.118-.354 0-.59.237-.827.355-.12.71-.12.947 0zM77.432 24.16l-20.708.355c-.355 0-.592-.236-.71-.473-.118-.355 0-.592.237-.828l11.124-7.93 10.53 7.575c.238.235.356.472.238.827-.12.355-.355.473-.71.473z" fill="#56A6B9"/></g></svg>