<svg id="Layer_1" xmlns="http://www.w3.org/2000/svg" viewBox="-7 325 596 143"><style>.st0{fill:#717075;} .st1{fill:#009aa6;} .st2{fill:#959499;} .st3{fill:#009aa6;}</style><title>logo</title><g id="logo"><path class="st0" d="M254.8 433.7c.1 0 .1 0 0 0zM254.7 433.8s.1-.1 0 0c.1-.1.1-.1 0 0zM254.7 433.8c-.3.3 0 0 0 0zM150 434.1c0-.2 0-.4.1-.7 0-.1-.1-.2-.1-.3v1zM209.2 434.1v-1c0 .1 0 .2-.1.3 0 .2.1.5.1.7z"/><path class="st0" d="M185 370.8c-.2-.5-.8-.9-1.4-.9h-9.2c-.5 0-1.2.4-1.3.9l-22.8 61.4c-.1.3-.2.8-.3 1.3.1.4.5.7.9.7h9.2c.5 0 1.1-.4 1.3-.9l4.8-15.4h24.5l5.8 15.4c.2.5.8.9 1.4.9h10.2c.4 0 .8-.3.9-.7-.1-.4-.2-.9-.3-1.2L185 370.8zm2.7 38.8h-18.4v-1l8.7-26.1.5-.4 9.2 26.5v1zM218.1 433.9zM254.1 424.8h-23c-.5 0-1.3-.1-1.7-.3 0 0 .3.3 0 0l-.1-.1.1.1c-.2-.3-.3-1.2-.3-1.7v-51.9c0-.6-.5-1-1-1H219c-.6 0-1 .4-1 1v61.2c0 .5.1 1.4.2 1.8.4.2 1.3.2 1.8.2h33c.5 0 1.3-.1 1.7-.3.2-.3.3-1.2.3-1.7v-6.3c.1-.6-.4-1-.9-1zM291.1 413.4v-43.6c0-.6-.5-1-1-1H281c-.6 0-1 .5-1 1v45.6s-.3 4.3-1.3 6.5-1.1 2.1-2.4 2.8c-1.3.7-2.3.8-3.9.8-1.5 0-7.1-.6-7.1-.6s-.4 0-.6.4c-.2.4-.3.7-.4 1.2-.1.6-.9 5.5-.9 5.5-.1.5.3 1.1.8 1.2 0 0 3.1.7 7.2.7s7.7-.9 7.7-.9 4.7-.4 9-6.5c3.5-6.1 3-13.1 3-13.1zM218.2 434zM218.1 433.9s.1 0 0 0c.1 0 .1 0 0 0zM218.1 433.9c0-.1-.1-.1 0 0z"/><path id="divider" class="st1" d="M311 331.1l2 68-2 69-2-69 2-68z"/><g><path class="st2" d="M437.8 373h-4c-.8 0-1.5.7-1.5 1.5v43.6l-33.2-43.9c-.5-.7-1.6-1.2-2.4-1.2h-3c-.8 0-1.5.7-1.5 1.5v55.2c0 .8.7 1.5 1.5 1.5h4c.8 0 1.5-.7 1.5-1.5v-42.6l32.2 42.9c.5.7 1.6 1.2 2.4 1.2h4c.8 0 1.5-.7 1.5-1.5v-55.2c0-.8-.7-1.5-1.5-1.5z"/><ellipse class="st2" cx="378.6" cy="363" rx="4.5" ry="4"/><path class="st2" d="M380.6 373h-4c-.8 0-1.5.7-1.5 1.5v55.2c0 .8.7 1.5 1.5 1.5h4c.8 0 1.5-.7 1.5-1.5v-55.2c0-.8-.6-1.5-1.5-1.5zM495.5 431.5v-.9c0 .1 0 .2-.1.3 0 .2.1.4.1.6zM366.1 373H334c-.5 0-1 .4-1 1v56.2s.1.5.3.7c.2.2.7.3.7.3h6s.4 0 .7-.3.3-.7.3-.7v-26.1h21.1s.4 0 .7-.3c.3-.3.3-.7.3-.7v-4s-.1-.5-.3-.7-.7-.3-.7-.3H341V379h24.1s.3-.1.5-.3c.2-.2.5-.7.5-.7s1-2 1-4c0 0-.1-.5-.3-.7s-.7-.3-.7-.3zM584.7 381.1c-.1.1-.3.1-.5.1-.1.1-.3.2-.4.2l.9-.3z"/><path class="st2" d="M588.7 412.2c0-5-7-10-15-14s-13-6-12.7-12c.3-6 4.6-7.5 10.7-7.4 6.2.1 11.1 2.4 11.1 2.4.4.2.9.2 1.4.1.4-.3.7-.7.9-1.1l1.3-3.2c.2-.5 0-1.2-.4-1.5 0 0-3.2-3.4-14.3-3.4s-19.1 6-19.1 14c0 11 7 13 16 18.1 9 5 12 7 12 12s-2 8-10.5 9.3c-9.5.7-14.7-2.8-14.7-2.8-.5-.3-1-.1-1.2.5l-1.7 5.5c-.2.5.1 1.1.7 1.2 0 0 8.4 2.4 16.4 2.4s15-4 17.5-9c1.8-3.9 2.2-6.1 1.6-11.1zM545.1 373h-4c-.8 0-1.5.7-1.5 1.5v43.6l-33.2-43.9c-.5-.7-1.6-1.2-2.4-1.2h-3c-.8 0-1.5.7-1.5 1.5v55.2c0 .8.7 1.5 1.5 1.5h4c.8 0 1.5-.7 1.5-1.5v-42.6l32.2 42.9c.5.7 1.6 1.2 2.4 1.2h4c.8 0 1.5-.7 1.5-1.5v-55.2c0-.8-.7-1.5-1.5-1.5zM443.3 431.5c0-.2 0-.4.1-.6 0-.1-.1-.2-.1-.3v.9zM473.5 374c-.2-.5-.8-.9-1.4-.9H467c-.5 0-1.2.4-1.4.9l-21.9 55.7c-.1.3-.2.8-.3 1.2.1.4.5.6.9.6h6c.5 0 1.2-.4 1.3-.9l6-16.4h22.8l5.7 16.4c.2.5.8.9 1.3.9h7c.4 0 .8-.3.9-.6-.1-.4-.2-.9-.3-1.2L473.5 374zm-13.7 34.2l9.3-25.2 9 25.2h-18.3z"/></g><path id="logo-shape" class="st3" d="M61.8 426.3v-26.5c0-.4.1-.6.4-.7.2-.2.5-.2.8-.1 12.5 4.5 25.4 8.8 38.1 13.3.6.2.9.7 1.1 1.3.1.6-.1 1.2-.6 1.5-10.2 7.5-20.2 15-30.4 22.5-.7.5-1.1 1.3-1.1 2.1v7.2h23.3c2.7 0 4-3 5.3-6.6 2.7-8.4 5.6-16.8 8.3-25.1.1-.2.2-.4.5-.5.2-.1.5-.1.7 0 1.8.6 3.7 1.2 5.4 1.9.5.1.7.7.6 1.2-3.4 10.3-6.9 20.7-10.3 31-1.1 3-3.3 5.2-7.7 5.2H64c-.9 0-1.7-.7-1.7-1.7v-15.1c0-1.5.7-3 2-3.9 7.7-5.7 15.3-11.2 22.8-16.9.1-.1.2-.4.2-.5 0-.2-.1-.4-.4-.5-5.8-2-12-3.8-17.6-5.8v12.3c-2.2 1.7-4.5 3.3-6.7 5-.1.1-.4.1-.6 0-.2-.2-.2-.5-.2-.6zm17 13l16.6-12.5c.2-.2.6-.2.8 0 .2.2.4.5.2.8l-4.3 13H79.3c-.4 0-.6-.2-.7-.5-.1-.3 0-.5.2-.8zm10.8-35.8c-8.4-2.7-16.8-5.4-25.2-8.3-.2-.1-.5-.2-.6-.6-.1-.2 0-.6.1-.8 8.2-10.5 16.2-21.5 24.4-32.1.4-.5.9-.7 1.5-.6.6.1 1.1.5 1.3 1.1 4 12 7.9 23.9 12 35.9.2.8.8 1.4 1.8 1.7 2.2.7 4.6 1.5 6.9 2.2 2.6-7.9 4.6-14.3 7.2-22.1.8-2.6-1.5-4.7-4.7-7.1-7.1-5.2-14.2-10.4-21.3-15.7-.2-.1-.4-.4-.4-.6 0-.2 0-.5.2-.7 1.2-1.5 2.2-3.1 3.4-4.6.2-.4.8-.5 1.2-.2 8.8 6.5 17.5 12.9 26.3 19.4 2.5 1.9 3.9 4.7 2.5 8.9-3.3 10.2-6.6 20.5-9.9 30.6-.2.8-1.2 1.3-2 1.1-5-1.7-9.5-3.1-14.4-4.7-1.5-.5-2.6-1.5-3.1-3.1l-9-27c-.1-.2-.2-.4-.5-.4-.2 0-.4 0-.5.2-3.8 4.9-7.3 10.2-11 15 3.9 1.3 7.8 2.6 11.7 3.8.8 2.6 1.8 5.3 2.6 7.9.1.2 0 .4-.1.6.1.2-.2.2-.4.2zm17.8-12.3l-6.7-19.5c-.1-.4 0-.6.2-.8.2-.2.6-.2.8 0l11 8-4 12.3c-.1.4-.4.5-.7.5-.3-.1-.5-.2-.6-.5zm-30.8-21.3c-5.2 7.1-10.4 14.2-15.6 21.4-.2.2-.5.4-.7.4-.2 0-.6-.1-.7-.4-7.5-11-15.4-22.1-23-33.1-.4-.5-.4-1.1-.1-1.7s.8-.8 1.4-.8c12.7-.1 25.2-.1 37.9-.2.8 0 1.7-.4 2.1-1.1 1.4-2 2.8-3.9 4.3-5.9-6.6-4.9-12.2-8.9-18.8-13.7-2.2-1.7-5 0-8.2 2.2-7.2 5.1-14.3 10.3-21.5 15.4-.2.1-.4.2-.7.1-.2 0-.5-.1-.6-.4-1.1-1.5-2.2-3.2-3.3-4.7-.2-.4-.2-.9.2-1.3 8.8-6.4 17.6-12.8 26.5-19.1 2.6-1.8 5.7-2.2 9.2.4 8.6 6.3 17.4 12.7 26 18.9.7.5.8 1.5.4 2.2-3.1 4.3-5.9 8-8.9 12.2-.9 1.3-2.2 2-3.9 2-9.5 0-18.9.1-28.5.2-.2 0-.4.1-.5.2-.1.2-.1.4 0 .6 3.4 5.1 7.5 10.1 10.8 15.1 2.5-3.3 4.9-6.6 7.3-9.9h8.4c.2 0 .4.1.5.2.1.4.1.5 0 .8zm-36 2c5.1 7.1 10.3 14.3 15.4 21.4.2.2.2.6.1.8-.1.2-.4.5-.6.6-12.9 3.7-25.8 7.8-38.7 11.5-.6.1-1.2 0-1.7-.5s-.6-1.1-.4-1.7c4-12 7.8-23.9 11.6-36 .2-.8.1-1.7-.4-2.4-1.4-2-2.8-3.9-4.3-5.9-6.7 4.9-12.2 8.8-18.9 13.6-2.2 1.5-1.5 4.7-.4 8.5 2.6 8.4 5.3 16.8 7.9 25.2.1.2 0 .5-.1.7-.1.2-.2.4-.5.5-1.9.6-3.7 1.2-5.6 1.7-.5.1-.9-.1-1.2-.6-3.3-10.4-6.5-20.8-9.8-31.1-.7-3-.2-6 3.3-8.6 8.8-6.3 17.4-12.5 26.2-18.8.7-.5 1.8-.4 2.2.4 3.1 4.3 5.8 8 8.9 12.3.9 1.3 1.2 2.8.7 4.3-2.8 9-5.8 18.1-8.6 27.1 0 .2 0 .4.1.6.1.1.4.2.6.1 5.9-1.8 12-3.9 17.7-5.6-2.4-3.3-4.9-6.6-7.2-10.1.8-2.6 1.7-5.3 2.6-8 0-.2.2-.4.5-.4s.5.1.6.4zm-21.5-.6L13 391c-.1.4-.4.5-.7.5s-.6-.2-.7-.5l-4.1-13 10.5-7.6c.2-.2.6-.2.8 0 .3.2.3.5.3.9zm12.2 35.4c8.4-2.7 16.8-5.3 25.2-8 .2-.1.6 0 .8.1.2.2.4.5.4.7-.5 13.4-.6 27-1.1 40.4 0 .6-.4 1.1-.9 1.4-.6.2-1.2.2-1.7-.1-10.2-7.3-20.5-14.8-30.6-22.1-.7-.5-1.5-.6-2.4-.4-2.4.7-4.6 1.4-6.9 2.2 2.5 7.9 4.6 14.3 7.1 22.2.8 2.6 4 3 7.9 3 8.9.1 17.6.2 26.5.2.2 0 .5.1.6.2.2.2.2.4.2.6 0 1.9-.1 3.9-.1 5.8 0 .5-.4.8-.9.8-10.9-.1-21.8-.2-32.7-.4-3.1 0-5.9-1.5-7.2-5.7-3.3-10.2-6.5-20.5-9.8-30.6-.2-.8.2-1.8 1.1-2 5-1.5 9.5-3.1 14.4-4.6 1.5-.5 3.1-.2 4.3.7 7.7 5.6 15.4 11.1 23.1 16.7.1.1.4.1.6 0 .2-.1.2-.2.4-.5.2-6.2 0-12.5.2-18.6-3.9 1.3-7.8 2.5-11.7 3.8-2.2-1.7-4.5-3.3-6.9-4.9-.1-.2-.2-.5-.2-.6 0-.1.1-.2.3-.3zM24 426.9l16.9 12c.2.2.4.5.2.8-.1.2-.4.5-.7.5l-13.5-.2-4-12.3c-.1-.4 0-.6.2-.8.4-.1.7-.1.9 0zm46.4-77.7l-20.7.4c-.4 0-.6-.2-.7-.5-.1-.4 0-.6.2-.8l11.1-7.9 10.5 7.6c.2.2.4.5.2.8 0 .2-.2.4-.6.4z"/></g></svg>